<?xml version="1.0" standalone="no"?>
<!DOCTYPE svg PUBLIC "-//W3C//DTD SVG 20010904//EN"
 "http://www.w3.org/TR/2001/REC-SVG-20010904/DTD/svg10.dtd">
<svg version="1.0" xmlns="http://www.w3.org/2000/svg"
 width="64.000000pt" height="64.000000pt" viewBox="0 0 64.000000 64.000000"
 preserveAspectRatio="xMidYMid meet">

<g transform="translate(0.000000,64.000000) scale(0.100000,-0.100000)"
fill="#000000" stroke="none">
<path d="M53 630 c-48 -19 -53 -51 -53 -310 0 -275 4 -291 68 -310 24 -7 121
-10 274 -8 l238 3 27 28 28 27 0 261 0 261 -33 29 -32 29 -248 -1 c-136 0
-257 -4 -269 -9z m542 -35 l25 -24 0 -251 0 -251 -25 -24 -24 -25 -251 0 -251
0 -24 25 -25 24 0 249 c0 237 1 251 21 276 l20 26 255 0 255 0 24 -25z"/>
<path d="M60 580 c-19 -19 -20 -33 -20 -260 0 -227 1 -241 20 -260 19 -19 33
-20 260 -20 227 0 241 1 260 20 19 19 20 33 20 255 l0 236 -25 24 -24 25 -236
0 c-222 0 -236 -1 -255 -20z m295 -66 c23 -40 30 -45 52 -39 86 21 87 21 80
-16 -3 -19 -9 -44 -13 -56 -5 -19 1 -27 40 -50 25 -15 46 -31 46 -34 0 -4 -21
-19 -46 -34 -40 -23 -45 -30 -39 -52 3 -14 9 -39 12 -56 7 -33 5 -33 -80 -12
-22 6 -29 1 -52 -39 -15 -25 -30 -46 -34 -46 -3 0 -19 21 -34 46 -24 40 -31
45 -54 40 -14 -4 -39 -10 -56 -13 l-30 -6 8 39 c14 71 13 77 -32 102 -24 13
-43 27 -43 30 0 4 21 20 46 35 40 24 45 31 40 54 -23 90 -22 92 42 74 44 -13
59 -6 83 40 11 22 23 39 28 39 5 0 21 -21 36 -46z"/>
<path d="M300 446 c-9 -17 -11 -51 -8 -110 4 -81 3 -84 -15 -75 -10 6 -21 8
-24 6 -3 -3 9 -13 26 -21 22 -12 30 -23 28 -39 -1 -14 3 -22 13 -22 10 0 14 8
13 22 -2 16 6 27 28 39 17 8 29 18 26 21 -3 2 -14 0 -24 -5 -18 -10 -19 -6
-15 77 6 114 -17 164 -48 107z"/>
</g>
</svg>
