<?xml version="1.0" standalone="no"?>
<!DOCTYPE svg PUBLIC "-//W3C//DTD SVG 20010904//EN"
 "http://www.w3.org/TR/2001/REC-SVG-20010904/DTD/svg10.dtd">
<svg version="1.0" xmlns="http://www.w3.org/2000/svg"
 width="64.000000pt" height="64.000000pt" viewBox="0 0 64.000000 64.000000"
 preserveAspectRatio="xMidYMid meet">

<g transform="translate(0.000000,64.000000) scale(0.100000,-0.100000)"
fill="#000000" stroke="none">
<path d="M53 630 c-48 -19 -53 -51 -53 -310 0 -275 4 -291 68 -310 24 -7 121
-10 274 -8 l238 3 27 28 28 27 0 261 0 261 -33 29 -32 29 -248 -1 c-136 0
-257 -4 -269 -9z m542 -35 l25 -24 0 -251 0 -251 -25 -24 -24 -25 -251 0 -251
0 -24 25 -25 24 0 249 c0 237 1 251 21 276 l20 26 255 0 255 0 24 -25z"/>
<path d="M60 580 c-19 -19 -20 -33 -20 -260 0 -227 1 -241 20 -260 19 -19 33
-20 260 -20 227 0 241 1 260 20 19 19 20 33 20 255 l0 236 -25 24 -24 25 -236
0 c-222 0 -236 -1 -255 -20z m103 -53 c-23 -12 -55 -32 -72 -45 -28 -21 -31
-22 -31 -5 0 22 84 72 120 72 22 0 19 -3 -17 -22z m273 -12 c25 -14 55 -43 69
-63 25 -37 44 -102 30 -102 -4 0 -37 17 -73 37 -64 36 -66 38 -38 43 27 5 28
6 10 22 -48 43 -135 50 -195 16 -46 -26 -50 -38 -11 -38 23 0 15 -7 -48 -45
-41 -24 -76 -42 -78 -41 -2 2 2 24 8 47 15 56 91 132 146 147 57 16 129 7 180
-23z m58 26 c3 -4 19 -11 35 -14 34 -7 52 -46 50 -111 -1 -39 -1 -40 -9 -11
-16 64 -30 85 -70 105 -40 20 -53 40 -26 40 8 0 17 -4 20 -9z m-158 -90 c-3
-5 -22 -11 -41 -13 -36 -4 -36 6 0 15 34 8 46 7 41 -2z m20 -92 c18 -20 18
-22 1 -52 -18 -30 -18 -31 3 -59 l21 -28 -28 -35 c-15 -19 -31 -35 -34 -35 -3
0 -17 16 -32 36 l-26 37 21 28 c20 27 20 30 5 47 -21 23 -22 46 -1 66 21 22
47 20 70 -5z m-125 -71 c9 -16 7 -26 -9 -47 -19 -26 -19 -27 -1 -50 25 -30 24
-40 -7 -75 -24 -28 -25 -28 -45 -10 -38 34 -42 52 -19 81 18 23 19 28 5 43
-21 23 -19 56 6 73 25 18 56 11 70 -15z m267 -17 c2 -13 -4 -31 -12 -40 -15
-16 -15 -20 4 -44 23 -29 19 -47 -19 -81 -20 -18 -21 -18 -45 10 -30 35 -31
42 -7 74 19 23 19 25 1 47 -22 28 -15 61 14 73 27 10 60 -10 64 -39z m64 32
c12 -10 18 -30 18 -57 l0 -41 -25 44 c-36 63 -33 90 7 54z m-449 -23 c-3 -11
-9 -23 -14 -26 -13 -7 -11 -151 1 -175 13 -23 -2 -26 -24 -3 -25 25 -22 157 5
195 24 34 39 38 32 9z m467 -152 c0 -31 -15 -68 -23 -58 -5 6 13 90 19 90 2 0
4 -15 4 -32z"/>
</g>
</svg>
