<?xml version="1.0" standalone="no"?>
<!DOCTYPE svg PUBLIC "-//W3C//DTD SVG 20010904//EN"
 "http://www.w3.org/TR/2001/REC-SVG-20010904/DTD/svg10.dtd">
<svg version="1.0" xmlns="http://www.w3.org/2000/svg"
 width="64.000000pt" height="64.000000pt" viewBox="0 0 64.000000 64.000000"
 preserveAspectRatio="xMidYMid meet">

<g transform="translate(0.000000,64.000000) scale(0.100000,-0.100000)"
fill="#000000" stroke="none">
<path d="M53 630 c-48 -19 -53 -51 -53 -310 0 -275 4 -291 68 -310 24 -7 121
-10 274 -8 l238 3 27 28 28 27 0 261 0 261 -33 29 -32 29 -248 -1 c-136 0
-257 -4 -269 -9z m542 -35 l25 -24 0 -251 0 -251 -25 -24 -24 -25 -251 0 -251
0 -24 25 -25 24 0 249 c0 237 1 251 21 276 l20 26 255 0 255 0 24 -25z"/>
<path d="M60 580 c-19 -19 -20 -33 -20 -260 0 -227 1 -241 20 -260 19 -19 33
-20 260 -20 227 0 241 1 260 20 19 19 20 33 20 255 l0 236 -25 24 -24 25 -236
0 c-222 0 -236 -1 -255 -20z m488 -8 c7 -5 17 -23 22 -42 11 -37 2 -180 -11
-180 -14 0 -33 -84 -20 -88 12 -4 15 -41 5 -66 -9 -23 -38 -20 -103 11 l-58
27 5 46 c2 25 6 47 8 49 1 2 14 -9 27 -23 40 -43 63 -31 47 24 -7 25 -6 36 6
47 11 12 18 13 26 5 13 -13 38 2 38 23 0 16 -62 71 -89 80 -12 3 -21 14 -21
24 0 15 -12 19 -67 25 -52 5 -70 4 -78 -7 -7 -10 -18 -11 -40 -6 -35 10 -90
-3 -116 -27 -22 -20 -25 -54 -5 -54 23 0 26 -38 5 -64 -31 -39 -19 -67 21 -46
18 10 20 8 20 -20 0 -33 16 -39 35 -13 11 14 13 13 19 -10 3 -15 10 -27 14
-27 7 0 52 117 52 135 -1 16 -40 -36 -40 -53 0 -13 -3 -13 -12 -4 -10 10 -17
6 -36 -15 l-25 -28 7 27 c3 14 9 33 12 42 4 11 -2 19 -17 25 -23 8 -22 10 25
40 62 39 86 47 96 31 4 -7 25 -13 47 -14 43 -2 104 -33 111 -56 3 -8 -9 -2
-27 13 -31 26 -71 36 -71 18 0 -4 -13 -7 -30 -5 -26 3 -30 0 -30 -21 0 -16 6
-25 15 -25 11 0 15 -12 15 -44 0 -72 -14 -96 -54 -96 -19 0 -63 -9 -98 -20
-59 -18 -64 -19 -76 -3 -16 22 -15 42 2 49 15 6 11 40 -9 64 -19 23 -37 175
-24 207 20 54 16 53 248 53 119 0 222 -4 229 -8z m-218 -52 c0 -5 -9 -10 -21
-10 -11 0 -17 5 -14 10 3 6 13 10 21 10 8 0 14 -4 14 -10z m-120 -15 c0 -7
-81 -47 -86 -42 -8 8 48 47 67 47 11 0 19 -2 19 -5z m137 -12 c-9 -9 -19 -14
-23 -11 -10 10 6 28 24 28 15 0 15 -1 -1 -17z m-147 -41 c0 -13 -23 -32 -39
-32 -11 0 -10 4 4 20 19 21 35 26 35 12z m164 -237 c-4 -8 -11 -15 -16 -15 -6
0 -5 6 2 15 7 8 14 15 16 15 2 0 1 -7 -2 -15z m-68 -10 c-3 -8 -2 -14 2 -14 4
1 9 0 12 -1 3 -1 12 -3 20 -5 8 -1 20 -4 25 -6 6 -1 23 1 38 6 18 5 33 3 40
-4 8 -8 7 -11 -6 -11 -9 0 -17 -5 -17 -11 0 -15 -91 -4 -101 12 -4 7 -8 5 -12
-5 -7 -18 -67 -23 -67 -6 0 6 14 10 30 10 33 0 38 11 14 34 -14 15 -13 16 6
16 16 0 20 -5 16 -15z m-56 -10 c-7 -8 -19 -15 -27 -15 -13 0 -13 3 -3 15 7 8
19 15 27 15 13 0 13 -3 3 -15z m-79 -17 c1 -7 1 -17 0 -21 -1 -5 12 -6 29 -2
23 5 30 3 30 -9 0 -23 12 -26 114 -32 84 -4 96 -3 96 12 0 11 5 14 16 10 10
-4 18 0 21 13 5 19 7 19 39 4 78 -38 17 -73 -140 -80 -94 -5 -117 -3 -151 13
-22 9 -55 22 -74 28 -43 14 -48 29 -22 55 24 24 40 27 42 9z"/>
<path d="M245 430 c-3 -5 -2 -10 4 -10 5 0 13 5 16 10 3 6 2 10 -4 10 -5 0
-13 -4 -16 -10z"/>
</g>
</svg>
