<?xml version="1.0" encoding="UTF-8" standalone="no"?>
<!-- Uploaded to: SVG Repo, www.svgrepo.com, Generator: SVG Repo Mixer Tools -->

<svg
   fill="#000000"
   width="800px"
   height="800px"
   viewBox="0 0 1000 1000"
   version="1.1"
   id="svg1"
   sodipodi:docname="alc.svg"
   inkscape:version="1.4.2 (f4327f4, 2025-05-13)"
   xml:space="preserve"
   xmlns:inkscape="http://www.inkscape.org/namespaces/inkscape"
   xmlns:sodipodi="http://sodipodi.sourceforge.net/DTD/sodipodi-0.dtd"
   xmlns="http://www.w3.org/2000/svg"
   xmlns:svg="http://www.w3.org/2000/svg"><defs
     id="defs1" /><sodipodi:namedview
     id="namedview1"
     pagecolor="#ffffff"
     bordercolor="#000000"
     borderopacity="0.25"
     inkscape:showpageshadow="2"
     inkscape:pageopacity="0.0"
     inkscape:pagecheckerboard="0"
     inkscape:deskcolor="#d1d1d1"
     inkscape:zoom="1.26125"
     inkscape:cx="399.60357"
     inkscape:cy="400"
     inkscape:window-width="1903"
     inkscape:window-height="1211"
     inkscape:window-x="2658"
     inkscape:window-y="612"
     inkscape:window-maximized="0"
     inkscape:current-layer="svg1"
     showgrid="true" /><path
     d="m 799.63867,29.284668 c -0.89518,-0.01343 -2.77507,2.558594 -5.63965,7.714844 -3.33333,6 -8.49804,12.666667 -15.49804,20 -7,7.333333 -13.16765,12.333333 -18.50098,15 -13.33333,6 -25,7.000488 -35,3.000488 -6,-2.666667 -12.00049,-3.000977 -18.00049,-1.000977 -6,2 -13.16569,6.668132 -21.49902,14.001465 -8.33333,7.333333 -15.33431,11.831868 -21.00098,13.498532 C 658.83284,103.16569 651.5,103.5 642.5,102.5 c -9,-1 -15.83382,-3.16569 -20.50049,-6.499023 -4.66667,-3.333333 -8,-5 -10,-5 -2,0 -5.99951,3.166178 -11.99951,9.499513 -6,6.33333 -9.99951,11.83235 -11.99951,16.49902 -6,14.66667 -14.99951,25.5 -26.99951,32.5 -12,7 -25.50049,11.33382 -40.50049,13.00049 -15,1.66667 -27.83431,0.16716 -38.50098,-4.49951 -8,-3.33333 -14.33235,-4.50098 -18.99902,-3.50098 -4.66667,1 -9.66667,4.33333 -15,10 C 442.66716,170.16618 440,174.99902 440,178.99902 c 0,4 -2.00098,10.83382 -6.00098,20.50049 -4,9.66667 -7.99951,16.99951 -11.99951,21.99951 -4,5 -7.33333,10.50147 -10,16.50147 -2.66667,6 -6.16716,10.33382 -10.50049,13.00049 -4.33333,2.66667 -11.16471,4.6652 -20.49804,5.99853 -22.66667,2 -39.00147,-4.00049 -49.00147,-18.00049 -5.33333,-8 -7,-12.33137 -5,-12.99804 2,-0.66667 4.33284,-3.33382 6.99951,-8.00049 2.66667,-4.66667 6.83333,-8.33431 12.5,-11.00098 5.66667,-2.66667 8.50098,-6 8.50098,-10 0,-6 -0.83333,-9.6652 -2.5,-10.99853 -1.66667,-1.33333 -5.49902,-1.66765 -11.49902,-1.00098 -6,0.66667 -10.00196,0.66667 -12.00196,0 -2,-0.66667 -4.83186,-2.66765 -8.49853,-6.00098 -3.66667,-3.33333 -5.99951,-5.99804 -6.99951,-7.99804 -1,-2 -1.50147,-5.66765 -1.50147,-11.00098 0,-7.33333 -1.66667,-12.66765 -5,-16.00098 l -5.99853,-5.99853 -3.00049,5 c -2,3.33333 -5.33333,6.33235 -10,8.99902 -4.66667,2.66667 -7.66814,6.83333 -9.00147,12.5 C 277.66569,170.16618 273,178.16765 265,188.50098 c -8,10.33333 -11.99951,17 -11.99951,20 0,3 -2.66716,6.83235 -8.00049,11.49902 -8,6.66667 -18,7.33284 -30,1.99951 -5.33333,-2 -5.99951,4.3348 -1.99951,19.00147 2,6.66667 5.50049,10.83333 10.50049,12.5 5,1.66667 9.16667,6.1652 12.5,13.49853 3.33333,7.33333 5.16471,12.50049 5.49804,15.50049 0.33333,3 -0.16569,6.66765 -1.49902,11.00098 -1.33333,4.33333 -1.33333,7.83137 0,10.49804 1.33333,2.66667 4.16765,5.16667 8.50098,7.5 4.33333,2.33333 6.49902,4.50147 6.49902,6.50147 0,2 -2.33284,5.33333 -6.99951,10 -4.66667,4.66667 -10.16814,7.16667 -16.50147,7.5 -6.33333,0.33333 -11.83235,-1.33333 -16.49902,-5 C 210.33333,326.83382 207.66618,325 206.99951,325 c -0.66667,0 -1.99902,3.50049 -3.99902,10.50049 -2,7 -5.00147,12.16716 -9.00147,15.50049 -12.66667,11.33333 -22.33235,18.33186 -28.99902,20.99853 -4.66667,2 -11.33333,2.16716 -20,0.50049 -8.66667,-1.66667 -15.99951,-4.66569 -21.99951,-8.99902 -6,-4.33333 -9.8348,-6.50147 -11.50147,-6.50147 -1.66667,0 -5.16471,-1.99853 -10.49804,-5.99853 -10.66667,-9.33333 -13.001957,-6 -7.001957,10 2.666667,9.33333 3.335287,16.66618 2.001954,21.99951 -1.333333,5.33333 -2.001954,10.33333 -2.001954,15 0,4.66667 0.668621,7.33382 2.001954,8.00049 1.333333,0.66667 5.165693,0.33235 11.499023,-1.00098 6.33333,-1.33333 12.33382,-1.16618 18.00049,0.50049 5.66667,1.66667 10.1652,5.16716 13.49853,10.50049 4.66667,7.33333 5.16814,15.1652 1.50147,23.49853 -3.66667,8.33333 -10.8348,15.16716 -21.50147,20.50049 -6,3.33333 -9.83235,6.49951 -11.49902,9.49951 -1.66667,3 -1.83382,7.50098 -0.50049,13.50098 0.66667,4 1.66716,6.5 3.00049,7.5 1.33333,1 3.66618,1.83333 6.99951,2.5 8,2 14.16765,7 18.50098,15 4.33333,8 4.50049,14.99853 0.50049,20.99853 -1.33333,2.66667 -0.66716,6 1.99951,10 3.33333,6 5.66618,13.83431 6.99951,23.50098 1.33333,9.66667 1.33333,20.5 0,32.5 -1.33333,12 -3.83333,21.66569 -7.5,28.99902 -3.66667,7.33333 -9.16569,13.66814 -16.49902,19.00147 l -20,15 c -4.66667,3.33333 -9.833825,5.33186 -15.500492,5.99853 -5.666667,0.66667 -10.499511,-0.33137 -14.499511,-2.99804 -2,-0.66667 -3.334798,-1.00098 -4.001465,-1.00098 -0.666667,0 -0.998535,1.00049 -0.998535,3.00049 0,7.33333 3.333333,16.66716 10,28.00049 6.666667,11.33333 15.331868,22.33137 25.998533,32.99804 6,6.66667 10.33382,10.83333 13.00049,12.5 2.66667,1.66667 6.33431,2.5 11.00098,2.5 4.66667,0 10.99902,2.16814 18.99902,6.50147 8,4.33333 13.66618,9.16618 16.99951,14.49951 7.33333,10.66667 11.00098,27.99951 11.00098,51.99951 0.66667,13.33333 4.9e-4,22.16814 -1.99951,26.50147 -2,4.33333 -7.66863,8.5 -17.00196,12.5 -7.33333,2.66667 -10.99853,4.99951 -10.99853,6.99951 0,2 7.66716,4.66716 23.00049,8.00049 15.33333,3.33333 24.66471,4.49853 27.99804,3.49853 3.33333,-1 11.66667,-0.33382 25,1.99951 13.33333,2.33333 26.50196,6.5 39.50196,12.5 13,6 24.1652,13.33529 33.49853,22.00196 7.33333,6.66667 12.8348,13.16618 16.50147,19.49951 3.66667,6.33333 6.16667,13.49902 7.5,21.49902 0.66667,5.33333 1.66471,8.83382 2.99804,10.50049 1.33333,1.66667 5.00098,3.16618 11.00098,4.49951 2.66667,0.66667 5.16667,0.83382 7.5,0.50049 2.33333,-0.33333 5.16765,-1.83284 8.50098,-4.49951 6,-4 14.6652,-7.99951 25.99853,-11.99951 11.33333,-4 20.5,-5.66667 27.5,-5 7,0.66667 14.66716,3.66569 23.00049,8.99902 8.33333,5.33333 16.66667,9.00098 25,11.00098 8.33333,2 15.49902,2 21.49902,0 3.33333,-0.66667 6.00049,-2.00147 8.00049,-4.00147 2,-2 4.00098,-5.33333 6.00098,-10 7.33333,-14 16.83186,-23.33382 28.49853,-28.00049 11.66667,-4.66667 24.50098,-4.66667 38.50098,0 8.66667,3.33333 16.33382,7.33529 23.00049,12.00196 6.66667,4.66667 11.49951,9.83137 14.49951,15.49804 3,5.66667 8.83333,10.66667 17.5,15 8.66667,4.33333 18.00049,6.50147 28.00049,6.50147 l 13.99902,0.99853 1.00098,-15 c 0.66667,-10 2.50049,-17.33284 5.50049,-21.99951 3,-4.66667 9.33235,-12.33382 18.99902,-23.00049 9.66667,-10.66667 18.16716,-19 25.50049,-25 9.33333,-7.33333 17.1652,-12.33333 23.49853,-15 C 727.83235,866.33235 735.00049,865 743.00049,865 c 8,0 13.33186,-0.33431 15.99853,-1.00098 5.33333,-2 5.00147,-12.33186 -0.99853,-30.99853 -3.33333,-8.66667 -4.66814,-16.50098 -4.00147,-23.50098 0.66667,-7 3.00196,-14.16569 7.00196,-21.49902 4,-7.33333 10.1652,-13.83284 18.49853,-19.49951 8.33333,-5.66667 16.3348,-8.83529 24.00147,-9.50196 7.66667,-0.66667 13.5,-2.6652 17.5,-5.99853 4,-3.33333 6.99902,-8.66765 8.99902,-16.00098 4.66667,-15.33333 14.66667,-27 30,-35 8.66667,-4 16.50098,-9.49902 23.50098,-16.49902 7,-7 13.83137,-12 20.49804,-15 6.66667,-3 13.00147,-7.16667 19.00147,-12.5 6,-5.33333 9.16618,-9.66716 9.49951,-13.00049 0.33333,-3.33333 -1.83235,-8.99951 -6.49902,-16.99951 -4,-8 -6.33529,-17.66814 -7.00196,-29.00147 -1.33333,-13.33333 -2.49853,-20.66618 -3.49853,-21.99951 -1,-1.33333 -2.49951,3.00049 -4.49951,13.00049 -3.33333,15.33333 -8.50049,28.66667 -15.50049,40 -7,11.33333 -15.16618,19.00049 -24.49951,23.00049 -6,2.66667 -13.66716,3.99902 -23.00049,3.99902 -6.66667,0 -11.3348,-0.49902 -14.00147,-1.49902 -2.66667,-1 -6.33186,-3.5 -10.99853,-7.5 -7.33333,-6 -11.66716,-9.00147 -13.00049,-9.00147 -1.33333,0 -3.66618,-3.6652 -6.99951,-10.99853 -3.33333,-7.33333 -5,-13.33382 -5,-18.00049 0,-6.66667 -1.66667,-12.33284 -5,-16.99951 -3.33333,-4.66667 -5,-10.16814 -5,-16.50147 0,-6.33333 1.49951,-11.33333 4.49951,-15 3,-3.66667 4.83382,-8.49951 5.50049,-14.49951 0.66667,-4 1.5,-6.5 2.5,-7.5 1,-1 3.16569,-1.83333 6.49902,-2.5 3.33333,-0.66667 5.50147,-1.83186 6.50147,-3.49853 1,-1.66667 2.1652,-6.83382 3.49853,-15.50049 2,-11.33333 5.33333,-19.00049 10,-23.00049 2,-2.66667 3.3348,-4.99951 4.00147,-6.99951 0.66667,-2 0.66667,-5.00147 0,-9.00147 -0.66667,-4 -1.5,-6.5 -2.5,-7.5 -1,-1 -3.66716,-1.49902 -8.00049,-1.49902 -4.33333,0 -7.66667,-1.83382 -10,-5.50049 -2.33333,-3.66667 -2.8348,-7.49902 -1.50147,-11.49902 1.33333,-4 4.50196,-6.83431 9.50196,-8.50098 5,-1.66667 8.49804,-5.49902 10.49804,-11.49902 2,-4.66667 2.83333,-7.66814 2.5,-9.00147 -0.33333,-1.33333 -2.16471,-3 -5.49804,-5 -14,-10.66667 -22.66765,-22.33333 -26.00098,-35 -3.33333,-15.33333 -1.16765,-29.16569 6.49902,-41.49902 7.66667,-12.33333 19.8348,-20.16765 36.50147,-23.50098 7.33333,-1.33333 11.66716,-2.49853 13.00049,-3.49853 1.33333,-1 1.99951,-3.16814 1.99951,-6.50147 0,-3.33333 -0.50147,-5.66618 -1.50147,-6.99951 -1,-1.33333 -3.16569,-2.33382 -6.49902,-3.00049 -6,-1.33333 -9.16618,-5.33284 -9.49951,-11.99951 -0.33333,-6.66667 2.16667,-11.00049 7.5,-13.00049 3.33333,-0.66667 8.6652,-3.83284 15.99853,-9.49951 7.33333,-5.66667 14,-9.16716 20,-10.50049 3.33333,-0.66667 5.50147,-1.5 6.50147,-2.5 1,-1 1.16716,-3.16569 0.50049,-6.49902 -1.33333,-4.66667 0.16618,-10.83431 4.49951,-18.50098 4.33333,-7.66667 6,-12.66667 5,-15 -1,-2.33333 -4.66765,-1.99902 -11.00098,1.00098 C 883.16618,215.5 880,218 880,220 c 0,2 -2.66716,5.66765 -8.00049,11.00098 -3.33333,3.33333 -6.00049,5.33186 -8.00049,5.99853 -2,0.66667 -6.33137,0.66667 -12.99804,0 -8,-0.66667 -13.16716,-0.1652 -15.50049,1.50147 C 833.16716,240.16765 833,244 835,250 c 1.33333,3.33333 1.50049,7.5 0.50049,12.5 -1,5 -2.66667,7.5 -5,7.5 -2.33333,0 -4.16716,2.16569 -5.50049,6.49902 -1.33333,4.33333 -1.33333,8.16814 0,11.50147 3.33333,6.66667 -0.33431,10 -11.00098,10 -5.33333,0 -9.16569,1.1652 -11.49902,3.49853 -2.33333,2.33333 -4.16716,3.33382 -5.50049,3.00049 -1.33333,-0.33333 -4.33235,-2.83333 -8.99902,-7.5 -4.66667,-4.66667 -8.16716,-7.33382 -10.50049,-8.00049 -2.33333,-0.66667 -8.16667,-0.99853 -17.5,-0.99853 -12.66667,0.66667 -19.99951,4.9e-4 -21.99951,-1.99951 -2,-2 -5.00147,-3.00049 -9.00147,-3.00049 -2.66667,0 -4.16618,0.33186 -4.49951,0.99853 -0.33333,0.66667 -0.16618,2.16863 0.50049,4.50196 0.66667,2.33333 -0.66569,6.5 -3.99902,12.5 -3.33333,6 -6.66667,9.83235 -10,11.49902 -3.33333,1.66667 -7.83431,2.5 -13.50098,2.5 -5.66667,0 -11.00098,-2.16569 -16.00098,-6.49902 -5,-4.33333 -7.5,-9.00147 -7.5,-14.00147 0,-5 -1.99853,-9.83284 -5.99853,-14.49951 -2,-2.66667 -3.16765,-4.83235 -3.50098,-6.49902 -0.33333,-1.66667 0.33284,-3.8348 1.99951,-6.50147 1.66667,-2.66667 2.00098,-5.66569 1.00098,-8.99902 -1,-3.33333 -3.33284,-6.00049 -6.99951,-8.00049 -3.66667,-2 -6.50098,-2.33431 -8.50098,-1.00098 -2,1.33333 -2.33186,3.50147 -0.99853,6.50147 1.33333,3 1.99951,5.33284 1.99951,6.99951 0,1.66667 -1.00049,3.83235 -3.00049,6.49902 -2.66667,4 -5.33382,6.00098 -8.00049,6.00098 -2.66667,0 -6.66618,1.66667 -11.99951,5 -8.66667,6.66667 -17.33431,6.66667 -26.00098,0 -4.66667,-3.33333 -11.99951,-4.66569 -21.99951,-3.99902 -6.66667,0 -11.00049,-0.33431 -13.00049,-1.00098 -2,-0.66667 -4.83186,-3.33382 -8.49853,-8.00049 -3.66667,-4.66667 -5.8348,-8.49902 -6.50147,-11.49902 -0.66667,-3 -0.99853,-9.66667 -0.99853,-20 0,-10.33333 0.33186,-17.50147 0.99853,-21.50147 0.66667,-4 2.33333,-8.33137 5,-12.99804 7.33333,-12.66667 18.16667,-20.83529 32.5,-24.50196 14.33333,-3.66667 28.5,-1.83284 42.5,5.50049 3.33333,1.33333 5.83333,1.99951 7.5,1.99951 1.66667,0 5.16716,-1.1652 10.50049,-3.49853 5.33333,-2.33333 11.83284,-3.66814 19.49951,-4.00147 7.66667,-0.33333 13.5,0.16814 17.5,1.50147 4,1.33333 8.00196,0.33284 12.00196,-3.00049 2,-2 4.33284,-3.33235 6.99951,-3.99902 2.66667,-0.66667 7.00049,-1.00098 13.00049,-1.00098 10,0.66667 17.66471,-0.83284 22.99804,-4.49951 C 749.33235,161.83382 754.00049,155 758.00049,145 c 4,-10 10.66667,-20 20,-30 11.33333,-11.33333 19.33235,-23.167155 23.99902,-35.500488 4.66667,-12.333333 5.66716,-24.167156 3.00049,-35.500489 -2.66667,-8.666667 -4.33333,-13.499511 -5,-14.499511 -0.0937,-0.140625 -0.21484,-0.212647 -0.36133,-0.214844 z M 469.49951,313.50098 c 167.25764,2.0452 286.85034,116.70834 287.5,281.99951 0.59699,151.88936 -125.49208,286.00138 -288.00049,285 -155.32481,-0.95711 -288.51042,-111.74072 -289.49951,-285 -0.9599,-168.14619 136.85643,-283.87212 290,-281.99951 z"
     id="path8"
     sodipodi:nodetypes="sssccssssssscsscsssssssccsssssssssssccsssscccssssssssssssccsssccssssscscscscsccsssccscssscsssccscssssscscscscsssscscscssscccsscssccsssssccssssccscscsscsssssscsssccssssssscsccscssscscscscsssssscscssscssssscssssssssscssssssscscccssssscscsssscscsscscsssssss"
     style="display:inline" /><ellipse
     style="fill:none;stroke-width:1.25"
     id="path3"
     cx="478.03619"
     cy="605.42639"
     rx="213.95349"
     ry="220.41344" /><ellipse
     style="fill:none;stroke-width:1.25"
     id="path4"
     cx="450.90439"
     cy="608.52716"
     rx="15.24548"
     ry="26.098192" /><ellipse
     style="fill:none;stroke-width:1.25"
     id="path9"
     cx="487.85529"
     cy="610.85272"
     rx="226.35658"
     ry="240.82687" /><path
     d="m 799.63867,29.284668 c -0.89518,-0.01343 -2.77507,2.558594 -5.63965,7.714844 -3.33333,6 -8.49804,12.666667 -15.49804,20 -7,7.333333 -13.16765,12.333333 -18.50098,15 -13.33333,6 -25,7.000488 -35,3.000488 -6,-2.666667 -12.00049,-3.000977 -18.00049,-1.000977 -6,2 -13.16569,6.668132 -21.49902,14.001465 -8.33333,7.333333 -15.33431,11.831868 -21.00098,13.498532 C 658.83284,103.16569 651.5,103.5 642.5,102.5 c -9,-1 -15.83382,-3.16569 -20.50049,-6.499023 -4.66667,-3.333333 -8,-5 -10,-5 -2,0 -5.99951,3.166178 -11.99951,9.499513 -6,6.33333 -9.99951,11.83235 -11.99951,16.49902 -6,14.66667 -14.99951,25.5 -26.99951,32.5 -12,7 -25.50049,11.33382 -40.50049,13.00049 -15,1.66667 -27.83431,0.16716 -38.50098,-4.49951 -8,-3.33333 -14.33235,-4.50098 -18.99902,-3.50098 -4.66667,1 -9.66667,4.33333 -15,10 C 442.66716,170.16618 440,174.99902 440,178.99902 c 0,4 -2.00098,10.83382 -6.00098,20.50049 -4,9.66667 -7.99951,16.99951 -11.99951,21.99951 -4,5 -7.33333,10.50147 -10,16.50147 -2.66667,6 -6.16716,10.33382 -10.50049,13.00049 -4.33333,2.66667 -11.16471,4.6652 -20.49804,5.99853 -22.66667,2 -39.00147,-4.00049 -49.00147,-18.00049 -5.33333,-8 -7,-12.33137 -5,-12.99804 2,-0.66667 4.33284,-3.33382 6.99951,-8.00049 2.66667,-4.66667 6.83333,-8.33431 12.5,-11.00098 5.66667,-2.66667 8.50098,-6 8.50098,-10 0,-6 -0.83333,-9.6652 -2.5,-10.99853 -1.66667,-1.33333 -5.49902,-1.66765 -11.49902,-1.00098 -6,0.66667 -10.00196,0.66667 -12.00196,0 -2,-0.66667 -4.83186,-2.66765 -8.49853,-6.00098 -3.66667,-3.33333 -5.99951,-5.99804 -6.99951,-7.99804 -1,-2 -1.50147,-5.66765 -1.50147,-11.00098 0,-7.33333 -1.66667,-12.66765 -5,-16.00098 l -5.99853,-5.99853 -3.00049,5 c -2,3.33333 -5.33333,6.33235 -10,8.99902 -4.66667,2.66667 -7.66814,6.83333 -9.00147,12.5 C 277.66569,170.16618 273,178.16765 265,188.50098 c -8,10.33333 -11.99951,17 -11.99951,20 0,3 -2.66716,6.83235 -8.00049,11.49902 -8,6.66667 -18,7.33284 -30,1.99951 -5.33333,-2 -5.99951,4.3348 -1.99951,19.00147 2,6.66667 5.50049,10.83333 10.50049,12.5 5,1.66667 9.16667,6.1652 12.5,13.49853 3.33333,7.33333 5.16471,12.50049 5.49804,15.50049 0.33333,3 -0.16569,6.66765 -1.49902,11.00098 -1.33333,4.33333 -1.33333,7.83137 0,10.49804 1.33333,2.66667 4.16765,5.16667 8.50098,7.5 4.33333,2.33333 6.49902,4.50147 6.49902,6.50147 0,2 -2.33284,5.33333 -6.99951,10 -4.66667,4.66667 -10.16814,7.16667 -16.50147,7.5 -6.33333,0.33333 -11.83235,-1.33333 -16.49902,-5 C 210.33333,326.83382 207.66618,325 206.99951,325 c -0.66667,0 -1.99902,3.50049 -3.99902,10.50049 -2,7 -5.00147,12.16716 -9.00147,15.50049 -12.66667,11.33333 -22.33235,18.33186 -28.99902,20.99853 -4.66667,2 -11.33333,2.16716 -20,0.50049 -8.66667,-1.66667 -15.99951,-4.66569 -21.99951,-8.99902 -6,-4.33333 -9.8348,-6.50147 -11.50147,-6.50147 -1.66667,0 -5.16471,-1.99853 -10.49804,-5.99853 -10.66667,-9.33333 -13.001957,-6 -7.001957,10 2.666667,9.33333 3.335287,16.66618 2.001954,21.99951 -1.333333,5.33333 -2.001954,10.33333 -2.001954,15 0,4.66667 0.668621,7.33382 2.001954,8.00049 1.333333,0.66667 5.165693,0.33235 11.499023,-1.00098 6.33333,-1.33333 12.33382,-1.16618 18.00049,0.50049 5.66667,1.66667 10.1652,5.16716 13.49853,10.50049 4.66667,7.33333 5.16814,15.1652 1.50147,23.49853 -3.66667,8.33333 -10.8348,15.16716 -21.50147,20.50049 -6,3.33333 -9.83235,6.49951 -11.49902,9.49951 -1.66667,3 -1.83382,7.50098 -0.50049,13.50098 0.66667,4 1.66716,6.5 3.00049,7.5 1.33333,1 3.66618,1.83333 6.99951,2.5 8,2 14.16765,7 18.50098,15 4.33333,8 4.50049,14.99853 0.50049,20.99853 -1.33333,2.66667 -0.66716,6 1.99951,10 3.33333,6 5.66618,13.83431 6.99951,23.50098 1.33333,9.66667 1.33333,20.5 0,32.5 -1.33333,12 -3.83333,21.66569 -7.5,28.99902 -3.66667,7.33333 -9.16569,13.66814 -16.49902,19.00147 l -20,15 c -4.66667,3.33333 -9.833825,5.33186 -15.500492,5.99853 -5.666667,0.66667 -10.499511,-0.33137 -14.499511,-2.99804 -2,-0.66667 -3.334798,-1.00098 -4.001465,-1.00098 -0.666667,0 -0.998535,1.00049 -0.998535,3.00049 0,7.33333 3.333333,16.66716 10,28.00049 6.666667,11.33333 15.331868,22.33137 25.998533,32.99804 6,6.66667 10.33382,10.83333 13.00049,12.5 2.66667,1.66667 6.33431,2.5 11.00098,2.5 4.66667,0 10.99902,2.16814 18.99902,6.50147 8,4.33333 13.66618,9.16618 16.99951,14.49951 7.33333,10.66667 11.00098,27.99951 11.00098,51.99951 0.66667,13.33333 4.9e-4,22.16814 -1.99951,26.50147 -2,4.33333 -7.66863,8.5 -17.00196,12.5 -7.33333,2.66667 -10.99853,4.99951 -10.99853,6.99951 0,2 7.66716,4.66716 23.00049,8.00049 15.33333,3.33333 24.66471,4.49853 27.99804,3.49853 3.33333,-1 11.66667,-0.33382 25,1.99951 13.33333,2.33333 26.50196,6.5 39.50196,12.5 13,6 24.1652,13.33529 33.49853,22.00196 7.33333,6.66667 12.8348,13.16618 16.50147,19.49951 3.66667,6.33333 6.16667,13.49902 7.5,21.49902 0.66667,5.33333 1.66471,8.83382 2.99804,10.50049 1.33333,1.66667 5.00098,3.16618 11.00098,4.49951 2.66667,0.66667 5.16667,0.83382 7.5,0.50049 2.33333,-0.33333 5.16765,-1.83284 8.50098,-4.49951 6,-4 14.6652,-7.99951 25.99853,-11.99951 11.33333,-4 20.5,-5.66667 27.5,-5 7,0.66667 14.66716,3.66569 23.00049,8.99902 8.33333,5.33333 16.66667,9.00098 25,11.00098 8.33333,2 15.49902,2 21.49902,0 3.33333,-0.66667 6.00049,-2.00147 8.00049,-4.00147 2,-2 4.00098,-5.33333 6.00098,-10 7.33333,-14 16.83186,-23.33382 28.49853,-28.00049 11.66667,-4.66667 24.50098,-4.66667 38.50098,0 8.66667,3.33333 16.33382,7.33529 23.00049,12.00196 6.66667,4.66667 11.49951,9.83137 14.49951,15.49804 3,5.66667 8.83333,10.66667 17.5,15 8.66667,4.33333 18.00049,6.50147 28.00049,6.50147 l 13.99902,0.99853 1.00098,-15 c 0.66667,-10 2.50049,-17.33284 5.50049,-21.99951 3,-4.66667 9.33235,-12.33382 18.99902,-23.00049 9.66667,-10.66667 18.16716,-19 25.50049,-25 9.33333,-7.33333 17.1652,-12.33333 23.49853,-15 C 727.83235,866.33235 735.00049,865 743.00049,865 c 8,0 13.33186,-0.33431 15.99853,-1.00098 5.33333,-2 5.00147,-12.33186 -0.99853,-30.99853 -3.33333,-8.66667 -4.66814,-16.50098 -4.00147,-23.50098 0.66667,-7 3.00196,-14.16569 7.00196,-21.49902 4,-7.33333 10.1652,-13.83284 18.49853,-19.49951 8.33333,-5.66667 16.3348,-8.83529 24.00147,-9.50196 7.66667,-0.66667 13.5,-2.6652 17.5,-5.99853 4,-3.33333 6.99902,-8.66765 8.99902,-16.00098 4.66667,-15.33333 14.66667,-27 30,-35 8.66667,-4 16.50098,-9.49902 23.50098,-16.49902 7,-7 13.83137,-12 20.49804,-15 6.66667,-3 13.00147,-7.16667 19.00147,-12.5 6,-5.33333 9.16618,-9.66716 9.49951,-13.00049 0.33333,-3.33333 -1.83235,-8.99951 -6.49902,-16.99951 -4,-8 -6.33529,-17.66814 -7.00196,-29.00147 -1.33333,-13.33333 -2.49853,-20.66618 -3.49853,-21.99951 -1,-1.33333 -2.49951,3.00049 -4.49951,13.00049 -3.33333,15.33333 -8.50049,28.66667 -15.50049,40 -7,11.33333 -15.16618,19.00049 -24.49951,23.00049 -6,2.66667 -13.66716,3.99902 -23.00049,3.99902 -6.66667,0 -11.3348,-0.49902 -14.00147,-1.49902 -2.66667,-1 -6.33186,-3.5 -10.99853,-7.5 -7.33333,-6 -11.66716,-9.00147 -13.00049,-9.00147 -1.33333,0 -3.66618,-3.6652 -6.99951,-10.99853 -3.33333,-7.33333 -5,-13.33382 -5,-18.00049 0,-6.66667 -1.66667,-12.33284 -5,-16.99951 -3.33333,-4.66667 -5,-10.16814 -5,-16.50147 0,-6.33333 1.49951,-11.33333 4.49951,-15 3,-3.66667 4.83382,-8.49951 5.50049,-14.49951 0.66667,-4 1.5,-6.5 2.5,-7.5 1,-1 3.16569,-1.83333 6.49902,-2.5 3.33333,-0.66667 5.50147,-1.83186 6.50147,-3.49853 1,-1.66667 2.1652,-6.83382 3.49853,-15.50049 2,-11.33333 5.33333,-19.00049 10,-23.00049 2,-2.66667 3.3348,-4.99951 4.00147,-6.99951 0.66667,-2 0.66667,-5.00147 0,-9.00147 -0.66667,-4 -1.5,-6.5 -2.5,-7.5 -1,-1 -3.66716,-1.49902 -8.00049,-1.49902 -4.33333,0 -7.66667,-1.83382 -10,-5.50049 -2.33333,-3.66667 -2.8348,-7.49902 -1.50147,-11.49902 1.33333,-4 4.50196,-6.83431 9.50196,-8.50098 5,-1.66667 8.49804,-5.49902 10.49804,-11.49902 2,-4.66667 2.83333,-7.66814 2.5,-9.00147 -0.33333,-1.33333 -2.16471,-3 -5.49804,-5 -14,-10.66667 -22.66765,-22.33333 -26.00098,-35 -3.33333,-15.33333 -1.16765,-29.16569 6.49902,-41.49902 7.66667,-12.33333 19.8348,-20.16765 36.50147,-23.50098 7.33333,-1.33333 11.66716,-2.49853 13.00049,-3.49853 1.33333,-1 1.99951,-3.16814 1.99951,-6.50147 0,-3.33333 -0.50147,-5.66618 -1.50147,-6.99951 -1,-1.33333 -3.16569,-2.33382 -6.49902,-3.00049 -6,-1.33333 -9.16618,-5.33284 -9.49951,-11.99951 -0.33333,-6.66667 2.16667,-11.00049 7.5,-13.00049 3.33333,-0.66667 8.6652,-3.83284 15.99853,-9.49951 7.33333,-5.66667 14,-9.16716 20,-10.50049 3.33333,-0.66667 5.50147,-1.5 6.50147,-2.5 1,-1 1.16716,-3.16569 0.50049,-6.49902 -1.33333,-4.66667 0.16618,-10.83431 4.49951,-18.50098 4.33333,-7.66667 6,-12.66667 5,-15 -1,-2.33333 -4.66765,-1.99902 -11.00098,1.00098 C 883.16618,215.5 880,218 880,220 c 0,2 -2.66716,5.66765 -8.00049,11.00098 -3.33333,3.33333 -6.00049,5.33186 -8.00049,5.99853 -2,0.66667 -6.33137,0.66667 -12.99804,0 -8,-0.66667 -13.16716,-0.1652 -15.50049,1.50147 C 833.16716,240.16765 833,244 835,250 c 1.33333,3.33333 1.50049,7.5 0.50049,12.5 -1,5 -2.66667,7.5 -5,7.5 -2.33333,0 -4.16716,2.16569 -5.50049,6.49902 -1.33333,4.33333 -1.33333,8.16814 0,11.50147 3.33333,6.66667 -0.33431,10 -11.00098,10 -5.33333,0 -9.16569,1.1652 -11.49902,3.49853 -2.33333,2.33333 -4.16716,3.33382 -5.50049,3.00049 -1.33333,-0.33333 -4.33235,-2.83333 -8.99902,-7.5 -4.66667,-4.66667 -8.16716,-7.33382 -10.50049,-8.00049 -2.33333,-0.66667 -8.16667,-0.99853 -17.5,-0.99853 -12.66667,0.66667 -19.99951,4.9e-4 -21.99951,-1.99951 -2,-2 -5.00147,-3.00049 -9.00147,-3.00049 -2.66667,0 -4.16618,0.33186 -4.49951,0.99853 -0.33333,0.66667 -0.16618,2.16863 0.50049,4.50196 0.66667,2.33333 -0.66569,6.5 -3.99902,12.5 -3.33333,6 -6.66667,9.83235 -10,11.49902 -3.33333,1.66667 -7.83431,2.5 -13.50098,2.5 -5.66667,0 -11.00098,-2.16569 -16.00098,-6.49902 -5,-4.33333 -7.5,-9.00147 -7.5,-14.00147 0,-5 -1.99853,-9.83284 -5.99853,-14.49951 -2,-2.66667 -3.16765,-4.83235 -3.50098,-6.49902 -0.33333,-1.66667 0.33284,-3.8348 1.99951,-6.50147 1.66667,-2.66667 2.00098,-5.66569 1.00098,-8.99902 -1,-3.33333 -3.33284,-6.00049 -6.99951,-8.00049 -3.66667,-2 -6.50098,-2.33431 -8.50098,-1.00098 -2,1.33333 -2.33186,3.50147 -0.99853,6.50147 1.33333,3 1.99951,5.33284 1.99951,6.99951 0,1.66667 -1.00049,3.83235 -3.00049,6.49902 -2.66667,4 -5.33382,6.00098 -8.00049,6.00098 -2.66667,0 -6.66618,1.66667 -11.99951,5 -8.66667,6.66667 -17.33431,6.66667 -26.00098,0 -4.66667,-3.33333 -11.99951,-4.66569 -21.99951,-3.99902 -6.66667,0 -11.00049,-0.33431 -13.00049,-1.00098 -2,-0.66667 -4.83186,-3.33382 -8.49853,-8.00049 -3.66667,-4.66667 -5.8348,-8.49902 -6.50147,-11.49902 -0.66667,-3 -0.99853,-9.66667 -0.99853,-20 0,-10.33333 0.33186,-17.50147 0.99853,-21.50147 0.66667,-4 2.33333,-8.33137 5,-12.99804 7.33333,-12.66667 18.16667,-20.83529 32.5,-24.50196 14.33333,-3.66667 28.5,-1.83284 42.5,5.50049 3.33333,1.33333 5.83333,1.99951 7.5,1.99951 1.66667,0 5.16716,-1.1652 10.50049,-3.49853 5.33333,-2.33333 11.83284,-3.66814 19.49951,-4.00147 7.66667,-0.33333 13.5,0.16814 17.5,1.50147 4,1.33333 8.00196,0.33284 12.00196,-3.00049 2,-2 4.33284,-3.33235 6.99951,-3.99902 2.66667,-0.66667 7.00049,-1.00098 13.00049,-1.00098 10,0.66667 17.66471,-0.83284 22.99804,-4.49951 C 749.33235,161.83382 754.00049,155 758.00049,145 c 4,-10 10.66667,-20 20,-30 11.33333,-11.33333 19.33235,-23.167155 23.99902,-35.500488 4.66667,-12.333333 5.66716,-24.167156 3.00049,-35.500489 -2.66667,-8.666667 -4.33333,-13.499511 -5,-14.499511 -0.0937,-0.140625 -0.21484,-0.212647 -0.36133,-0.214844 z M 469.49951,313.50098 c 167.25764,2.0452 286.85034,116.70834 287.5,281.99951 0.59699,151.88936 -125.49208,286.00138 -288.00049,285 -155.32481,-0.95711 -288.51042,-111.74072 -289.49951,-285 -0.9599,-168.14619 136.85643,-283.87212 290,-281.99951 z"
     id="path11"
     sodipodi:nodetypes="sssccssssssscsscsssssssccsssssssssssccsssscccssssssssssssccsssccssssscscscscsccsssccscssscsssccscssssscscscscsssscscscssscccsscssccsssssccssssccscscsscsssssscsssccssssssscsccscssscscscscsssssscscssscssssscssssssssscssssssscscccssssscscsssscscsscscsssssss"
     style="display:none" /><path
     d="m 482.56052,481.24301 q -68.08796,0 -135.58384,0.59207 l -7.10483,-0.59207 q -7.10483,0 -10.06518,0.59207 -4.14448,1.18414 -6.21673,6.21673 -2.07224,5.03259 -2.07224,16.2819 -1.18414,35.52415 0.59207,101.24383 0,7.10483 5.03259,11.54535 5.03259,4.44052 12.43345,4.14448 7.40087,-0.29603 12.43345,-4.73655 5.03259,-4.44052 5.03259,-11.54535 1.18414,-17.17001 1.77621,-52.10209 v -0.59207 q 0,-16.57793 2.66431,-23.68276 2.66431,-7.10483 7.99293,-8.88104 2.96035,-0.59207 12.43346,0 h 1.7762 q 28.41932,1.77621 56.83864,1.18414 10.06518,-0.59207 14.80173,1.7762 6.51276,2.36828 9.47311,10.36122 2.96035,7.99293 2.96035,24.57087 0,12.43345 0.8881,37.59639 0.8881,25.16294 0.8881,37.59639 v 29.60346 q 0.59207,24.8669 -0.59207,31.37966 -1.7762,8.88104 -10.06517,10.65725 -5.32862,1.77621 -27.23518,1.18414 -19.53829,-1.18414 -32.56381,-1.18414 h -9.4731 q -18.35415,0.59207 -23.0907,-0.59207 -6.51276,-1.77621 -8.28897,-7.6969 -0.59207,-4.14448 -0.59207,-19.53828 l 0.59207,-19.53828 q 0,-1.18414 -2.96035,-3.55242 l -3.55241,-4.14448 q -74.00865,46.18139 -94.73107,125.51866 31.97174,-32.5638 55.6545,-52.10209 l 4.14449,-3.55241 q 6.51276,-7.10483 8.88104,-7.6969 4.73655,-0.59207 1.7762,13.02552 -2.36827,12.43345 11.84139,16.57794 8.28897,2.36827 27.23518,2.36827 h 5.32862 q 24.86691,0.59207 75.19279,0 h 18.94621 q 19.53828,-0.59207 27.82725,-3.25638 8.28897,-2.66431 11.24931,-10.95328 2.96035,-8.28896 3.55242,-26.64311 0.59207,-55.6545 1.77621,-165.77937 v -4.14448 q 0,-10.06518 -1.77621,-26.05104 -2.36828,-26.05105 -26.05104,-25.45898 z m 98.28348,13.02552 q -4.14449,-5.32862 -4.73656,-14.20966 -0.59207,-5.32862 0.59207,-15.98586 0.59207,-7.10483 0.59207,-10.65725 -1.18414,-20.13035 -3.55241,-26.64311 -2.36828,-8.28897 -11.24932,-10.65725 -6.51276,-1.7762 -27.82725,-1.7762 l -85.25796,0.59207 h -31.37966 q -9.47311,0.59207 -14.20966,5.32862 -4.73656,4.73655 -4.73656,13.61759 0.59207,15.3938 17.17001,16.57794 7.10483,0.59207 20.72242,1.18413 l 81.11348,1.77621 q 12.43345,0 18.35414,6.51276 5.92069,6.51276 5.32862,19.53829 -0.59207,30.19552 0,91.17865 v 74.60071 q 0,7.10483 1.77621,10.65725 2.96035,4.73655 9.47311,5.32862 16.57793,2.36828 21.31449,-11.84138 2.36827,-8.88104 2.36827,-18.35415 l 0.59207,-11.24931 q 0.59207,-23.0907 -1.18414,-34.34001 2.36828,-28.41932 7.6969,-42.62898 6.51276,-16.57794 23.0907,-27.82725 11.24931,-7.10483 34.93208,-20.13036 28.41932,-15.39379 43.81312,-26.05104 -29.60346,-6.51276 -58.61485,1.18414 -27.23518,7.10483 -46.18139,24.27483 z"
     id="path1"
     style="display:none;stroke-width:0.592069" /><path
     d="m 611.24345,414.65452 q -9.18051,6.48036 -48.60268,34.56191 -36.72203,26.46146 -45.36251,32.94183 -27.00149,20.52113 -38.34212,10.26056 -5.94032,-5.4003 -7.02039,-15.66086 -0.54002,-9.18051 2.43014,-16.74093 2.97016,-7.56042 13.77076,-16.74092 l 2.70015,-2.70015 q 2.16012,-2.16012 1.8901,-8.64048 -0.27001,-6.48036 -3.51019,-10.26056 -2.70015,-2.16012 -11.34062,-1.08007 -8.64048,1.08007 -19.44108,5.94033 -11.88066,5.94033 -22.68126,14.04078 l -5.94032,4.86026 q -29.70165,22.68126 -48.06265,39.42218 -24.84138,23.22128 -51.84287,55.62307 -14.5808,18.36102 -25.3814,33.48185 -29.16161,24.30135 -41.31229,59.94332 -12.15066,35.64197 -3.78021,72.364 8.37047,36.72202 35.10195,63.45351 26.73147,26.73147 63.72351,35.10193 36.99205,8.37047 72.63402,-3.78021 35.64197,-12.15067 59.40328,-41.31228 16.74093,-11.88066 34.56191,-26.46147 31.32173,-25.92142 54.00298,-50.7628 16.74093,-17.82098 38.88215,-46.98259 l 5.4003,-6.48036 q 8.10045,-10.80059 14.04073,-23.22128 4.32024,-10.8006 5.67035,-19.44107 1.3501,-8.64049 -0.81006,-10.8006 -3.78021,-3.24019 -10.26052,-3.78021 -6.48038,-0.54003 -8.6405,2.16011 l -2.70015,2.70016 q -9.18051,10.80059 -16.74092,13.77076 -7.56042,2.97016 -16.74093,1.8901 -10.26056,-0.54002 -15.66086,-6.48036 -10.26058,-11.34063 10.26056,-38.34212 6.48036,-9.72053 32.94183,-45.3625 28.08153,-39.42218 34.56194,-49.14272 5.40032,-8.64047 8.64048,-28.08155 2.16008,-10.80059 2.70012,-21.06116 l 0.54004,-0.54003 -9.72057,1.08006 q -11.3406,1.08006 -20.52113,3.24017 -12.96071,3.24019 -19.44107,7.02039 z M 387.6711,766.21395 q -27.00149,0 -49.68274,-15.12083 -22.68125,-15.12084 -33.21184,-40.23223 -10.53058,-25.11139 -5.13029,-51.84287 5.4003,-26.73147 24.57136,-46.17254 19.17106,-19.44108 46.17256,-24.84137 27.00149,-5.4003 52.11287,5.13027 25.1114,10.53059 40.23223,33.21184 15.12084,22.68126 15.12084,50.22277 0,24.30135 -12.15068,44.82248 -12.15067,20.52114 -32.6718,32.6718 -20.52114,12.15068 -45.36251,12.15068 z M 552.3802,539.94144 q -15.12083,22.68126 -18.90104,38.34212 -4.86027,19.44108 6.48035,31.86176 5.94033,7.02039 21.6012,7.56042 11.34063,0.54004 25.92143,-1.62009 l 12.42069,-2.70015 q -5.4003,8.64048 -12.96072,16.2009 l -4.32024,5.40029 q -14.04078,18.36102 -25.3814,29.70165 -14.5808,14.58081 -39.42217,35.10194 5.94032,-31.86176 -3.78021,-62.91348 -9.72054,-31.05171 -32.67182,-54.00298 -22.95126,-22.95127 -54.00297,-32.6718 -31.05173,-9.72055 -62.91348,-3.78021 20.52113,-25.38141 35.64196,-39.96221 11.34063,-11.34063 29.16162,-25.38141 l 5.4003,-4.32023 q 7.56042,-7.56042 16.74093,-13.50075 l -2.70016,12.96072 q -2.70014,14.5808 -2.16012,25.92143 1.08007,15.66086 8.10045,21.6012 12.42069,11.34062 31.86176,6.48035 15.66086,-3.78021 37.80209,-18.90105 21.60119,-14.04077 106.92591,-78.30432 l -0.54004,0.54003 q -64.80357,86.40478 -78.30432,106.38587 z"
     id="path1-1"
     style="display:none;stroke-width:0.54003" /><g
     style="display:none;fill:#000000"
     id="g11"
     transform="matrix(0.62995193,0,0,0.62995193,152.2126,310.96937)"><path
       d="m 868,301 q -2,0 -13.5,2 -11.5,2 -20.5,3 -2,-33 -29.5,-63.5 Q 777,212 745,206 q -20,-3 -39,7 -16,9 -24,23.5 -8,14.5 0,21.5 2,2 13,4 15,2 22,5 13,6 17,19 8,22 2,36.5 -6,14.5 -20,19.5 l -97,29 q -11,4 -30,11 -24,9 -38,12 -23,6 -51,6 -28,0 -51,-6 -14,-3 -37,-12 -19,-7 -29,-10 l -32,-10 q -96,-29 -138,-41 -72,-21 -81,-20 -37,4 -14,71 l 1,2 q 24,75 61,134 51,82 105,89 42,6 79,-5 23,-6 60,-26 24,-12 36,-17 21,-9 40,-10 18,1 38,9 12,5 34,16 -17,32 -50,94 -38,73 -43,84 l -7,15 q -7,15 -9,22 -3,10 2.5,14 5.5,4 16.5,-4 6,-5 16,-16 l 3,-3 q 19,-19 68,-78 64,-75 84,-93 31,2 62,-2 54,-7 105,-89 37,-59 61,-134 l 1,-2 q 8,-23 9,-39 1,-29 -23,-32 z M 290,521 q -32,-4 -56,-33 -19,-22 -31,-56 -9,-28 -8,-44 1,-11 58,6 48,15 108,41.5 60,26.5 69,36 9,9.5 -12.5,23 Q 396,508 362,516 q -39,9 -72,5 z m 420,0 q -33,4 -72,-5 -34,-8 -55.5,-21.5 -21.5,-13.5 -12.5,-23 9,-9.5 69,-36 60,-26.5 108,-41.5 57,-17 58,-6 1,16 -8,44 -12,34 -31,56 -24,29 -56,33 z"
       id="path1-5" /></g><g
     style="display:none;fill:#000000"
     id="g12"
     transform="matrix(0.5603081,0,0,0.5603081,187.19235,320.1204)"><path
       d="M 368,653 V 341 q 0,-5 -5,-9 -5,-4 -12,-6 l -6,-1 -6,1 q -7,2 -12,6 -5,4 -5,9 v 312 q 0,8 12,13 5,2 11,3 l 6,-1 q 7,-2 12,-6 5,-4 5,-9 z m 122,0 V 341 q 0,-8 -11,-13 -6,-2 -12,-3 l -6,1 q -6,2 -11.5,6 -5.5,4 -5.5,9 v 312 q 0,5 5.5,9 5.5,4 11.5,6 l 6,1 6,-1 q 7,-2 12,-6 5,-4 5,-9 z m 123,0 V 341 q 0,-5 -5,-9 -5,-4 -12,-6 l -6,-1 -6,1 q -7,2 -12,6 -5,4 -5,9 v 312 q 0,5 5,9 5,4 12,6 l 6,1 6,-1 q 7,-2 12,-6 5,-4 5,-9 z M 732,115 q -17,0 -32.5,13.5 Q 684,142 684,151 q 0,9 -8,11 -4,2 -16,2 H 299 q -18,0 -34.5,7.5 Q 248,179 235,192 q -8,8 -14,21.5 -6,13.5 -6,23.5 0,20 5,30 8,13 27,13 14,0 25,-7 7,-4 17,-14 7,-7 11,-9 6,-4 11,-4 h 328 q 16,0 31,10 18,13 18,35 v 346 q 0,14 -15,38 -16,26 -41,49 -28,27 -61,43 -39,18 -79,18 -115,0 -195,-60 l -2,-2 q -9,-6 -18,-8.5 -9,-2.5 -14,3 -5,5.5 0,23.5 5,18 14,28 12,13 35,30 35,27 75,44 52,22 105.5,22 53.5,0 120.5,-36 65,-35 109,-86 47,-55 47,-102 V 304 q 0,-11 8,-28.5 8,-17.5 8,-28.5 V 165 Q 785,150 767,132.5 749,115 732,115 Z"
       id="path1-14" /></g><g
     style="display:none;fill:#000000"
     id="g13"
     transform="matrix(0.62614092,0,0,0.62614092,157.03217,289.14784)"><path
       d="m 801,424 q -2,36 -13,62.5 -11,26.5 -34,55.5 -15,19 -58,65 l -19,19 q -54,59 -91,108 -21,29 -32,49 -7,13 -17.5,39 -10.5,26 -16.5,36 -10,14 -22,14 -12,0 -22,-14 -5,-10 -16,-36 Q 449,796 442,783 408,722 319,626 L 300,607 Q 257,561 242,542 219,513 208,486.5 197,460 195,424 q -4,-53 22,-90 23,-34 60,-43 50,-12 96,-43 74,-50 125,-143 51,93 125,143 46,31 96,43 37,9 60,43 26,37 22,90 z m -65,-15 q -3,-31 -20,-49 -15,-15 -37.5,-18 -22.5,-3 -44.5,5 -30,9 -37,43 -4,20 0,61 2,22 2,29 -1,12 -7,13 -15,3 -32,-16 -16,-16 -28,-41.5 -12,-25.5 -16,-43.5 -1,-6 1,-17 2,-15 8,-28 6,-16 28,-33 19,-14 28,-15 -10,-3 -47,-41 l -36,-38 h -1 q -67,74 -82,79 9,1 28,15 22,17 28,33 6,13 8,28 2,11 1,17 -3,18 -15.5,43.5 Q 452,461 437,477 q -18,19 -33,16 -6,-1 -7,-13 0,-7 2,-29 4,-41 0,-61 -7,-34 -37,-43 -22,-8 -44.5,-5 -22.5,3 -37.5,18 -17,18 -20,49 -4,38 21,79 15,24 55,68 l 16,17 q 33,37 87,85 28,26 38,37 16,17 21,32 5,-15 21,-32 10,-11 38,-37 54,-48 87,-85 l 16,-17 q 40,-43 55,-68 25,-41 21,-79 z"
       id="path1-2" /></g><g
     style="display:none;fill:#000000"
     id="g14"
     transform="matrix(0.67468807,0,0,0.67468807,131.81805,279.1365)"><path
       d="m 723,335 h -38 l -8,10 q -9,12 -18,19 -11,10 -17,10 -11,0 -18,-14 -7,-14 -7,-28 V 171 q 0,-13 -7,-30 -4,-13 -12,-25 l -7,-11 -7,12 q -7,13 -12,26 -7,17 -7,28 v 172 l -5,7 q -7,8 -19,16 -19,13 -41,16 -22,-3 -41,-16 -19,-13 -24,-23 V 171 q 0,-11 -7,-28 -5,-13 -12,-26 l -7,-12 -7,11 q -8,12 -12,25 -7,17 -7,30 v 161 q 0,14 -7,28 -7,14 -18,14 -6,0 -17,-10 -9,-7 -18,-19 l -8,-10 h -38 q -6,0 -10.5,4 -4.5,4 -3.5,10 0,4 72,165 53,117 58,130 7,19 41,122 l 19,56 q 5,13 14,23 9,10 16,10 l 17,1 17,-1 q 7,0 16,-10 9,-10 14,-23 l 19,-56 q 34,-103 41,-122 5,-13 58,-130 72,-161 72,-165 0,-6 -4,-10 -4,-4 -10,-4 z m -92,142 q -5,14 -24,35 -17,20 -34,31 l -10,6 q -12,7 -19.5,12.5 -7.5,5.5 -14,14 -6.5,8.5 -6.5,12.5 0,4 13,20 16,20 16,25 v 54 q 0,6 -17,30 -10,13 -11,17 -5,10 -8,23 -3,13 -3,19.5 0,6.5 -7,10.5 l -6,2 -6,-2 q -7,-4 -7,-10.5 0,-6.5 -3,-19.5 -3,-13 -8,-23 -1,-4 -11,-17 -17,-24 -17,-30 v -54 q 0,-5 16,-25 13,-16 13,-20 0,-4 -6.5,-12.5 -6.5,-8.5 -14,-14 Q 449,556 437,549 l -10,-6 q -17,-11 -34,-31 -19,-21 -24,-35 l -10,-39 6,-9 q 8,-11 16,-16 17,-11 30,-11 2,0 14,12 21,23 33.5,28.5 12.5,5.5 23.5,8.5 8,2 14,2 h 8 q 6,0 14,-2 11,-3 23.5,-8.5 Q 554,437 575,414 q 12,-12 14,-12 13,0 30,11 8,5 16,16 l 6,9 z"
       id="path1-57" /></g><g
     style="display:none;fill:#000000"
     id="g15"
     transform="matrix(0.58712709,0,0,0.58712709,178.82744,302.95169)"><path
       d="m 323,527 q 73,-22 101,-52 30,-33 27,-92 -36,10 -111,43 -50,21 -75,30 -42,16 -75,23 20,-23 56,-48 21,-15 66,-43 65,-40 91,-62 -46,-31 -72,-53 -35,-30 -57,-61 39,-2 79,12 24,8 69,33 l 29,15 q 10,-20 16,-47 4,-16 8.5,-49.5 4.5,-33.5 7.5,-49.5 6,-27 15,-47 11,24 18,55 5,19 11,57 9,54 16,78 19,-7 54,-22 40,-17 60,-23 35,-11 67,-13 -21,34 -56,62 -28,24 -74,51 26,22 92,64 45,28 66,43 36,26 58,48 -38,-7 -91,-27 -31,-12 -94,-39 -63,-27 -88,-35 -5,54 31.5,94 36.5,40 108.5,57 -13,18 -44,56 -37,43 -52,66 -26,38 -33,71 l -2,9 q -14,63 -22,95 -14,52 -29,95 l -13,-62 q -19,-90 -30,-135 -9,-38 -41,-86 -19,-28 -64,-82 z m 175,-48 q -12,6 -23,15 -6,6 -16,18 -9,10 -14,15 -15,15 -4,32 10,14 32,49 l 19,29 Q 524,601 537,579.5 550,558 549.5,543 549,528 535,512 526,502 498,479 Z"
       id="path1-9" /></g><g
     style="display:none;fill:#000000"
     id="g16"
     transform="translate(-2.5000156,0.2777644)"><path
       d="m 646.85723,427.93792 q -19.12027,26.9933 -38.24053,53.42425 l -1.12472,2.81181 q -2.24944,3.93652 -7.31069,10.12249 -6.74832,7.87304 -17.99554,19.12026 L 391.54551,702.36989 q 25.86858,16.30846 55.95488,18.5579 30.08629,2.24944 57.92314,-9.84131 27.83685,-12.09075 46.95711,-35.42872 19.12026,-23.33796 25.30623,-53.14307 2.24944,-12.9343 10.12249,-18.5579 6.18597,-4.49889 13.77783,-3.93653 7.59187,0.56237 13.21548,6.18597 7.31069,6.74832 5.62361,17.43318 -7.87305,50.61245 -37.67817,84.35409 0,2.8118 2.24945,10.68485 3.93652,13.49665 3.93652,20.24498 0.56236,11.24721 -5.62361,16.30846 -5.6236,4.49888 -14.05901,1.12472 -5.06124,-1.68708 -15.7461,-7.87305 -6.74833,-3.93652 -8.99777,-5.06124 -4.49888,-2.24944 -6.18596,-1.12472 -43.30177,24.1815 -92.50832,21.08852 -49.20655,-3.09298 -88.5718,-32.8981 l -0.56236,0.56236 q -38.24052,27.55567 -52.29954,36.55345 -7.31069,5.06124 -11.80957,6.18596 -3.93652,0.56236 -5.6236,0 l -3.37417,-3.37416 q -1.12472,-2.24944 0,-5.62361 1.12473,-5.06125 5.62361,-11.80958 11.24721,-15.74609 38.24052,-53.42425 l 1.68708,-2.81181 q 2.24944,-3.93652 6.74833,-10.12248 7.31069,-8.43541 18.5579,-19.68263 L 526.51205,496.54591 q -28.11803,-19.12026 -62.42203,-21.3697 -34.30399,-2.24945 -64.67146,13.77784 -30.36747,16.02727 -48.08184,45.5512 -17.71436,29.52393 -17.71436,63.82793 0,9.56013 -3.93652,16.87082 -4.49889,7.87305 -14.34019,8.71659 -9.84132,0.84354 -17.15201,-6.74833 -7.31068,-7.59187 -7.31068,-18.83908 0,-37.1158 15.18373,-69.73272 15.18374,-32.61691 42.73941,-56.23606 27.55567,-23.61914 62.42203,-33.74163 1.68708,-0.56236 3.37416,-4.49888 1.12472,-2.81181 3.37417,-10.1225 3.93652,-13.49665 6.74833,-19.12026 4.49888,-10.12249 11.2472,-10.68485 6.74833,-0.56236 14.62138,8.99777 3.93653,5.62361 11.24721,18.5579 6.18597,11.24722 7.87305,11.24722 48.92537,3.37416 87.72826,33.17927 16.30845,-14.62138 20.80734,-15.18374 l 53.98661,-38.24052 q 7.31069,-4.49888 11.80958,-5.6236 3.37417,-1.12472 5.62361,0 l 3.37416,3.37416 q 1.12472,2.24944 0,5.6236 -1.12472,5.06125 -6.18596,11.80958 z"
       id="path1-54"
       style="stroke-width:0.56236" /></g><g
     style="display:none;fill:#000000"
     id="g17"
     transform="matrix(0.61510458,0,0,0.61510458,165.01287,295.17328)"><path
       d="M 756,479 Q 741,464 724,452 517,305 310,159 l -1,-1 q -19,-13 -29,-16 -29,-8 -46,22 -14,23 10,42 10,8 32,23 l 95,68 q 154,108 230,163 l 18,12 q 16,10 24,16 14,11 23,23 -9,8 -20,15 -37,18 -51,35 -14,17 -10,38 4,21 27,54 14,20 31,38 14,14 11,28 -3,12 -18,24 -13,10 -18,12 -5,2 -10,-4 -4,-4 -16,-23 -23,-34 -33,-53 -16,-33 -45,-17 -22,13 -7,43 24,48 37,71 22,39 45,66 18,22 30,22 12,0 30,-23 13,-17 37,-52 l 11,-16 q 22,-32 26,-42 6,-15 -1,-29 -5,-10 -30,-40 l -3,-4 q -10,-12 -26,-30 -20,-21 -22,-28 -3,-9 10,-16 10,-6 51,-21 l 5,-1 q 11,-5 34,-16 l 3,-2 q 27,-14 27,-30 1,-13 -15,-31 z m -205,59 q 6,-26 -0.5,-44 Q 544,476 522,462 482,435 403,379 L 294,303 q -11,-8 -22.5,-8.5 -11.5,-0.5 -15,10.5 -3.5,11 0,26 3.5,15 10.5,23 7,8 15,12 7,4 12,7 115,83 176,124 l 2,1 q 19,13 26,21 12,15 9,31 -2,11 -10,22 -8,11 -17.5,13 -9.5,2 -18.5,-4.5 -9,-6.5 -8,-16.5 1,-26 -10,-39 -8,-11 -32,-20 -8,21 -10,46 -1,14 1,43 l 1,10 q 2,23 14,31 11,6 34,2 34,-5 52.5,-14.5 Q 522,613 532.5,594 543,575 551,538 Z"
       id="path1-3" /></g><g
     style="display:none;fill:#000000"
     id="g18"
     transform="matrix(0.61714433,0,0,0.61714433,159.5775,287.78759)"><path
       d="m 525,235 q 21,-18 36,-39 12,-17 19,-35 6,-13 9,-26 l 1,-10 h -10 q -12,1 -26,4 -20,4 -38,13 -24,11 -45,29 L 190,407 q -20,17 -35,38 -12,17 -20,35 -6,13 -8,26 l -2,10 h 10 q 13,-1 27,-4 19,-4 38,-13 23,-11 44,-29 L 384,352 Z m 142,169 q 21,-17 36,-38 12,-17 20,-36 5,-13 8,-25 l 2,-10 h -10 q -13,1 -27,4 -19,4 -38,13 -23,11 -44,29 L 333,576 q -21,18 -36,39 -12,17 -20,35 -5,13 -8,26 l -2,9 h 10 q 13,0 27,-3 19,-5 38,-13 23,-11 44,-29 L 527,522 Z M 756,510 616,628 475,746 q -21,18 -36,39 -12,16 -19,35 -6,13 -9,25 l -1,10 h 10 q 12,0 26,-3 20,-5 38,-14 24,-11 45,-28 L 810,574 q 38,-32 55,-74 9,-21 10,-35 h -10 q -13,0 -27,3 -19,5 -38,13 -23,12 -44,29 z"
       id="path1-13" /></g><g
     style="display:none;fill:#000000"
     id="g19"
     transform="matrix(0.61177032,0,0,0.61177032,187.2203,280.55044)"><path
       d="m 593.85056,695.6933 q 7.87468,-4.92167 13.7807,-10.82768 9.84335,-8.85902 17.71803,-17.71804 15.74936,-18.70236 27.56138,-39.3734 34.45174,-60.04445 34.45174,-126.97924 0.98433,-91.54318 -60.04445,-187.02369 -33.4674,-52.16976 -80.71549,-88.59017 -40.35774,-30.51439 -90.55883,-50.20109 -39.37341,-15.74936 -83.66849,-23.62404 -30.5144,-4.92168 -61.02879,-5.90602 l -24.60838,0.98434 16.7337,1.96867 q 19.68671,3.93734 42.32642,11.81202 30.51439,10.82769 59.06011,27.56139 36.4204,21.65537 68.90346,50.20109 38.38907,33.4674 68.90346,76.77815 -7.87468,-2.95301 -16.7337,-5.90601 l -8.85901,-2.95301 q -11.81202,-2.95301 -25.59272,-4.92168 -17.71803,-1.96867 -37.40473,-1.96867 -23.62405,0 -46.26376,3.93734 -27.56138,4.92168 -53.1541,14.76503 -28.54572,12.79636 -55.12277,31.49873 -29.53005,21.65537 -54.13843,52.16976 -27.56139,33.4674 -50.2011,76.77815 -45.27942,86.62149 -38.38907,184.07068 3.93734,69.8878 34.45173,138.79126 14.76503,34.45173 28.54572,55.12277 l -5.90601,-15.74936 q -6.89035,-19.68671 -10.82769,-42.32642 -5.90601,-31.49872 -5.90601,-64.96612 0,-42.32641 8.85902,-84.65282 9.84335,-50.2011 32.48306,-98.43352 0.98433,8.85901 2.95301,17.71803 3.93734,19.6867 11.81202,37.40474 3.93734,8.85901 7.87468,16.7337 31.49872,62.99745 89.5745,100.40218 80.71549,53.1541 202.77305,47.24809 61.02878,-1.96867 117.13589,-25.59271 46.26375,-18.70237 88.59016,-52.16977 32.48307,-26.57705 61.02879,-61.02878 20.67103,-24.60838 36.4204,-50.20109 l 11.81202,-20.67104 -10.82769,11.81202 Q 843.8717,587.41643 827.138,603.1658 801.54529,623.83684 772.99957,640.57053 736.57916,662.22591 696.22142,675.02227 647.989,690.77163 593.85056,695.6933 Z M 458.99664,660.25724 q -38.38907,0 -70.37996,-18.70237 -31.9909,-18.70237 -50.69327,-50.69326 -18.70237,-31.9909 -18.70237,-69.8878 0,-37.89691 18.70237,-70.37997 18.70237,-32.48306 50.69327,-51.18543 31.99089,-18.70237 69.88779,-18.70237 37.89691,0 69.8878,18.70237 31.9909,18.70237 50.69326,51.18543 18.70237,32.48306 18.70237,70.37997 0,37.8969 -18.70237,69.8878 -18.70236,31.99089 -50.69326,50.69326 -31.99089,18.70237 -69.39563,18.70237 z"
       id="path1-27"
       style="stroke-width:0.984335" /></g><path
     d="m 673.39678,440.84863 q -10.51688,19.28095 -32.71917,56.09002 -28.62928,47.91025 -36.80907,65.43837 -2.33709,5.84272 -2.33709,16.3596 0.58427,6.42699 0,10.51689 -1.16855,18.11239 -6.13485,27.75289 -4.96631,9.64046 -10.22474,3.79776 l -5.84272,-6.42698 q -15.19106,-18.11242 -23.37086,-24.5394 -14.02251,-9.93262 -32.71917,-13.43823 -12.26971,-1.75281 -11.68544,-7.88767 0.58427,-6.13486 10.22476,-13.43823 9.64046,-7.30341 22.49444,-12.56184 2.33709,-1.16855 5.8427,-2.33708 7.59553,-1.75282 14.60679,-5.84272 8.76406,-7.01124 21.03376,-21.03376 7.01124,-8.76408 22.78658,-28.62931 30.38209,-38.56189 46.74168,-54.3372 9.34834,-6.42698 14.89893,-3.50563 5.55058,2.92136 3.21347,14.02252 z m -180.53979,87.64066 q -10.51689,0 -18.40452,-5.55055 -7.88767,-5.5506 -7.88767,-13.43825 0,-7.88768 7.88767,-13.43824 7.88763,-5.55058 18.69666,-5.55058 10.80904,0 18.69667,5.55058 7.88767,5.55056 7.88767,13.43824 0,7.88765 -7.88767,13.43825 -7.88763,5.55055 -18.98881,5.55055 z m -78.87662,50.8316 q -15.19105,0 -26.29219,-7.88765 -11.10118,-7.88766 -11.10118,-18.98883 0,-11.10115 11.10118,-18.9888 11.10114,-7.88766 26.58433,-7.88766 15.4832,0 26.58435,7.88766 11.10116,7.88765 11.10116,18.9888 0,11.10117 -11.10116,18.98883 -11.10115,7.88765 -26.87649,7.88765 z m 23.95512,-112.18007 q -37.39334,18.11241 -67.77546,46.15743 -33.88773,30.96639 -49.07878,64.26982 -16.94387,37.97764 -7.59552,73.61818 3.50562,11.68545 9.9326,22.20233 4.0899,6.42697 12.2697,15.77531 9.34834,11.10115 12.26969,17.52814 4.08992,9.93261 1.16855,23.95512 -8.17979,21.03376 -24.53938,20.44949 -40.89899,0 -61.3485,-64.8541 -14.60677,-46.15744 2.92136,-92.89912 16.3596,-45.57318 58.42714,-81.798 42.06752,-36.22479 99.91037,-53.16867 7.01125,-1.16852 12.56184,-0.29213 5.55058,0.8764 5.84271,3.50564 0.29213,2.62921 -4.96632,5.55056 z M 376.587,651.77052 q -14.60676,0 -24.53936,-7.30339 -9.93263,-7.30338 -9.93263,-17.23599 0,-9.93261 9.93263,-17.23599 9.9326,-7.3034 24.24724,-7.3034 14.31465,0 24.5394,7.3034 10.22476,7.30338 10.22476,17.23599 0,9.93261 -10.22476,17.23599 -10.22475,7.30339 -24.24728,7.30339 z m 33.88774,64.85412 q 3.50563,-9.93261 8.76409,-27.46075 7.59551,-25.12367 12.26968,-36.22482 8.17981,-18.11242 21.03376,-31.55065 14.60679,-16.35959 40.31472,-30.96638 15.77533,-3.50562 33.88772,3.50564 16.35961,6.42699 29.50571,19.86522 13.14609,13.43824 18.40454,28.04503 -4.08988,49.66304 -37.39336,82.96651 -30.96635,30.38209 -77.41592,39.73043 -46.44957,9.34834 -92.607,-5.25843 0.58426,-7.01126 6.42698,-12.85398 3.50564,-2.92134 13.1461,-8.17979 9.64048,-5.25844 14.31464,-8.17981 7.01127,-5.84272 9.34834,-13.43822 z m 35.0563,12.85396 q 10.51687,2.92135 28.62926,-0.58426 16.35961,-4.6742 32.13495,-15.77534 17.52812,-12.85396 26.29218,-28.62928 9.93263,-18.69669 4.0899,-36.80909 -2.92134,-7.01126 -10.22474,-13.43824 -7.30338,-6.42698 -16.65173,-8.76406 -11.10115,-2.33709 -16.94387,2.92134 -48.49452,41.48327 -47.32595,101.07893 z"
     id="path1-19"
     style="display:none;stroke-width:0.584271" /><g
     style="display:none;fill:#000000"
     id="g20"
     transform="matrix(0.59288959,0,0,0.59288959,163.912,322.52489)"><path
       d="m 765.35805,125.62712 q -5,0 -14,10 -6,6 -18.5,21.5 -12.5,15.5 -17.5,21.5 -9,10 -14,10 h -138 q -4,0 -20,-34 l -6,-13 q -6,-12 -14,-20 -5,-6 -11,-8 l -4,-2 -4,2 q -6,2 -11,8 -8,8 -14,20 l -6,13 q -16,34 -20,34 h -138 q -5,0 -14,-10 -5,-6 -17.5,-21.5 -12.5,-15.5 -18.5,-21.5 -9,-10 -14,-10 -14,0 -26,13 -14,14 -14,35 v 258 q 0,96 33,177 31,76 88,130 48,45 115,88 34,21 61,35 26,-13 61,-35 67,-43 115,-88 57,-54 88,-130 33,-81 33,-177 v -258 q 0,-21 -14,-35 -12,-13 -26,-13 z m -288,629 q -11,-6 -21,-12 -26,-17 -49,-37 -34,-29 -59,-61 -31,-40 -47,-94 -12,-42 -12,-80 l 1,-219 h 187 z m 191,-110 q -25,32 -59,61 -23,20 -49,37 l -21,12 v -503 h 187 l 1,219 q 0,38 -12,80 -16,54 -47,94 z"
       id="path1-0" /></g><g
     style="display:none;fill:#000000"
     id="g21"
     transform="translate(0.24999275,21.428567)"><path
       d="m 522.73241,606.18746 q -3.01784,-1.20714 -6.94103,-3.92319 -3.92319,-2.71606 -7.54459,-3.31963 -4.82855,-1.8107 -13.88207,-1.8107 -21.12487,0 -38.62835,11.16601 -17.50346,11.166 -27.46233,29.87661 -9.95887,18.7106 -9.95887,40.43904 0,33.19624 19.31417,53.41576 19.31417,20.21953 52.5104,25.65164 6.63925,0.60356 11.76958,7.24281 5.13033,6.63925 3.92319,16.29633 -1.20714,9.65709 -13.27849,11.4678 -9.05352,0.60356 -22.93559,-3.01785 -41.0426,-7.84638 -64.58176,-36.21407 -25.34985,-30.17839 -25.34985,-77.86026 0,-29.57482 13.2785,-55.22646 13.27849,-25.65164 37.4212,-42.55153 l 1.20714,-0.60357 q 15.0892,-8.44995 16.89991,-30.78197 4.22497,-78.46382 12.67492,-165.98117 l 1.8107,-16.29632 q 1.8107,-19.91774 3.01784,-25.95343 1.81071,-9.65708 6.03568,-9.65708 3.62141,0 6.03568,9.05352 1.20713,6.63925 3.01784,26.55699 l 1.20714,16.29632 q 6.63924,63.37464 11.46779,137.00992 1.8107,19.91774 7.24281,35.6105 4.82854,14.48563 9.05351,18.10704 6.03568,2.41427 17.50348,9.05351 10.26065,6.03568 14.48563,7.84639 7.24281,3.01784 11.46779,2.41427 3.6214,0.60357 2.41427,4.22497 -1.20714,3.62142 -6.33747,7.54461 -5.13033,3.92319 -12.37314,5.43211 -7.24282,1.50891 -14.48563,-1.50892 z M 304.24084,553.67705 q 1.8107,-1.8107 9.65709,3.01784 4.82854,2.41427 16.29632,10.86422 l 12.67493,9.05352 q 7.84638,4.82854 16.8999,7.84638 l 3.62141,1.20714 q 7.84638,0 13.88206,3.92318 6.03568,3.9232 3.01784,7.54461 -19.91774,24.14271 -25.65164,61.56392 -5.73389,37.42121 12.37315,74.84242 9.65708,19.31418 25.95342,38.62835 l 0.60357,1.20713 q 0,4.82855 -6.94104,3.01784 -6.94103,-1.81071 -15.08919,-7.24282 -8.14817,-5.43211 -10.56244,-9.05351 -6.63924,-5.43212 -13.88206,-15.69277 -4.22498,-3.62141 -10.26066,-0.60357 l -12.67492,8.44996 q -11.46779,8.44994 -16.29633,10.86422 -7.84639,4.82854 -9.65709,3.01784 -1.81071,-2.41428 3.01783,-10.26066 2.41428,-4.82854 11.4678,-16.8999 l 8.44995,-12.07135 2.41427,-4.22498 q 1.8107,-3.62141 2.11248,-9.05352 0.30179,-5.43211 -0.30178,-9.05352 -1.8107,-6.63924 -3.01784,-13.88206 v -0.60357 q -1.8107,-13.27849 -9.05351,-15.0892 l -4.82855,-1.20714 -16.29633,-3.01783 q -18.10703,-3.01784 -24.74628,-5.43211 -10.86423,-3.01784 -11.4678,-6.63925 0.60357,-3.62141 11.4678,-6.63924 6.63925,-2.41428 24.74628,-5.43212 l 16.29633,-3.01783 6.03569,-1.81071 q 4.22497,-1.20714 8.75173,-5.13033 4.52676,-3.92318 6.33745,-8.14816 1.81071,-6.63925 5.43211,-12.67493 0.60357,-1.81071 0.60357,-3.01783 -1.20712,-9.05352 -9.05351,-19.91775 l -8.44995,-12.67493 q -8.44996,-12.07135 -11.46779,-16.89989 -4.22498,-7.84639 -2.41427,-9.65709 z M 449.09713,676.8049 q 0,-11.46779 6.63924,-21.12488 6.63925,-9.65708 17.50348,-14.18384 10.86421,-4.52676 22.33201,-2.41428 11.46779,2.11249 19.61595,10.56244 8.14817,8.44996 10.56244,19.91774 2.41428,11.46779 -2.11248,22.33202 -4.52677,10.86422 -14.18386,17.50346 -9.65708,6.63925 -21.72843,6.63925 -16.29634,0 -27.46235,-11.46779 -11.166,-11.46778 -11.166,-27.76412 z"
       id="path1-02"
       style="stroke-width:0.603568" /></g><g
     style="display:none;fill:#000000"
     id="g22"
     transform="translate(-29.173797,13.957329)"><path
       d="m 705.5807,607.9213 q -1.23221,-2.46442 -6.77715,0 -3.69663,1.23221 -12.9382,7.39325 -46.82394,29.57302 -110.89882,48.67226 -65.92318,19.09924 -112.13102,15.40261 -35.73407,-2.46441 -60.37825,-11.70598 l 28.95692,-92.41568 q 13.5543,33.26964 44.35952,51.13667 24.64418,14.17041 52.36889,13.86236 27.7247,-0.30806 51.75278,-13.86236 24.02808,-13.5543 38.19848,-38.19848 13.5543,-22.79587 14.17041,-48.67226 0.6161,-25.87639 -10.47378,-48.98031 -11.08988,-23.10392 -32.03744,-38.50653 -0.6161,-0.61611 -0.6161,-10.47378 0,-11.08988 -1.23221,-16.01872 -1.23221,-9.24156 -5.54494,-11.08988 -4.31273,-1.84831 -12.32209,3.08052 -4.31273,3.08053 -12.32209,11.08989 -6.16105,5.54494 -6.77715,5.54494 -20.94756,-4.92884 -41.58706,-0.92416 -20.6395,4.00468 -38.50653,15.09456 l 22.17976,-71.46813 q 3.69663,-9.85767 5.54494,-24.02807 2.46442,-20.33145 -3.69663,-22.48782 -6.16104,-2.15636 -16.63482,15.71067 -6.77715,12.32209 -9.85767,22.17976 L 368.57151,646.11978 Q 358.09774,635.646 353.785,622.0917 q -4.31273,-13.5543 -3.08052,-31.42133 0.61611,-11.08988 4.31273,-31.42133 l 0.61611,-3.08052 q 3.08052,-16.01872 -0.30806,-17.55898 -3.38857,-1.54026 -12.32209,12.32209 -8.93351,13.86235 -15.71066,29.88107 -9.24157,20.33145 -11.70599,37.58237 -3.08052,25.26029 4.31273,47.44005 8.00936,25.26029 29.57302,41.27901 l -11.08988,48.05615 q -3.08052,9.24157 -4.31273,20.33145 -1.23221,16.63483 5.23689,18.79119 6.46909,2.15637 15.09456,-12.01404 6.16104,-9.24157 9.24157,-18.48313 l 18.48313,-40.6629 q 10.47378,3.08052 19.71535,4.92883 38.81458,6.16105 85.63853,-1.23221 51.13668,-7.39325 101.04114,-30.80522 54.83331,-25.26029 101.04115,-66.53929 9.85767,-8.62547 12.93819,-12.9382 4.92884,-6.16104 3.08053,-8.62546 z M 471.46097,503.18353 q 9.24157,-14.78651 24.02808,-23.41198 14.78651,-8.62546 32.34549,-8.93351 17.55898,-0.30806 32.65354,8.62546 15.09456,8.93352 23.72002,24.02808 8.62547,15.09456 8.62547,32.34549 0,17.25092 -8.62547,32.65354 -8.62546,15.40261 -23.72002,23.72002 -15.09456,8.31741 -32.34549,8.62547 -17.25093,0.30805 -32.65354,-8.62547 -15.40262,-8.93351 -24.02808,-24.02808 -8.62546,-15.09456 -8.62546,-32.34548 0,-17.25093 8.62546,-32.65354 z"
       id="path1-50"
       style="stroke-width:0.616105" /></g><g
     style="display:none;fill:#000000"
     id="g23"
     transform="matrix(0.57556107,0,0,0.57556107,179.1392,308.59888)"><path
       d="m 774,739 q -64,73 -155,102 -87,29 -180,11 -37,-7 -65,-20 -52,-23 -24,-51 7,4 43,9 28,4 62,6 64,4 125,-18 64,-24 113,-72 29,-32 35,-73 7,-46 -22,-84 -17,-23 -45,-33.5 -28,-10.5 -49,-2.5 -15,6 -24,20 -5,9 -7,19 v -1 q 6,41 11,82 6,26 -5,34 -6,5 -24,5 H 440 q -18,0 -24,-5 -11,-8 -5,-34 l 4,-34 q 3,-33 -2.5,-48 -5.5,-15 -19.5,-20 -8,-3 -30,-4 -22,-1 -34,-3 -20,-3 -37,-12 -10,-5 -27,-21.5 -17,-16.5 -25,-20.5 -12,-5 -18,6 -8,13 -11,52 5,79 48,133 14,11 17,21 2,5 0,14 l -1,5 q -1,5 -4,10 -6,7 -16,5 -14,-3 -35,-24 Q 170,637 150.5,559 131,481 148,403 165,322 216,263.5 267,205 338,173 q 69,-31 144.5,-32 75.5,-1 145.5,29 23,10 38.5,24 15.5,14 11,21 -4.5,7 -26.5,6 -22,-1 -43,-9 -71,-23 -149,-6 -17,5 -36,17 -11,7 -29,22 -14,11 -19,15 -17,12 -41,21 -19,8 -29,15 l 4,-2 q -8,5 -15,11 -4,4 -10,12 6,-7 -6,6 -16,25 -10,54 6,26 28,47 36,27 69,32 33,5 56,-9.5 23,-14.5 30,-44.5 25,-97 50,-111 h 1 q 28,16 54,130 l 3,10 q 2,11 5,15 4,7 13,7 12,-3 27,-6.5 15,-3.5 23,-4.5 11,-1 32,1 23,2 51,16 22,11 42,26 l 1,1 q 10,11 16,11 11,0 14,-32 v 1 q -4,-50 -20,-112 -8,-32 -9,-42 0,-17 11,-26 7,-2 16.5,6.5 9.5,8.5 23.5,30.5 41,65 51,139.5 10,74.5 -11,147 Q 824,682 774,739 Z M 525,577 q -11,-137 -24,-150 -13,13 -24,150 -1,10 2.5,16.5 3.5,6.5 11.5,6.5 h 21 q 7,0 10.5,-6.5 Q 526,587 525,577 Z"
       id="path1-6" /></g><g
     style="display:none;fill:#000000"
     id="g24"
     transform="matrix(0.62283377,0,0,0.62283377,156.5814,274.21299)"><path
       d="m 839,442 q -6,-9 -15,-18 -36,-11 -49,17 -6,13 -7,34 -1,18 2,24 13,30 13,48 0,33 -24,57 -24,24 -57.5,24 -33.5,0 -57.5,-24 -24,-24 -24,-57 0,-36 15,-64 13,-22 38,-42 15,-13 49,-33 24,-15 36,-23 l -4,-3 q -25,-19 -43,-29 -32,-16 -76,-24 -55,-11 -135,-11 -80,0 -135,11 -44,8 -76,24 -18,10 -43,29 l -4,3 q 12,8 36,23 34,20 49,33 25,20 38,42 15,28 15,64 0,34 -24,57.5 Q 332,628 298.5,628 265,628 241,604.5 217,581 217,547 q 0,-18 13,-48 3,-6 2,-24 -1,-21 -7,-34 -13,-28 -49,-17 -9,9 -15,18 -15,22 -25,49 -11,30 -11,56 0,61 38,109 38,48 98,61 60,13 114.5,-14 Q 430,676 456,620.5 482,565 467,505.5 452,446 404,409 q 23,-9 49,-13 17,-3 47,-4 30,1 47,4 26,4 49,13 -49,37 -63.5,96.5 -14.5,59.5 11.5,115 26,55.5 80.5,82.5 54.5,27 114.5,13.5 60,-13.5 98,-61 38,-47.5 38,-108.5 0,-26 -11,-56 -10,-27 -25,-49 z"
       id="path1-93" /></g><g
     style="display:none;fill:#000000"
     id="g25"
     transform="matrix(0.66604904,0,0,0.66604904,135.03287,277.32548)"><path
       d="m 443,329 q 10,14 18,29 8,15 10,24 2,12 2,29 0,24 2,94 l 1,41 q 0,21 6.5,32.5 Q 489,590 499,590 h 2 q 10,0 16.5,-11.5 Q 524,567 524,546 l 1,-41 q 2,-70 2,-94 0,-17 2,-29 2,-9 10,-24 8,-15 18,-29 17,-21 42,-44 l 23,-17 q 6,-7 6,-16 0,-9 -6,-15 l -22,-13 q -25,-16 -43,-31 -10,-8 -19,-22 -7,-10 -13,-23 l -4,-11 q 0,-8 -6,-14 -6,-6 -14.5,-6 -8.5,0 -14.5,6 -6,6 -6,14 l -5,11 q -6,13 -12,23 -10,14 -20,22 -29,23 -64,44 -7,6 -7,15 0,9 7,16 -1,0 1,1 40,30 63,60 z m -61,61 q 4,-6 2,-12.5 -2,-6.5 -8,-10.5 l -19,-5 q -22,-7 -39,-15 -13,-5 -27,-21 l -12,-14 q -2,-6 -7.5,-9.5 -5.5,-3.5 -12,-1.5 -6.5,2 -10,7.5 Q 246,314 248,321 l -3,18 q -5,20 -13,32 -17,23 -40,45 -4,7 -2,13.5 2,6.5 8,10.5 l 21,9 q 24,11 40,24 11,8 20,18 9,10 12.5,17.5 3.5,7.5 7.5,20.5 4,18 20,69 l 10,34 q 5,17 12,25 7,8 15,6 h 1 q 8,-2 10,-12.5 2,-10.5 -2,-27.5 l -7,-29 q -13,-57 -18,-76 -4,-13 -4,-22 -1,-7 2,-20.5 3,-13.5 8,-25.5 8,-19 23,-41 z m 426,26 q -7,-7 -13,-14 -16,-17 -27,-31 -8,-12 -13,-32 l -3,-18 q 2,-7 -1.5,-12.5 -3.5,-5.5 -10,-7.5 -6.5,-2 -12.5,1.5 -6,3.5 -7,9.5 l -12,14 q -15,16 -27,21 -17,8 -39,15 l -19,5 q -6,3 -8,10 -2,7 2,13 l 13,19 q 15,22 23,41 5,12 8,25.5 3,13.5 2.5,21.5 -0.5,8 -4.5,21 -5,19 -18,75 l -7,30 q -4,17 -2,27.5 2,10.5 10,12.5 h 1 q 8,2 15,-5.5 7,-7.5 12,-24.5 l 9,-32 q 17,-54 22,-72 3,-13 6.5,-20.5 3.5,-7.5 12.5,-17.5 9,-10 20,-18 17,-13 41,-24 l 20,-9 q 6,-4 8,-10.5 2,-6.5 -2,-13.5 z M 552,558 q -4,-3 -9.5,-3 -5.5,0 -9,3 -3.5,3 -4,9.5 -0.5,6.5 4.5,12.5 l 14,11 q 2,2 2,4.5 0,2.5 -2,4.5 l -44,40 q -2,2 -4.5,2 -2.5,0 -3.5,-2 l -44,-41 q -2,-1 -2,-3.5 0,-2.5 2,-4.5 l 13,-11 q 6,-6 5.5,-12.5 -0.5,-6.5 -4,-9.5 -3.5,-3 -9,-3 -5.5,0 -9.5,2 l -40,27 q -4,5 -4,11.5 0,6.5 4,11.5 l 17,13 q 20,17 32,33 8,10 14,21.5 6,11.5 7,19 1,7.5 1,20.5 0,19 2,71 l 1,31 q 0,16 5,26.5 5,10.5 12,10.5 h 1 q 8,0 13,-10.5 5,-10.5 5,-26.5 v -31 q 2,-52 2,-71 0,-12 2,-21 1,-7 7,-18.5 6,-11.5 14,-21.5 19,-25 48,-46 5,-5 5,-11.5 0,-6.5 -5,-11.5 -34,-23 -39,-26 z"
       id="path1-06" /></g><g
     style="display:none;fill:#000000"
     id="g26"
     transform="matrix(0.67061981,0,0,0.67061981,170.66963,288.17425)"><path
       d="m 776,347 q -2,-4 -4,-11 -4,-10 -9,-13 -6,-4 -25.5,-5.5 Q 718,316 712,343 q -3,16 -2,51 1,14 0,19 -1,15 -18,21 -10,4 -34,5 h -1 q -9,1 -34,-12 -15,-8 -53,-30 -45,-27 -67,-38 -27,-13 -81,-54 -31,-24 -91,-73 -46,-37 -56,-43 l -16,-12 q -19,-14 -26,-16 -11,-3 -19,9 44,103 76,200 26,81 42,157 12,60 18,113 3,39 3,70 l -1,23 -91,1 q -23,0 -27.5,7.5 -4.5,7.5 3.5,26.5 3,5 30,13 31,9 69,15 49,6 95,4 57,-2 105,-17 57,-17 99,-51 83,-83 121,-167 29,-65 30,-129 1,-36 -8,-82 z M 412,710 Q 408,608 392,516 373,406 342,341 l 25,23 q 31,28 56,48 36,28 57,36 9,4 36,13 61,21 89,34 48,22 55,43 l -9,14 q -26,42 -46,65 -34,40 -75,63 -53,28 -118,30 z"
       id="path1-4" /></g><path
     d="m 590.87555,369.95813 q 1.3373,28.08323 -1.33729,42.45917 -2.6746,14.37594 -12.70432,29.0862 -8.69244,12.03567 -15.04459,16.71621 -6.35216,4.68053 -15.04459,6.01783 -5.34918,0.66865 -20.05945,0.66865 h -8.02378 q -11.36702,35.43836 -14.71027,58.17241 -2.67459,20.7281 1.3373,37.4443 2.00595,10.69838 10.02974,32.09512 12.03566,29.42053 17.38485,52.82323 18.0535,46.13673 -2.00595,183.20964 18.05351,-14.71026 30.08918,-38.11296 10.69837,-20.05945 18.0535,-49.47997 4.68054,-17.38487 12.03567,-53.49187 6.01784,-30.75783 9.36108,-44.79944 6.01784,-24.07134 12.70432,-40.78756 5.34918,-9.36107 22.0654,6.68649 19.3908,-74.21996 8.02378,-130.38643 -10.69837,-53.49185 -52.15458,-108.32102 z m 10.02973,93.61077 q 8.69243,32.76376 10.02972,49.47997 1.33731,23.40269 -5.34919,46.13673 -16.7162,0 -25.40863,11.36703 -7.35513,10.02972 -10.02973,29.42052 -2.00595,11.36702 -2.00595,38.11296 l -0.66864,15.37891 -2.00594,5.34919 q -2.6746,8.02378 -4.01189,10.02973 -2.00595,3.34323 -2.00595,-3.34324 1.3373,-29.42053 -2.67459,-52.15457 -2.67459,-13.37298 -9.6954,-32.76378 -7.02081,-19.3908 -8.35811,-30.75782 -1.33729,-18.72216 5.34918,-44.79944 7.35514,0 19.39082,-5.34918 12.03566,-5.34919 21.39674,-14.04163 12.03567,-10.02971 16.04756,-22.06538 z M 347.48756,369.95813 q -1.3373,28.08323 1.67162,42.45917 3.00891,14.37594 12.36999,29.0862 8.69243,12.03567 15.37891,16.71621 6.68648,4.68053 14.71027,6.01783 6.01783,0.66865 20.7281,0.66865 h 8.02378 q 11.36701,35.43836 14.04161,58.17241 2.67459,20.7281 -0.66865,37.4443 -2.00595,10.69838 -10.69837,32.09512 -11.36702,29.42053 -17.38486,52.82323 -18.0535,46.13673 2.6746,183.20964 -18.05351,-14.71026 -30.75783,-38.11296 -10.02972,-20.05945 -18.05351,-49.47997 -4.68053,-17.38487 -12.03566,-53.49187 -5.34919,-30.75783 -9.36108,-44.79944 -5.34919,-24.07134 -12.70432,-40.78756 -5.34918,-9.36107 -22.0654,6.68649 -18.72215,-74.21996 -8.02377,-130.38643 10.69836,-53.49185 52.15457,-108.32102 z m -10.02973,93.61077 q -8.02378,32.76376 -9.36108,49.47997 -2.00595,23.40269 4.68054,46.13673 17.38485,0 26.07729,11.36703 7.35513,10.02972 9.36108,29.42052 2.00594,11.36702 2.67459,38.11296 v 15.37891 l 2.00595,5.34919 q 3.34323,8.02378 4.01188,10.02973 2.00595,3.34323 2.00595,-3.34324 -1.3373,-29.42053 3.34324,-52.15457 2.00595,-13.37298 9.02675,-32.76378 7.02081,-19.3908 8.3581,-30.75782 2.00595,-18.72216 -4.68053,-44.79944 -8.02378,0 -19.72512,-5.34918 -11.70136,-5.34919 -21.73108,-14.04163 -11.36702,-10.02971 -16.04756,-22.06538 z"
     id="path1-7"
     style="display:none;stroke-width:0.668649" /><g
     style="display:none;fill:#000000"
     id="g27"
     transform="matrix(0.62829874,0,0,0.62829874,146.84416,293.17129)"><path
       d="m 875,500 -2,-26 q -3,-31 -12,-63 -11,-44 -31,-82 -17,-31 -45.5,-62 -28.5,-31 -57,-49 -28.5,-18 -43,-14 -14.5,4 -22.5,12 -11,11 -16,32 l -4,22 q -4,21 -9,32 -7,17 -25,38 -22,25 -67,33 -23,3 -41,2 -20,1 -43,-2 -44,-8 -65,-33 -18,-21 -25,-38 -5,-11 -9,-32 l -4,-22 q -5,-21 -16,-31 -8,-9 -22.5,-13 -14.5,-4 -43,14 -28.5,18 -57,49 -28.5,31 -45.5,62 -20,38 -31,82 -9,32 -12,64 l -2,25 q 1,24 7,57 11,63 39,114 16,31 45,62 29,31 57,49 28,18 42.5,14 14.5,-4 23.5,-12 10,-11 15,-32 l 5,-22 q 4,-21 8,-32 8,-17 25,-38 16,-18 44,-27 20,-7 44,-8 h 20 q 21,-2 43,2 44,8 65,33 18,21 25,38 5,11 9,32 l 4,22 q 5,21 16,31 8,9 22.5,13 14.5,4 43,-14.5 28.5,-18.5 57,-49 Q 813,702 830,670 q 20,-37 31,-81 9,-32 12,-64 z M 760,627 q -9,18 -22,35 -9,12 -18,22 l -8,7 -3,-11 q -5,-15 -12,-29 -10,-19 -23,-35 -16,-19 -36,-32 -24,-16 -51,-25 -22,-7 -44,-11 -16,-2 -31,-2 l -12,1 q -18,-2 -45,2 -50,8 -92,35 -37,23 -59,68 -12,22 -16,40 l -7,-8 q -10,-10 -19,-22 -12,-17 -22,-35 -13,-26 -20,-58 -5,-24 -6,-49 l -1,-20 q -1,-19 2,-44 6,-48 25,-83 9,-18 22,-35 9,-12 18,-22 l 8,-7 3,11 q 5,15 12,28 10,20 23,36 16,19 36,32 44,28 95,35 26,4 43,2 19,2 44,-2 51,-8 94,-35 20,-13 36,-33 13,-15 23,-35 7,-14 12,-28 l 3,-12 8,8 q 9,10 18,22 13,17 22,35 19,35 25,82 3,25 2,45 v 1 q 1,22 -3,46 -6,46 -24,80 z"
       id="path1-91" /></g><g
     style="display:none;fill:#000000"
     id="g28"
     transform="translate(555.22727,-63.85)"><path
       d="m -104.7325,579.76541 q 16.994262,0 28.953186,-11.95892 11.958924,-11.95892 11.958924,-28.95318 0,-16.99426 -11.958924,-29.2679 -11.958924,-12.27363 -28.953186,-12.27363 -16.99426,0 -29.26789,12.27363 -12.27363,12.27364 -12.27363,29.2679 0,16.99426 12.27363,28.95318 12.27363,11.95892 29.26789,11.95892 z m 36.506191,-150.43066 q -8.182422,-1.25884 -14.476592,0.62942 -6.294171,1.88824 -7.553004,6.60887 -1.258834,4.72063 0.944125,9.44126 2.20296,4.72063 6.608879,7.86771 l 5.035336,2.51768 q 21.400178,9.44124 33.988518,22.659 23.288429,23.91785 23.288429,61.05345 0,22.02959 -10.38538,42.17095 -10.38538,20.14133 -28.009057,32.10025 -18.88251,13.21776 -40.912105,13.21776 -24.54726,0 -43.42978,-7.553 -11.3295,-5.03534 -25.80609,-15.73542 l -3.14709,-2.51767 q -6.29417,-4.40592 -11.3295,-3.7765 -3.14709,0.62941 -5.03534,3.14708 -4.40592,4.40592 -1.88825,15.10601 1.88825,8.81184 6.29417,13.21776 20.14134,24.54726 64.82995,42.17093 l 1.88825,0.62942 q 6.92359,2.51768 10.07068,5.03534 6.29417,4.40592 6.29417,10.7001 v 167.42491 q 0,16.36485 6.294165,30.84143 6.294171,14.4766 12.273633,14.4766 5.979461,0 12.588339,-14.4766 6.608879,-14.47658 6.608879,-30.84143 V 689.91339 q 0,-5.66476 4.720627,-14.16189 4.720629,-8.49713 11.014798,-11.01479 10.70009,-5.66476 24.547264,-17.62368 20.7707624,-18.25309 33.359102,-41.54152 16.364841,-30.84142 16.364841,-67.34762 0,-27.69435 -13.217756,-51.61219 -12.5883406,-23.28843 -34.617936,-38.39445 -22.029596,-15.106 -47.206275,-18.8825 z"
       id="path1-8"
       style="stroke-width:0.629418" /></g><g
     style="fill:#000000"
     id="g29"
     transform="matrix(0.61463124,0,0,0.61463124,156.34093,278.69474)"><path
       d="m 731,312 q 0,3 4,6.5 4,3.5 7,4.5 3,1 7.5,-2.5 4.5,-3.5 6.5,-2.5 5,3 27,21 40,32 45,32 5,0 14,-11.5 9,-11.5 6,-16.5 -4,-9 -18.5,-22.5 Q 815,307 805,302 q -4,-2 -10,2 -6,4 -11,3 -1,0 -3.5,-4 -2.5,-4 -0.5,-6 6,-9 6.5,-18 0.5,-9 -5.5,-13 -9,-7 -17,0 l -1,1 q -2,1 -9,-3 L 643,171 q -29,-25 -45,-33 -25,-14 -52,-13 -18,0 -41,14 -20,12 -32,26 -19,22 -26,34 -9,15 -9,30 0,7 12.5,14.5 12.5,7.5 24.5,8.5 7,1 16,0 7,0 8,1 1,4 -11.5,7 -12.5,3 -27.5,3 -7,0 -21.5,-6 -14.5,-6 -20.5,-6 -6,0 -11,7 -5,7 -1,13 l 2,5 q 6,8 4,13 -1,3 -8,18 l -13,27 q -18,38 -29,52 -18,25 -33,13 -6,-2 -5,3 3,19 -12,42 -11,18 -29,35 -16,15 -23,18 -7,3 -15,3 -5,1 -16,0 h -1 q -3,4 -1,8 l 4,9 q 4,8 3,11 -1,7 -10,13 -6,4 -8,7 -5,6 -4,16 8,24 126,33 69,6 148,6 102,-1 144,-2 50,-1 82,-6 26,-3 70,-13 3,-1 5,0.5 2,1.5 -1,4.5 -22,14 -73,22 -37,5 -100,8 l -27,1 q -60,3 -84,3 -102,-1 -163,-5 -100,-6 -140,-23 -13,-5 -24,-11.5 -11,-6.5 -13,-10 -2,-3.5 -6,-4 -4,-0.5 -4,3.5 -2,15 16,30 16,13 40.5,22 24.5,9 44.5,11 3,0 3,3 0,3 -2.5,5.5 -2.5,2.5 -8.5,5.5 -3,2 -4,3.5 -1,1.5 0,3.5 5,6 11,21 10,25 22,42 10,13 35,29 17,10 23,17 9,10 8,24 0,5 -6,9 -3,3 -13,7 -11,5 -16,9 -7,7 -7,16 -1,17 23,28 19,9 49,14 27,4 51,4 24,0 31,-4 5,-4 5,-13 0,-6 1,-10 1,-5 8,-9 13,-9 30.5,-8.5 17.5,0.5 28.5,11.5 4,4 4,14 0,10 5.5,15 5.5,5 34,4.5 28.5,-0.5 57.5,-5.5 34,-7 51,-19 14,-9 12,-25 -1,-8 -7,-13 -4,-3 -14,-7 -10,-4 -14,-7 -7,-5 -8.5,-14 -1.5,-9 8.5,-20 7,-7 25,-19 21,-14 28,-22 10,-12 24,-45 12,-25 18,-33 7,-9 19,-17 l 24,-12 q 20,-10 27,-16 12,-10 12,-23 0,-7 -5,-13 -14,-13 -33,-21 -11,-4 -28,-8 -10,-3 -11,-5.5 -1,-2.5 -1.5,-5.5 -0.5,-3 0.5,-7 5,-24 -14,-53 -14,-23 -39,-43 -21,-18 -28,-18 h -7 q -12,1 -18,-2 -13,-7 -25,-23 -8,-11 -15,-25 l -12,-24 q -15,-27 -21,-40 -1,-6 1.5,-10.5 2.5,-4.5 1.5,-10.5 -2,-14 -20,-26 l -2,-1 q -16,-12 -16,-33 0,-24 26,-28 11,-1 31,12 12,8 38,29 l 101,80 q -5,5 -4,10 z m -73,107 h 3 l 3,2 q 4,20 25,40 14,13 41,31 9,7 6,8.5 -3,1.5 -10,-0.5 h -1 q -9,-3 -21.5,-9 -12.5,-6 -20.5,-11 -12,-9 -18,-17 -7,-11 -7,-27 l -1,-3 q 0,-14 1,-14 z m -135,98 q -6,5 -16,8 -8,3 -13,3 -14,0 -24,-8 -10,-8 -11,-23 14,15 31,15 17,0 25.5,-13.5 Q 524,485 515,465 q 15,13 15.5,29 0.5,16 -7.5,23 z m 24,-58 q -2,-1 -4,-3 -14,-10 -21,-14 -10,-4 -27,-5 -26,-2 -45.5,15.5 Q 430,470 431,493 q 0,26 27,44 -17,2 -29.5,-5.5 Q 416,524 410,510 q -6,-14 -3,-28 4,-25 23,-41 18,-15 42.5,-18.5 24.5,-3.5 45.5,6 21,9.5 29,30.5 z m -276,6 q 5,0 18,-18 12,-15 13.5,-21 1.5,-6 -1,-7.5 Q 299,417 295,419 l -18,17 q -5,5 -7,8 -3,5 -3.5,10 -0.5,5 1,8.5 1.5,3.5 3.5,2.5 z"
       id="path1-63" /></g><g
     style="display:none;fill:#000000"
     id="g30"
     transform="translate(0.1,0.02380952)"><path
       d="m 796,706 q -4,-4 -25,-14 -32,-17 -49,-31 -5,-4 -6,-8 -1,-4 -1,-10 v -3 q 0,-7 -10,-7 h -24 q -3,0 -4.5,-3 -1.5,-3 0,-4 1.5,-1 5.5,-3 l 1,-1 q 9,-4 16,-10 7,-6 7,-9 0,-1 -3,-4 l -3,-2 q -9,-8 -15,-18 -1,-3 -1.5,-14.5 -0.5,-11.5 1.5,-19 2,-7.5 11,-22.5 5,-8 6,-50 v -4 q 0,-5 2.5,-8.5 2.5,-3.5 7,-3.5 4.5,0 6.5,5 l 1,4 3,45 q 0,6 1,12 1,2 12,9 22,12 43,26 3,2 5.5,1 2.5,-1 0.5,-3 -15,-24 -17,-36 -1,-10 1,-47 l 2,-36 q 2,-48 -12,-93 -15,-50 -48,-94 -31,-40 -84,-68 -48,-26 -97,-31 -19,-2 -50,-4 -35,-2 -56,-6 -14,-2 -31,-11 l -7,-4 q -3,-2 -5,-1 -2,1 -1,4 l 3,8 q 15,39 16,54 0,3 3,4.5 3,1.5 8.5,0.5 5.5,-1 16.5,0 11,1 15,2 4,1 7,7 3,6 0,6 l -2,1 q -23,2 -37,8 -17,7 -37,21 -27,19 -46,42 -11,14 -20,36 -6,13 -14,40 -10,33 -17,43.5 -7,10.5 -26,30.5 l -3,4 q -2,3 -2,4.5 0,1.5 3,1.5 h 8 q 140,1 143,0.5 3,-0.5 3,-7.5 0,-7 4,-9 49,-28 80,-47 11,-7 16.5,-8.5 5.5,-1.5 12.5,-1.5 23,0 40,11 11,7 15.5,17 4.5,10 3.5,20 0,5 -1.5,5 -1.5,0 -3.5,-7 -2,-11 -12,-19 -7,-6 -15,-9 -11,-6 -29,-5 -7,1 -25,13 -53,35 -60.5,40 -7.5,5 -8.5,14 -1,4 -2,6 -2,6 -6.5,9 -4.5,3 -9.5,3 H 251 q -3,0 -3.5,2.5 -0.5,2.5 -0.5,8.5 v 9 q -1,10 -4,19 -2,6 -8,18 l -10,20 q -7,16 -18,29 -5,7 -5,9.5 0,2.5 8,7.5 l 9,7 q 4,3 13,12 16,16 26,23.5 10,7.5 29.5,19.5 19.5,12 24,16.5 4.5,4.5 5.5,9.5 l 1,4 q 1,4 6,1 9,-6 38,-28 4,-3 5.5,-1.5 1.5,1.5 -1.5,5.5 l -4,4 q -21,21 -25,26 -4,5 -1,15 9,17 21.5,34.5 12.5,17.5 20.5,23.5 6,4 14,3 l 53,-27 q 54,-28 57,-30 3,-2 5.5,-1.5 2.5,0.5 0.5,2.5 -2,2 -66,44 -60,39 -61.5,40.5 -1.5,1.5 -1.5,9.5 0,18 -5,29 -5,11 -18,24 -10,9 -14,11 -4,2 -3,5 v 1 q 1,3 32,-1 23,-2 49.5,-6.5 Q 447,862 477,851 q 42,-15 63,-34 35,-32 70,-58 49,-39 71,-46 29,-9 61,-8 25,1 49,9 4,1 6,-1.5 2,-2.5 -1,-6.5 z m -445,-65 -9,7 q -4,3 -10,-1 l -38,-26 -42,-28 q -2,-1 -1.5,-2.5 0.5,-1.5 3.5,-2.5 l 18,-3 q 6,-1 11,2 l 66,48 q 5,4 1,6 z m 30,-21 -7,5 q -5,3 -8,1 l -28,-24 -31,-22 q -2,-1 -1,-1 l 2,-1 14,-3 q 5,-1 9,3 l 48,37 q 3,2 3,2.5 0,0.5 -2,2.5 z m 30,-22 -6,5 q -4,2 -8,-1 l -42,-31 q -5,-4 1,-5 l 9,-2 q 6,-1 10,2 l 34,26 q 5,4 2,6 z m 27,-21 -5,4 q -5,4 -8,1 l -27,-20 q -2,-2 -1.5,-3.5 0.5,-1.5 2.5,-1.5 l 12,-3 q 5,-1 10,4 l 16,12 q 5,4 1,7 z m -24,248 q -9,0 -9,-12 0,-4 3,-7.5 3,-3.5 7.5,-3.5 4.5,0 6,3 1.5,3 1.5,8 v 1 q 1,5 -2,8 -3,3 -7,3 z m 95,-59 q -5,1 -7,5 -2,4 0,7.5 2,3.5 1,5 -1,1.5 -3,-0.5 -5,-3 -5.5,-7.5 -0.5,-4.5 0,-8.5 0.5,-4 4,-6.5 3.5,-2.5 7.5,-3.5 8,0 8,3.5 0,3.5 -0.5,4.5 -0.5,1 -2.5,1 z m 26,-324 q -6,-9 -15,-12 -9,-3 -17,2.5 -8,5.5 -9,15.5 -1,10 7,20 3,2 -4,1 -7,-1 -10,-5 -7,-7 -6,-20.5 1,-13.5 11,-21 10,-7.5 21.5,-6.5 11.5,1 19.5,11 3,4 4,8.5 1,4.5 0.5,6.5 -0.5,2 -2.5,0 z m 69,272 q -4,1 -6,6 -1,1 0,6 v 4 q 0,3 -1.5,4 -1.5,1 -3.5,0 -6,-4 -4,-13.5 2,-9.5 11,-10.5 3,0 5.5,1.5 2.5,1.5 -1.5,2.5 z"
       id="path1-42" /></g><g
     style="display:none;fill:#000000"
     id="g31"
     transform="translate(294.83333,11)"><path
       d="m 208,446 q -3,0 -7,-4 l -25,-34 q -5,-6 0,-12 l 5,-6 q 6,-6 12,-6 h 350 q 17,0 28,3 9,3 14,7 l 3,4 q 4,6 7,3.5 3,-2.5 1,-7.5 l -3,-6 q -5,-6 -14,-9 -11,-6 -28,-6 H 135 q -4,0 -7,-3 -3,-3 -3,-7 v -30 q 0,-4 3,-7 3,-3 7,-3 h 492 q 4,0 9,2.5 5,2.5 7,6.5 l 11,21 q 5,11 9,11 h 205 q 4,0 6,3 2,3 1,7 l -5,13 q -7,17 -16,33 -13,22 -28,40 -19,23 -41,37 -20,13 -48,24 -23,10 -44.5,15 -21.5,5 -25,3 -3.5,-2 -5.5,-9.5 -2,-7.5 -7,-6.5 -5,1 -5,12 v 1 q 0,4 -2.5,5.5 -2.5,1.5 -10.5,3.5 -5,2 -13,7 -11,9 -17,21 -9,16 -8.5,35.5 0.5,19.5 13.5,36.5 11,14 24.5,20 13.5,6 28.5,8 4,1 7,4 3,3 3,7 v 61 q 0,4 -3,7 -3,3 -7,3 H 557 q -4,0 -7,-3 -3,-3 -3,-7 v -12 q 0,-9 -14.5,-19 -14.5,-10 -35.5,-17 -21,-7 -37,-7 -25,1 -44,5 -13,3 -22,9 l -7,4 q -3,2 -7,1 l -3,-2 -4,-7 q -3,-8 -3,-12 0,-14 17,-31 9,-8 17,-12 8,-4 21,-7.5 13,-3.5 4,-5.5 h -6 q -7,0 -14,2 -11,3 -20,9 -33,21 -33,56 v 46 q 0,4 -2.5,7 -2.5,3 -6.5,3 H 241 q -3,0 -6,-3 -3,-3 -3,-7 v -58 q 0,-3 3.5,-7.5 3.5,-4.5 7.5,-5.5 l 12,-6 q 14,-8 25,-19 17,-15 26,-34 12,-24 12,-52 0,-37 -19,-66 -17,-24 -44,-38 -24,-13 -47,-13 z"
       id="path1-37" /></g><g
     style="display:none;fill:#000000"
     id="g32"
     transform="translate(294.81818,49.709677)"><path
       d="m 849,685 q -2,-14 -14,-32.5 -12,-18.5 -19,-9.5 4,10 -1,14.5 -5,4.5 -12,2.5 -7,-2 -8.5,-9.5 Q 793,643 802,633 777,608 734,566 l -43,-44 q -3,1 -14.5,12.5 Q 665,546 661,549 q -3,2 -5.5,-0.5 Q 653,546 660,534 l 4,-7 -403,-402 -110,110 22,48 11,-8 18,37 11,-10 18,39 9,-9 19,38 9,-10 18,37 10,-11 17,39 11,-12 18,40 9,-10 19,39 11,-11 17,39 11,-12 17,40 10,-11 18,38 9,-9 19,38 10,-10 18,37 9,-10 19,39 9,-9 19,37 10,-11 19,38 9,-9 20,39 10,-11 17,40 59,-60 2,3 q 4,3 9,5 5,2 13,2 8,0 13,-2.5 5,-2.5 5,-4.5 0,-2 -3,-4.5 -3,-2.5 -4,-5.5 -1,-5 2.5,-14 3.5,-9 11,-11.5 7.5,-2.5 19,3.5 11.5,6 14,21 2.5,15 -5,25.5 Q 779,732 734,782 l -19,20 -8,9 q -9,7 -12,11 -5,7 -5,14 0,17 19.5,29.5 19.5,12.5 43.5,9.5 1,-2 0,-9 -2,-17 2,-28 l 1,-1 q 7,-17 14,-28 12,-19 34,-42 5,-6 15,-16 17,-18 23,-28 9,-17 7,-38 z M 722,648 q -8,0 -13,-5 -5,-5 -5,-13.5 0,-8.5 5,-13.5 5,-5 13.5,-5 8.5,0 14,5 5.5,5 5.5,13 0,19 -20,19 z"
       id="path1-16" /></g><g
     style="display:none;fill:#000000"
     id="g33"
     transform="translate(295.12857,50)"><path
       d="m 845,611 q 18,-20 25,-46 6,-23 5,-55 -1,-31 -18,-67 -20,-42 -55,-69 -42,-32 -97,-33 -35,0 -67,28 -11,10 -24,28 -18,25 -25,45 -8,27 6,43 6,6 17,4 11,-2 16.5,-8.5 5.5,-6.5 6,-3 0.5,3.5 -3,9 -3.5,5.5 -10,10 -6.5,4.5 -16.5,7.5 -13,3 -23,-1 -13,-5 -19,-21 -4,-11 0,-29.5 4,-18.5 16,-35.5 16,-23 46,-49 4,-3 4,-7.5 0,-4.5 -2,-8.5 -15,-21 -45,-37 -39,-22 -87,-22 -80,0 -150,84 l -2,3 q -9,9 -18,26 -11,21 -15,38 -4,22 5,33.5 9,11.5 22,9.5 8,-2 14,-7 7,-6 7,-4 1,9 -15,22 -5,4 -15,6 -12,2 -22,-1 -12,-5 -17.5,-18 -5.5,-13 -2,-33 3.5,-20 13.5,-38 8,-14 40,-47 l 4,-5 q 5,-5 4,-12 -1,-7 -8,-10 -11,-5 -24,-6 -10,-1 -20,1 l -24,5 q -19,5 -37,14 -26,11 -46,28 -26,20 -41,47 -19,32 -23,72 -2,23 6,50 8,30 26,51 36,43 111,55 h 3 l 5,3 q 77,47 191.5,47 114.5,0 190.5,-32 l 3,-1 q 1,0 11,-1 54,-2 90,-13 34,-10 58,-28 l 8,-7 q 12,-9 17,-14 z"
       id="path1-41" /></g><g
     style="display:none;fill:#000000"
     id="g34"
     transform="translate(295,50)"><path
       d="m 517,320 q 0,-16 -8,-35 -5,-9 -9,-15 l -4,7 q -5,9 -9,18 -4,13 -4,25 0,12 4,25 4,10 9,19 l 4,8 4,-8 q 5,-9 9,-19 4,-13 4,-25 z m 332,311 q 6,-16 3.5,-33 -2.5,-17 -11.5,-31 -13,-20 -29,-27 -8,-4 -13,-4 l -3,-14 q -6,-17 -15,-32 -13,-20 -31,-32 -23,-14 -52,-14 -27,0 -51,13 l 1,-1 q 2,-11 3,-23 1,-17 -1,-33 l -9,2 q -11,5 -22,15 -11,10 -14,15 -5,-33 -24,-53 -17,-18 -36,-18 -16,0 -27,10 -9,7 -14,18 l -4,10 -4,-10 q -5,-11 -14,-18 -11,-10 -27,-10 -19,0 -36,18 -19,20 -24,53 -3,-5 -14,-15 -11,-10 -22,-15 l -8,-2 q -2,16 -2,33 1,12 4,23 v 1 q -24,-13 -51,-13 -29,0 -52,14 -18,12 -31,32 -9,14 -15,32 l -3,14 -6,1 q -8,2 -16,8 -10,8 -19.5,22 -9.5,14 -12,31 -2.5,17 3.5,33 l -7,5 q -7,7 -12,15 -7,12 -7,24 0,20 15.5,33 15.5,13 33,13 17.5,0 32.5,-9 8,7 16,10 8,3 22,5.5 14,2.5 20.5,2.5 6.5,0 12.5,-5 l -10,-3 q -10,-5 -17,-12 -10,-10 -10,-23.5 0,-13.5 16.5,-27 16.5,-13.5 44,-21.5 27.5,-8 60,-8 32.5,0 55.5,7 17,5 36,18 14,9 24,20 8,9 11,14 l 1,6 q 1,5 2.5,8 1.5,3 5.5,6 l 4,2 4,-2 q 4,-3 5.5,-6 1.5,-3 2.5,-8 l 1,-6 q 3,-5 11,-14 10,-11 25,-20 19,-13 35,-18 23,-7 55.5,-7 32.5,0 60,8 27.5,8 44,21.5 16.5,13.5 16.5,27.5 0,18 -18,30 -10,6 -19,8 6,5 12.5,5 6.5,0 20.5,-2.5 14,-2.5 22.5,-5.5 8.5,-3 15.5,-10 16,9 33.5,9 17.5,0 32.5,-13 15,-13 15,-33 0,-12 -7,-24 -5,-8 -12,-15 z m -64,-55 q 6,-10 12,-19 18,4 26,19 4,8 4,17 0,7 -3,13 l -2,6 Q 809,603 795.5,599 782,595 769,593 l 6,-6 q 7,-7 10,-11 z M 607,465 q 3,-10 8,-19 4,-6 12,-13 l 7,-5 v 9 q 0,11 -3,17 -6,15 -25,30 1,-9 1,-19 z m 88,-4 q 19,0 32,7 10,6 15,14 l 3,8 -16,-2 q -20,-1 -36,2 -20,4 -43,20 l -9,-1 q -10,0 -16,1 -12,3 -22,8 l 13,-15 q 17,-17 34,-28 24,-14 45,-14 z M 513,418 q 4,-13 13.5,-22.5 9.5,-9.5 18.5,-9.5 17,0 28,27 10,23 10,50 0,27 -25,63 -16,25 -42,50 11,-17 19,-36 12,-31 12,-56 0,-25 -13,-39 -9,-10 -24,-15 z m -13,34 h 6 q 7,3 11,10 7,10 7,28.5 0,18.5 -7,38.5 -4,15 -11,29 l -6,11 -6,-11 q -7,-14 -11,-29 -7,-20 -7,-38.5 0,-18.5 7,-28.5 4,-7 11,-10 z m -45,-66 q 9,0 18.5,9.5 9.5,9.5 13.5,22.5 l 3,13 q -15,4 -24,14 -13,14 -13,39 0,25 12,56 8,18 19,36 -26,-25 -43,-50 -24,-36 -24,-63 0,-27 10,-50 11,-27 28,-27 z m -89,42 q 4,3 7,5 8,7 12,13 5,9 8,19 0,10 1,19 -19,-15 -25,-30 -3,-6 -3,-17 z m -61,33 q 21,0 45,14 17,11 34,28 l 13,15 q -10,-5 -22,-8 -6,-1 -16,-1 l -9,1 -14,-9 q -17,-9 -29,-11 -16,-3 -36,-2 l -16,2 3,-8 q 5,-8 15,-14 13,-7 32,-7 z M 177,576 q 8,-15 26,-19 l 12,19 q 3,4 10,11 l 6,6 q -13,2 -26.5,6 -13.5,4 -26.5,13 l -2,-6 q -3,-6 -3,-13 0,-9 4,-17 z m 16,106 q 0,5 1,11 -29,-13 -24,-39 3,-16 24,-27 18,-10 40,-13 18,-2 35,2 -76,28 -76,66 z m 90,-138 q -4,9 -4,25 l 1,14 -6,-2 q -8,-2 -15,-5 -10,-5 -17,-13 -17,-20 -17,-37 0,-5 7,-12 9,-9 23,-11 20,-4 38,2 10,4 17,12 l -5,3 q -6,4 -12,9 -7,7 -10,15 z m 63,-16 q 15,0 33,10 13,6 26,17 l 11,10 -20,-3 q -23,-2 -38,-1 -22,2 -43,11 -2,-11 0,-22 5,-22 31,-22 z m 78,67 q -6,3 -9,9 l -10,-2 q -14,-2 -29,-3 -21,-1 -42,1 8,-8 20,-14 18,-9 41,-9 29,0 41,12 -6,2 -12,6 z m 104,33 q -10,7 -20,20 l -8,12 -8,-12 q -10,-13 -20,-20 -14,-9 -29,-14 l 5,-3 q 5,-4 12,-4 9,0 18,7 13,10 22,30 l 6,-11 q 8,-13 16.5,-19.5 8.5,-6.5 17.5,-6.5 6,0 12,4 l 5,3 q -16,5 -29,14 z m 57,-24 q -3,-6 -9,-9.5 -6,-3.5 -12,-5.5 12,-12 41,-12 23,0 41,9 12,6 20,14 -21,-2 -42,-1 -15,1 -29,3 z m 100,-32 q -21,-9 -43,-11 -15,-1 -38,1 l -20,3 11,-10 q 13,-11 26,-17 18,-10 33,-10 18,0 26,11 6,9 6,22 z m 32,-28 q -3,-8 -10,-15 -5,-5 -12,-9 l -5,-3 q 7,-8 17,-12 19,-6 38,-2 14,2 23,11 7,7 7,12 0,17 -17,37 -9,11 -25,16 -7,3 -13,4 l 1,-14 q 0,-16 -4,-25 z m 89,149 q 1,-6 1,-11 0,-38 -76,-66 17,-4 35,-2 23,3 40,13 21,11 24,27 5,26 -24,39 z"
       id="path1-146" /></g><g
     style="display:none;fill:#000000"
     id="g35"
     transform="translate(295.02381,50.1)"><path
       d="m 574,192 q -2,0 -8,1 -11,1 -16,4 -8,3 -10.5,12 -2.5,9 3.5,14.5 6,5.5 17,4.5 8,-2 11,-8 2,-3 3,-11 1,-8 3,-10.5 2,-2.5 5.5,-4.5 3.5,-2 6.5,0 l 3,5 q 8,12 17,16 9,4 26,7 20,3 37,1 21,9 45,9.5 24,0.5 47,-6.5 l 5,5 q 7,7 11,10 7,4 14.5,5 7.5,1 15.5,-6 5,-4 10,-6 8,3 17,2 5,0 13,-2.5 8,-2.5 11,-2.5 8,5 12,15 4,10 1,24 -1,6 -7,14 -4,5 -14,15 -13,12 -19,20 -10,12 -14,24 0,6 2.5,7 2.5,1 6.5,-0.5 4,-1.5 6,-0.5 2,1 2,7 -16,13 -27,28 -11,17 -18,39 -4,12 -19,24 2,12 0,31 l -1,12 q -12,16 -18,51 -4,23 -7,73 -1,9 4,21 l 3,10 q 4,54 29,81 0,7 -5,9 -2,0 -3.5,2 -1.5,2 -1.5,9 0,10 5,16 3,3 10,7 h 1 l 3,8 q 2,8 5,12 26,20 49,44 -4,20 -20,33 -10,2 -18,-2 -5,-2 -12.5,-9 -7.5,-7 -11,-8 -3.5,-1 -4,1.5 -0.5,2.5 0.5,7.5 1,9 -2,10 -8,0 -18.5,-6.5 Q 750,853 742,853 q -4,-13 -16,-23 -8,-5 -25,-13.5 -17,-8.5 -26,-13.5 -5,2 -4.5,3.5 0.5,1.5 3.5,3.5 3,2 3.5,4 0.5,2 -2.5,4 -43,-11 -70,-12 -42,-3 -67,11 -7,2 -12,7 -3,3 -7,10 -4,7 -7,9 -4,4 -10,5 -9,-1 -15,-7 -3,-3 -8,-12 l -6,-9 q -7,-1 -12.5,-5 -5.5,-4 -11.5,-5 -10,-3 -31,-5 -34,-1 -67,6 -7,0 -17,-5 l -7,-3 -21,10 q -21,10 -29,16 -12,10 -18,25 -8,-1 -18,4.5 -10,5.5 -15,6 -5,0.5 -6,-1.5 -1,-2 0,-6 1,-7 -1,-8 -7,1 -16,8 -7,6 -12,8 -7,3 -17,1 -13,-10 -18,-33 l 8,-8 q 26,-26 42,-36 1,-11 6,-21 2,-2 5.5,-3.5 3.5,-1.5 5.5,-4.5 4,-4 6,-13 1,-4 0,-5.5 -1,-1.5 -3.5,-3 -2.5,-1.5 -4.5,-4 -2,-2.5 -1.5,-8.5 0.5,-6 8,-18 7.5,-12 10.5,-21 6,-16 8,-36 1,-74 -3,-127 l -3,-9 q -5,-16 -10,-22 0,-7 -2,-18 -2,-15 -1,-25 -7,-14 -20,-24 -14,-51 -41,-65 -1,-4 0.5,-5.5 1.5,-1.5 5,-2.5 3.5,-1 5,-3 1.5,-2 0.5,-7 -2,-14 -11,-26 -6,-8 -18,-20 -17,-17 -23,-28 -1,-9 1,-17 2,-5 7,-14 l 4,-7 q 5,-2 19,1 14,3 22,2.5 8,-0.5 15,6.5 7,7 14,7 9,-2 18,-13 6,-7 10,-10 39,8 80.5,4.5 Q 357,226 387,212 q 10,-4 18,-12 4,-4 7.5,-5.5 3.5,-1.5 11.5,-0.5 -7,9 -5.5,16.5 1.5,7.5 10,9.5 8.5,2 16.5,-3 5,-3 -0.5,-14.5 Q 439,191 431,185 l 2,-2 q 14,-15 22,-21 13,-10 29,-13 0,-2 7,-7.5 7,-5.5 7,-8.5 21,12 29,32 30,-3 47,27 z m -206,118 -5,5 q -8,10 -10,18 3,8 9,16 4,4 13,11.5 9,7.5 12,11.5 5,7 6,14 1,4 -6,4 -4,-1 -5,0 -1,1 1,6 6,8 15,8 7,0 21,-4 5,6 11.5,11.5 6.5,5.5 10.5,6 4,0.5 7,5.5 4,6 10,7 6,-9 3,-18 -1,-5 -7.5,-13 -6.5,-8 -8.5,-12 0,-7 -4,-18 -4,-13 -3,-24 -6,0 -8.5,-1.5 Q 427,342 425,338 l -3,-3 q 1,-7 -2,-12 -2,-2 -6,-7 -8,-7 -9,-13 -9,1 -16,-4 -4,-3 -9,-10.5 -5,-7.5 -8,-8.5 -7,12 -4,30 z m 255,-15 q -2,3 -4,3 -2,0 -5,-2.5 -3,-2.5 -6,-2.5 -4,3 -17,6 -13,3 -18,7 v 1 q -10,9 -14,14 -8,11 -9,21 1,13 -3,26 -3,8 -4,14 -1,10 0,24 18,-18 27,-22 4,-2 10.5,-2.5 6.5,-0.5 9.5,-2 3,-1.5 7,-6 4,-4.5 4,-10.5 1,-4 0,-13 l -1,-4 q 16,0 26,-15 8,-13 9,-34 v -4 q -1,-8 -3,-9 -1,3 -3.5,7 -2.5,4 -5.5,4 z M 268,395 q 3,2 12.5,2.5 9.5,0.5 16.5,2.5 5,2 16.5,7.5 11.5,5.5 17.5,6.5 9,3 15,0 -1,-7 -11,-16 -10,-9 -12,-16 1,-3 -1.5,-7 -2.5,-4 -0.5,-9 -6,-2 -10,-7 -2,-4 -5,-11 -5,-12 -10,-16 -9,-1 -25,-7 -11,-5 -17,-6 -1,25 3,46 3,24 11,30 z m 483,-72 q -2,-5 -7,-4 -4,3 -20.5,7 -16.5,4 -21,8 -4.5,4 -6.5,11 -2,12 -11,20 -7,5 -10,20 -3,15 3,18 6,3 12,1 4,-1 10,-5 6,-4 9,-3 10,1 17,-1 4,-1 8.5,-4.5 4.5,-3.5 5,-7.5 0.5,-4 0.5,-13 -1,-13 1,-21 2,-14 10,-26 z M 298,489 q -2,18 0.5,25 2.5,7 8.5,8 16,36 39,44 1,-5 0,-8 -1,-3 -4,-6 -4,-6 -4,-10 13,5 19,-3 1,-3 1.5,-11.5 0.5,-8.5 2.5,-9.5 l 4,-2 q 6,-2 7,-5 -4,-8 -11,-12.5 -7,-4.5 -11,-9.5 -10,-12 -16,-17 -11,-7 -22,-7 -3,-5 -13,-8.5 -10,-3.5 -12.5,1 -2.5,4.5 -1,8.5 1.5,4 5.5,9 7,8 7,14 z m 393,-24 q -5,-1 -7.5,-0.5 -2.5,0.5 -6.5,1.5 l -7,3 q -8,3 -11.5,8 -3.5,5 -3.5,14 -6,2 -13,7.5 -7,5.5 -8,11.5 5,2 6,5.5 1,3.5 1,10 0,6.5 1.5,10 1.5,3.5 6.5,4.5 7,3 15,-1 4,-2 13,-9 16,-11 26,-12 -4,-22 0,-33 2,-6 8,-12 4,-3 5,-5.5 1,-2.5 -1,-8.5 -5,-7 -12,-4 -4,2 -10,8 z m -163,14 q 13,26 13,46 0,12 -6,29 -4,10 -4,15 -2,9 1,17 5,-1 8.5,-4 3.5,-3 7.5,-9 8,-11 16,-17 1,-11 5,-17 3,-4 9,-9 9,-6 11,-13 -2,-2 -7,-6.5 -5,-4.5 -7,-7.5 -3,-5 -3,-11 -3,-2 -9,-2.5 -6,-0.5 -8,-2.5 -1,-4 -5.5,-7.5 -4.5,-3.5 -4.5,-6.5 -3,-1 -4.5,-5.5 -1.5,-4.5 -3.5,-6.5 -2,-2 -9,-2 z m -110,46 q 1,5 9,10 5,4 7,7 3,5 2,13 18,28 35,30 -1,-21 -7.5,-44.5 Q 457,517 448,501 q -13,-2 -20.5,5 -7.5,7 -9.5,18 z m 247,86 -2,1 q -13,8 -18,16 l -7,21 q -8,24 -10,33 -3,16 5,18 7,-3 15,-17 6,-9 10,-12 6,-4 17,-12 l 8,-5 q 2,-10 7,-16 3,-4 9,-8 9,-6 11,-13 -12,1 -19,-5 -4,-4 -9,-13 -3,-8 -6,-11 -4,-5 -11,-5 1,5 0,13 -1,8 0,15 z m -363,14 q 0,2 3,9 l 4,9 1,5 q 1,7 1,11 0,4 -3,12 7,12 15.5,16.5 8.5,4.5 23.5,1.5 l 3,3 q 16,14 22,12 1,-3 -3,-15 -5,-14 -5,-23 -3,-6 -10,-12 l -4,-3 q 1,-4 6,-7.5 5,-3.5 4,-9.5 l -30,-18 q -10,-5 -23,-10 -6,13 -5,19 z m 112,26 q -7,13 -6,18 1,5 11,11 l 7,4 q 0,-11 9.5,-27.5 9.5,-16.5 9.5,-30.5 -8,0 -17,-8 -6,-5 -9,-6 -6,-3 -14,-2 -5,13 -3,20 1,5 6.5,10.5 5.5,5.5 5.5,10.5 z m 157,-29 q -1,5 2,8.5 3,3.5 1,10.5 -17,10 -21,30 1,21 12,21 6,-4 8,-11 2,-7 -1,-14 2,-2 7,-3 8,-1 8,-5 -1,-7 2,-13 1,-3 4.5,-7 3.5,-4 5,-8 1.5,-4 0.5,-14 v -7 q -11,0 -16.5,2 -5.5,2 -11.5,10 z m 81,84 q -7,16 1,20 1,4 2.5,5 1.5,1 8.5,2 1,-7 10,-21 l 6,-8 q 6,-9 8,-13 2,-7 -2,-11 -10,-1 -19.5,6.5 Q 657,694 652,706 Z m -220,40 q 1,-5 -2.5,-13 -3.5,-8 -1.5,-14 -5,1 -12.5,-1.5 Q 408,715 401,717 q -4,12 5.5,21 9.5,9 25.5,8 z m 140,-25 q 1,8 7.5,12 6.5,4 15.5,3 7,-7 7,-18 -7,-2 -17,1 -8,2 -13,2 z m -90,47 v 2 q 1,11 3,15 4,5 16,6 2,-6 10,-15 9,-12 11,-19 -7,-2 -15,3 -3,2 -6,3 l -2,-5 q -2,-4 -4,-5.5 -2,-1.5 -7,-1.5 0,-5 -4,-8.5 -4,-3.5 -10,-3.5 l 2,5 q 5,17 6,24 z"
       id="path1-77" /></g><g
     style="display:none;fill:#000000"
     id="g36"
     transform="translate(294.76667,50)"><path
       d="m 873,839 q -1,-3 -37,-42 l -35,-38 v -11 q 0,-11 -1,-16 -1,-5 -7,-14 -10,-13 -10,-21 0,-8 8,-16 l 8,-7 -10,-9 q -11,-10 -18.5,-10 -7.5,0 -10.5,2.5 -3,2.5 -5.5,6.5 -2.5,4 -5,5.5 -2.5,1.5 -7.5,1.5 -5,0 -7.5,-3.5 -2.5,-3.5 -1,-7 1.5,-3.5 6.5,-9 5,-5.5 7.5,-9.5 2.5,-4 3.5,-10.5 1,-6.5 1.5,-22 Q 753,594 748,571 q -4,-14 -7,-23 -2,-7 -12,-6 -3,0 -17,12 -11,11 -14,12.5 -3,1.5 -5.5,-0.5 -2.5,-2 -2.5,-6 0,-4 19,-25 11,-11 12,-14 5,-8 3.5,-16 -1.5,-8 -16,-33.5 Q 694,446 686,439.5 678,433 669,438 q -3,2 -42,39 -43,41 -46,42.5 -3,1.5 -4,0.5 -1,-1 -0.5,-3.5 0.5,-2.5 36.5,-44.5 35,-38 39,-45 8,-11 2.5,-22 -5.5,-11 -24,-29 -18.5,-18 -30,-22 -11.5,-4 -17.5,0 -2,2 -58,56 l -41,39 q -1,1 -2,0 -1,-1 -0.5,-3.5 0.5,-2.5 38.5,-47.5 38,-45 44,-55 5,-7 1,-13.5 Q 561,323 542.5,310 524,297 516,295 q -13,-3 -20,1 -3,1 -24,22.5 -21,21.5 -23.5,22 -2.5,0.5 -4.5,-2 -2,-2.5 -0.5,-6.5 1.5,-4 26.5,-35 l 1,-2 q 4,-4 3,-10.5 -1,-6.5 -5,-9.5 -11,-7 -41.5,-9.5 Q 397,263 388,267 q -4,1 -17,13 -11,9 -12,9 -11,4 -8,-9 0,-3 6,-8 10,-9 10.5,-16.5 0.5,-7.5 -9.5,-20.5 -4,-7 -10,-12 l -7,8 q -9,8 -16,9 -7,1 -21,-10 -9,-7 -13,-7 -9,-2 -27,-1 L 226,187 Q 187,151 183.5,149.5 180,148 176,148 q -4,0 -6,2 -2,2 2,11 1,4 37,42 l 35,39 v 10 q 0,11 1,16 1,5 8,14 10,14 9.5,21 -0.5,7 -8.5,16 -4,4 -8,7 l 13,11 q 14,11 21,11 3,-1 7.5,1.5 4.5,2.5 6.5,6.5 2,4 -4,17 -6,13 -6,18 0,8 7.5,35.5 7.5,27.5 10.5,31 3,3.5 10,2.5 7,-1 9.5,1.5 2.5,2.5 -2.5,12.5 -4,8 -4,12 -1,14 26,54 30,45 71,85 41,40 81,63 31,17 47,17 11,0 22,-10 3,-3 4.5,-2.5 1.5,0.5 0.5,8.5 -1,8 0,10 5,7 15,12 16,8 42,10 36,2 45,-5 2,-1 3,-1 6,2 6.5,5.5 0.5,3.5 -0.5,9.5 l -1,4 q -1,7 9,20 l 11,11 7,-8 q 9,-8 16,-9 7,-1 21,10 9,7 13,8 9,1 27,0 l 38,36 q 39,35 42.5,36.5 3.5,1.5 7.5,1.5 4,0 6,-2 2,-2 -2,-11 z M 580,742 q -4,1 -16,9 -26,16 -45,23 -32,14 -64,15 -67,2 -104,-67 -8,-16 -31,-79 l -13,-35 q -14,-37 -35,-60 -25,-28 -59,-32 -28,-3 -50,8 -17,8 -28,25 -9,14 -10,26.5 -1,12.5 3,17.5 4,5 8,5 8,0 10,-7 6,-19 19,-32 18,-18 46,-14 33,4 56,44 14,23 33,80 15,42 23,58 29,57 70,78 32,17 74,13 77,-8 143,-60 2,-1 3,-4 1,-3 0,-4 -2,-5 -14.5,-8 -12.5,-3 -18.5,0 z"
       id="path1-35" /></g><g
     style="display:none;fill:#000000"
     id="g37"
     transform="translate(295.35227,50)"><path
       d="m 852,845 q -5,0 -10,-1 -13,-2 -30,-7 -23,-7 -50,-17 -35,-15 -66,-39 1,-10 -9,-26 -7,-12 -20,-25 l -8,-8 q -6,-7 -11,-19 -5,-12 -6,-19.5 -1,-7.5 2,-13.5 l 1,-3 q 2,-6 -0.5,-6 -2.5,0 -6,9 -3.5,9 -3.5,21 0,14 8,40 2,8 3,25 l -35,-25 q -15,-12 -28,-26 5,-3 9.5,-9 4.5,-6 6.5,-27 2,-21 -2,-44 -4,-26 -14,-42 -7,-14 -16,-25 l -7,-8 -30,-61 Q 523,474 510.5,455 498,436 493,432 v -1 q -14,-14 -15.5,-12 -1.5,2 8.5,13 4,4 13,20 11,19 19,36 10,27 16,59 l -2,10 -1,16 -14,-24 q -8,-14 -19,-26 -7,-41 -17,-61 -10,-20 -27,-35 -3,-13 -7,-25 -8,-21 -24,-49 l -4,-8 q -2,-6 -7.5,-12.5 -5.5,-6.5 -6,-6 -0.5,0.5 4.5,9.5 l 2,4 q 1,2 7,19 l 7,18 q 7,20 10,42 -1,3 -2,5 l -6,11 q -3,-5 -8,-10 -5,-5 -10,-12 -5,-32 -14.5,-63 Q 386,319 370,292 364,281 356.5,270.5 349,260 348,261 q -1,1 5,15 l 5,10 q 15,33 14,53 -2,11 -6,22 l -14,-13 q -7,-5 -22,-16 7,-32 -3,-58 -6,-14 -15,-27 -13,-32 -31,-52 -11,-13 -13,-10 l 5,8 q 7,10 14,21 3,5 9,21 l 5,15 q -2,5 -3.5,10 -1.5,5 -3.5,14 -16,-24 -35,-40.5 -19,-16.5 -26,-15.5 -1,0 4,4 23,22 37,45 23,37 18,57 -2,4 -9,6 -3,-29 -17,-49 -10,-15 -26,-29 -11,-10 -24,-19 l -10,-6 q -18,-21 -31,-46 -7,-14 -17,-40 -7,-16 -8.5,-16 -1.5,0 3.5,21.5 5,21.5 13,37.5 l 21,50 q 0,25 9,48 1,11 4,25.5 3,14.5 6,21.5 6,15 15,28 l -4,-1 q -5,-1 -8,-3 -3,-2 -14.5,-13.5 Q 183,328 175,319 l -12,-16 q -14,-19 -15.5,-18 -1.5,1 8,17.5 Q 165,319 175,334 l 24,32 3,12 q 6,15 15.5,23 9.5,8 19.5,14 8,3 15,5 l 5,1 16,22 h -20 q -10,0 -19,1 -17,-10 -30,-25 -9,-11 -21,-28 l -6,-7 q -10,-12 -11.5,-11 -1.5,1 1.5,7 3,6 6,10 l 6,7 q 34,48 49,61 42,39 68,51 11,4 22,7 l 23,35 -36,-3 q -2,0 -13,-5.5 Q 281,537 272,530 256,516 233,491 l -8,-10 q -5,-7 -5.5,-6.5 -0.5,0.5 1.5,5.5 2,5 4,8 18,25 39,46 9,10 38,33 l 6,6 q 15,17 29,28 11,7 31,9 l 17,16 15,16 4,11 q 2,6 5,11 l -8,-2 q -11,-3 -24,-12 -7,-5 -20.5,-16 Q 343,623 340,620 326,605 324.5,606.5 323,608 332,619 q 5,7 19,22 17,18 25,24 l 14,10 q 20,14 24,19 9,12 23,22 24,18 54.5,22.5 30.5,4.5 57.5,-2.5 13,-4 20,-9 13,12 20,17 9,8 17,16 -7,1 -19,1 -12,0 -33,4 -24,5 -39.5,11.5 Q 499,783 486,794 q -5,4 -6,10 4,0 7.5,-2.5 3.5,-2.5 15.5,-7 12,-4.5 19,-4.5 15,0 37,7 10,4 27,6 21,4 39,4 18,0 39,-6 l 6,-2 q 1,0 24,15 26,17 38,23 18,11 48,24.5 30,13.5 34,13.5 9,-1 25,-14 l 11,-11 z M 253,362 q -3,0 -7,-2 l -4,-2 Q 231,350 224.5,339.5 218,329 217,317 q 12,16 19.5,21.5 7.5,5.5 16.5,6.5 l 2,8 v 5 q 0,4 -2,4 z m 43,87 q -9,-5 -18,-15 l -6,-9 q 8,2 16,3 5,1 11,0 l 12,13 12,14 h -8 q -9,-1 -19,-6 z m 45,-89 5,5 q 7,7 15,17 6,8 8,19 2,8 0.5,13.5 -1.5,5.5 -5.5,5.5 l -4,-1 q -5,-5 -9,-10 l -9,-11 v -15 z m 55,207 q -1,2 -6,0.5 -5,-1.5 -11,-4.5 -9,-5 -22,-19 l -12,-14 q 8,2 14.5,3 6.5,1 12.5,-1 l 15,17 q 6,6 8,11 2,5 1,7 z m 29,-109 q 3,2 8,3 l 3,21 q 1,7 4,17 l 2,10 -8,-1 q -2,-3 -5,-7 l -5,-5 -1,-18 q -2,-13 -5,-25 3,3 7,5 z m 32,208 q -4,-1 -9.5,-4 -5.5,-3 -10.5,-5 -12,-5 -20,-16 8,-1 16,-1 8,0 14,2 l 24,21 q -7,3 -14,3 z m 69,-35 -6,-8 q -6,-9 -9,-12 l -10,-12 q 1,-9 2,-17 1,-5 2,-14 v -8 q 1,0 7.5,8.5 6.5,8.5 11.5,17.5 7,12 7,20 2,13 -5,25 z"
       id="path1-18" /></g><g
     style="display:none;fill:#000000"
     id="g38"
     transform="translate(295,30.5)"><path
       d="m 771,689 q -8,-4 -23,-10 -25,-9 -35,-17 l -8,-6 Q 676,638 667,630 655,619 645.5,606.5 636,594 632.5,586.5 629,579 613,551 l -9,-16 q -14,-22 -16,-31 14,14 25,28 1,2 5,8 6,12 12,16 0,1 1.5,0 l 1.5,-1 q -3,-16 -0.5,-34 2.5,-18 8.5,-30 1,-2 -1,-4 -19,-8 -33,-18 -9,-5 -23,-16 l -13,-10 -7,-5 q -19,-12 -27,-25 5,4 22,13 l 10,6 8,5 q 7,6 12,9 1,0 2,-1.5 1,-1.5 1,-2.5 l -4,-11 q -8,-23 -7,-40 -3,-6 -6,-11 -13,-11 -21,-21 -5,-6 -10,-16 -5,-8 -7,-12 l -6,-8 q -11,-15 -17,-26 -11,-19 -16,-41 -29,3 -51,2 -22,-1 -49,-7 -3,-1 -20,-11 -28,-17 -42,-23 -14,-6 -35,-12 l -11,-4 q -11,-3 -26,-6 l -11,-2 q -42,-8 -83,-21 -12,17 -14,41 0,14 3,41 l 2,15 q 2,18 3,25 3,11 13,31 8,15 11,24 2,6 5,20 3,11 5,16 l 5,13 q 5,14 6,21 6,1 9,-1 3,-2 6,-7 6,-9 12,-9 h 1 q 29,2 41,1 20,-2 31.5,-10.5 Q 321,384 334,365 q 10,-14 17,-29 1,5 -1,12 -1,4 -5.5,14 -4.5,10 -6.5,16 -2,6 -4,17 -2,11 -3,15 -2,6 -6.5,8 -4.5,2 -21.5,0 l -29,-4 q -20,-4 -27,-3.5 -7,0.5 -10,3.5 -8,7 -15,16 -2,2 -2,5.5 0,3.5 5,9.5 l 2,4 q 4,5 14,18.5 10,13.5 11,16.5 2,7 2.5,22 0.5,15 3.5,22 1,3 8,10 l 5,7 q 4,5 11,17 12,22 20,29 2,0 4.5,-0.5 2.5,-0.5 1.5,-1.5 -8,-22 -7,-53 v -6 q 1,-26 -1,-37 0,-5 -4.5,-14.5 Q 291,469 292,464 q 13,15 17,33 5,20 1,45 1,1 10,7 l 13,10 16,10 q 14,9 17,12 8,7 17,25 6,10 9,14 15,20 23,28 23,23 31,38 1,1 2.5,1.5 1.5,0.5 2.5,-0.5 9,-14 24,-21 19,-9 26,-8 5,0 10,4 l 6,3 6,1 q 1,-1 0,-3 -4,-11 -43,-33 -5,-2 -15,-5 -16,-4 -21,-9 27,2 62,18 21,9 59,32 l 6,3 q 4,3 25,18 l 10,8 q 8,3 21.5,4 13.5,1 21.5,-1 3,0 8,-3 7,-5 13,-5 l 7,5 q 6,4 9,7 4,4 5,10 -12,-8 -21,-8 -6,-1 -16,3 -19,5 -36,3 2,8 14,21 8,11 12,16 4,9 9,23 l 4,9 4,15 11,22 11,21 q 7,13 12,19 8,9 18,11 -6,-18 -3,-34 2,-10 10,-26 6,-14 7.5,-20.5 1.5,-6.5 1,-16.5 -0.5,-10 0.5,-15 6,0 16,3.5 10,3.5 14,4.5 6,-3 18,-10 19,-12 31,-13 7,0 25,3 l 11,2 Q 818,711 771,689 Z M 269,265 q -3,3 -12.5,4 -9.5,1 -12.5,-2 -8,-5 -10.5,-15.5 Q 231,241 237,237 q 3,-2 6,-2 3,0 8,1 2,0 6,2 l 9,5 q 4,2 6,9.5 2,7.5 -3,12.5 z"
       id="path1-03" /></g><g
     style="display:none;fill:#000000"
     id="g39"
     transform="translate(295,49.875)"><path
       d="m 289,253 q -2,-2 0,-4 51,-42 50,-42 3,-4 7,-2 8,5 18,6 25,0 32,-9 l 19,-24 Q 430,159 438.5,151.5 447,144 497,127 l 4,-2 q 1,0 3.5,1 2.5,1 3.5,2 l 8,12 q 1,4 -3,6 -8,2 -20,7 -16,6 -28,15 -5,3 -10.5,9.5 -5.5,6.5 -8,12 Q 444,195 445,226 v 6 q 0,9 -12,23 -8,11 -8,16 0,7 11,31 l 4,7 q 0,2 -2,7 l -1,3 q 0,1 6,8 6,7 6,8 l -3,7 58,65 q 2,3 2,4.5 0,1.5 -1,2.5 l -6,7 q -4,4 -11,15 l -2,3 q -3,4 -1,6.5 2,2.5 5,0.5 l 12,-10 12,-13 q 1,-1 2.5,-1 1.5,0 1.5,1 l 72,82 q 3,4 1,6 -19,21 -27,29 -1,1 0,3 1,2 2,1 12,-6 22,-14 3,-2 7,-6 l 4,-4 q 2,-1 4,1 22,24 96,103 38,40 104,108 l 22,23 q 2,2 1,4 l -3,2 q -3,2 -7,6 -12,15 -30,36 -2,3 -0.5,4 1.5,1 4.5,-2 l 2,-1 q 20,-15 29,-23 5,-4 9,-9 l 4,-4 q 2,-2 4,-1 l 24,26 q 2,2 3,5.5 1,3.5 1,5.5 l -1,12 q -5,40 -7,41 l -4,4 q -13,12 -16.5,13.5 -3.5,1.5 -30.5,0 -27,-1.5 -29,-2.5 -2,-1 -86,-115 L 565,584 400,379 q -2,1 -3.5,2.5 Q 395,383 392,381 l -4,-5 q -8,-10 -9,-10.5 -1,-0.5 -3.5,1 -2.5,1.5 -4.5,1 -2,-0.5 -18,-11.5 l -16,-10 q -3,-1 -6,1 l -50,47 q -4,4 -15,33 -16,44 -29,67 -17,29 -43,62 -22,28 -43,48 -1,1 -2.5,1 -1.5,0 -2.5,-1 l -12,-12 v -4 q 54,-76 71,-118 18,-45 22,-96 1,-13 2,-15 5,-5 14.5,-18.5 Q 253,327 253,325 v -5 q 0,-7 4,-10 8,-9 18,-20 15,-17 16,-21 1,-8 -2,-16 z"
       id="path1-25" /></g></svg>
