<?xml version="1.0" encoding="UTF-8" standalone="no"?>
<!-- Uploaded to: SVG Repo, www.svgrepo.com, Generator: SVG Repo Mixer Tools -->

<svg
   fill="#000000"
   width="800px"
   height="800px"
   viewBox="0 0 1000 1000"
   version="1.1"
   id="svg1"
   sodipodi:docname="ast.svg"
   inkscape:version="1.4.2 (f4327f4, 2025-05-13)"
   xmlns:inkscape="http://www.inkscape.org/namespaces/inkscape"
   xmlns:sodipodi="http://sodipodi.sourceforge.net/DTD/sodipodi-0.dtd"
   xmlns="http://www.w3.org/2000/svg"
   xmlns:svg="http://www.w3.org/2000/svg">
  <defs
     id="defs1" />
  <sodipodi:namedview
     id="namedview1"
     pagecolor="#ffffff"
     bordercolor="#000000"
     borderopacity="0.25"
     inkscape:showpageshadow="2"
     inkscape:pageopacity="0.0"
     inkscape:pagecheckerboard="0"
     inkscape:deskcolor="#d1d1d1"
     inkscape:zoom="1.26125"
     inkscape:cx="400.39643"
     inkscape:cy="400"
     inkscape:window-width="1903"
     inkscape:window-height="1211"
     inkscape:window-x="2658"
     inkscape:window-y="612"
     inkscape:window-maximized="0"
     inkscape:current-layer="svg1"
     showgrid="true" />
  <path
     d="m 799.63867,29.284668 c -0.89518,-0.01343 -2.77507,2.558594 -5.63965,7.714844 -3.33333,6 -8.49804,12.666667 -15.49804,20 -7,7.333333 -13.16765,12.333333 -18.50098,15 -13.33333,6 -25,7.000488 -35,3.000488 -6,-2.666667 -12.00049,-3.000977 -18.00049,-1.000977 -6,2 -13.16569,6.668132 -21.49902,14.001465 -8.33333,7.333333 -15.33431,11.831868 -21.00098,13.498532 C 658.83284,103.16569 651.5,103.5 642.5,102.5 c -9,-1 -15.83382,-3.16569 -20.50049,-6.499023 -4.66667,-3.333333 -8,-5 -10,-5 -2,0 -5.99951,3.166178 -11.99951,9.499513 -6,6.33333 -9.99951,11.83235 -11.99951,16.49902 -6,14.66667 -14.99951,25.5 -26.99951,32.5 -12,7 -25.50049,11.33382 -40.50049,13.00049 -15,1.66667 -27.83431,0.16716 -38.50098,-4.49951 -8,-3.33333 -14.33235,-4.50098 -18.99902,-3.50098 -4.66667,1 -9.66667,4.33333 -15,10 C 442.66716,170.16618 440,174.99902 440,178.99902 c 0,4 -2.00098,10.83382 -6.00098,20.50049 -4,9.66667 -7.99951,16.99951 -11.99951,21.99951 -4,5 -7.33333,10.50147 -10,16.50147 -2.66667,6 -6.16716,10.33382 -10.50049,13.00049 -4.33333,2.66667 -11.16471,4.6652 -20.49804,5.99853 -22.66667,2 -39.00147,-4.00049 -49.00147,-18.00049 -5.33333,-8 -7,-12.33137 -5,-12.99804 2,-0.66667 4.33284,-3.33382 6.99951,-8.00049 2.66667,-4.66667 6.83333,-8.33431 12.5,-11.00098 5.66667,-2.66667 8.50098,-6 8.50098,-10 0,-6 -0.83333,-9.6652 -2.5,-10.99853 -1.66667,-1.33333 -5.49902,-1.66765 -11.49902,-1.00098 -6,0.66667 -10.00196,0.66667 -12.00196,0 -2,-0.66667 -4.83186,-2.66765 -8.49853,-6.00098 -3.66667,-3.33333 -5.99951,-5.99804 -6.99951,-7.99804 -1,-2 -1.50147,-5.66765 -1.50147,-11.00098 0,-7.33333 -1.66667,-12.66765 -5,-16.00098 l -5.99853,-5.99853 -3.00049,5 c -2,3.33333 -5.33333,6.33235 -10,8.99902 -4.66667,2.66667 -7.66814,6.83333 -9.00147,12.5 C 277.66569,170.16618 273,178.16765 265,188.50098 c -8,10.33333 -11.99951,17 -11.99951,20 0,3 -2.66716,6.83235 -8.00049,11.49902 -8,6.66667 -18,7.33284 -30,1.99951 -5.33333,-2 -5.99951,4.3348 -1.99951,19.00147 2,6.66667 5.50049,10.83333 10.50049,12.5 5,1.66667 9.16667,6.1652 12.5,13.49853 3.33333,7.33333 5.16471,12.50049 5.49804,15.50049 0.33333,3 -0.16569,6.66765 -1.49902,11.00098 -1.33333,4.33333 -1.33333,7.83137 0,10.49804 1.33333,2.66667 4.16765,5.16667 8.50098,7.5 4.33333,2.33333 6.49902,4.50147 6.49902,6.50147 0,2 -2.33284,5.33333 -6.99951,10 -4.66667,4.66667 -10.16814,7.16667 -16.50147,7.5 -6.33333,0.33333 -11.83235,-1.33333 -16.49902,-5 C 210.33333,326.83382 207.66618,325 206.99951,325 c -0.66667,0 -1.99902,3.50049 -3.99902,10.50049 -2,7 -5.00147,12.16716 -9.00147,15.50049 -12.66667,11.33333 -22.33235,18.33186 -28.99902,20.99853 -4.66667,2 -11.33333,2.16716 -20,0.50049 -8.66667,-1.66667 -15.99951,-4.66569 -21.99951,-8.99902 -6,-4.33333 -9.8348,-6.50147 -11.50147,-6.50147 -1.66667,0 -5.16471,-1.99853 -10.49804,-5.99853 -10.66667,-9.33333 -13.001957,-6 -7.001957,10 2.666667,9.33333 3.335287,16.66618 2.001954,21.99951 -1.333333,5.33333 -2.001954,10.33333 -2.001954,15 0,4.66667 0.668621,7.33382 2.001954,8.00049 1.333333,0.66667 5.165693,0.33235 11.499023,-1.00098 6.33333,-1.33333 12.33382,-1.16618 18.00049,0.50049 5.66667,1.66667 10.1652,5.16716 13.49853,10.50049 4.66667,7.33333 5.16814,15.1652 1.50147,23.49853 -3.66667,8.33333 -10.8348,15.16716 -21.50147,20.50049 -6,3.33333 -9.83235,6.49951 -11.49902,9.49951 -1.66667,3 -1.83382,7.50098 -0.50049,13.50098 0.66667,4 1.66716,6.5 3.00049,7.5 1.33333,1 3.66618,1.83333 6.99951,2.5 8,2 14.16765,7 18.50098,15 4.33333,8 4.50049,14.99853 0.50049,20.99853 -1.33333,2.66667 -0.66716,6 1.99951,10 3.33333,6 5.66618,13.83431 6.99951,23.50098 1.33333,9.66667 1.33333,20.5 0,32.5 -1.33333,12 -3.83333,21.66569 -7.5,28.99902 -3.66667,7.33333 -9.16569,13.66814 -16.49902,19.00147 l -20,15 c -4.66667,3.33333 -9.833825,5.33186 -15.500492,5.99853 -5.666667,0.66667 -10.499511,-0.33137 -14.499511,-2.99804 -2,-0.66667 -3.334798,-1.00098 -4.001465,-1.00098 -0.666667,0 -0.998535,1.00049 -0.998535,3.00049 0,7.33333 3.333333,16.66716 10,28.00049 6.666667,11.33333 15.331868,22.33137 25.998533,32.99804 6,6.66667 10.33382,10.83333 13.00049,12.5 2.66667,1.66667 6.33431,2.5 11.00098,2.5 4.66667,0 10.99902,2.16814 18.99902,6.50147 8,4.33333 13.66618,9.16618 16.99951,14.49951 7.33333,10.66667 11.00098,27.99951 11.00098,51.99951 0.66667,13.33333 4.9e-4,22.16814 -1.99951,26.50147 -2,4.33333 -7.66863,8.5 -17.00196,12.5 -7.33333,2.66667 -10.99853,4.99951 -10.99853,6.99951 0,2 7.66716,4.66716 23.00049,8.00049 15.33333,3.33333 24.66471,4.49853 27.99804,3.49853 3.33333,-1 11.66667,-0.33382 25,1.99951 13.33333,2.33333 26.50196,6.5 39.50196,12.5 13,6 24.1652,13.33529 33.49853,22.00196 7.33333,6.66667 12.8348,13.16618 16.50147,19.49951 3.66667,6.33333 6.16667,13.49902 7.5,21.49902 0.66667,5.33333 1.66471,8.83382 2.99804,10.50049 1.33333,1.66667 5.00098,3.16618 11.00098,4.49951 2.66667,0.66667 5.16667,0.83382 7.5,0.50049 2.33333,-0.33333 5.16765,-1.83284 8.50098,-4.49951 6,-4 14.6652,-7.99951 25.99853,-11.99951 11.33333,-4 20.5,-5.66667 27.5,-5 7,0.66667 14.66716,3.66569 23.00049,8.99902 8.33333,5.33333 16.66667,9.00098 25,11.00098 8.33333,2 15.49902,2 21.49902,0 3.33333,-0.66667 6.00049,-2.00147 8.00049,-4.00147 2,-2 4.00098,-5.33333 6.00098,-10 7.33333,-14 16.83186,-23.33382 28.49853,-28.00049 11.66667,-4.66667 24.50098,-4.66667 38.50098,0 8.66667,3.33333 16.33382,7.33529 23.00049,12.00196 6.66667,4.66667 11.49951,9.83137 14.49951,15.49804 3,5.66667 8.83333,10.66667 17.5,15 8.66667,4.33333 18.00049,6.50147 28.00049,6.50147 l 13.99902,0.99853 1.00098,-15 c 0.66667,-10 2.50049,-17.33284 5.50049,-21.99951 3,-4.66667 9.33235,-12.33382 18.99902,-23.00049 9.66667,-10.66667 18.16716,-19 25.50049,-25 9.33333,-7.33333 17.1652,-12.33333 23.49853,-15 C 727.83235,866.33235 735.00049,865 743.00049,865 c 8,0 13.33186,-0.33431 15.99853,-1.00098 5.33333,-2 5.00147,-12.33186 -0.99853,-30.99853 -3.33333,-8.66667 -4.66814,-16.50098 -4.00147,-23.50098 0.66667,-7 3.00196,-14.16569 7.00196,-21.49902 4,-7.33333 10.1652,-13.83284 18.49853,-19.49951 8.33333,-5.66667 16.3348,-8.83529 24.00147,-9.50196 7.66667,-0.66667 13.5,-2.6652 17.5,-5.99853 4,-3.33333 6.99902,-8.66765 8.99902,-16.00098 4.66667,-15.33333 14.66667,-27 30,-35 8.66667,-4 16.50098,-9.49902 23.50098,-16.49902 7,-7 13.83137,-12 20.49804,-15 6.66667,-3 13.00147,-7.16667 19.00147,-12.5 6,-5.33333 9.16618,-9.66716 9.49951,-13.00049 0.33333,-3.33333 -1.83235,-8.99951 -6.49902,-16.99951 -4,-8 -6.33529,-17.66814 -7.00196,-29.00147 -1.33333,-13.33333 -2.49853,-20.66618 -3.49853,-21.99951 -1,-1.33333 -2.49951,3.00049 -4.49951,13.00049 -3.33333,15.33333 -8.50049,28.66667 -15.50049,40 -7,11.33333 -15.16618,19.00049 -24.49951,23.00049 -6,2.66667 -13.66716,3.99902 -23.00049,3.99902 -6.66667,0 -11.3348,-0.49902 -14.00147,-1.49902 -2.66667,-1 -6.33186,-3.5 -10.99853,-7.5 -7.33333,-6 -11.66716,-9.00147 -13.00049,-9.00147 -1.33333,0 -3.66618,-3.6652 -6.99951,-10.99853 -3.33333,-7.33333 -5,-13.33382 -5,-18.00049 0,-6.66667 -1.66667,-12.33284 -5,-16.99951 -3.33333,-4.66667 -5,-10.16814 -5,-16.50147 0,-6.33333 1.49951,-11.33333 4.49951,-15 3,-3.66667 4.83382,-8.49951 5.50049,-14.49951 0.66667,-4 1.5,-6.5 2.5,-7.5 1,-1 3.16569,-1.83333 6.49902,-2.5 3.33333,-0.66667 5.50147,-1.83186 6.50147,-3.49853 1,-1.66667 2.1652,-6.83382 3.49853,-15.50049 2,-11.33333 5.33333,-19.00049 10,-23.00049 2,-2.66667 3.3348,-4.99951 4.00147,-6.99951 0.66667,-2 0.66667,-5.00147 0,-9.00147 -0.66667,-4 -1.5,-6.5 -2.5,-7.5 -1,-1 -3.66716,-1.49902 -8.00049,-1.49902 -4.33333,0 -7.66667,-1.83382 -10,-5.50049 -2.33333,-3.66667 -2.8348,-7.49902 -1.50147,-11.49902 1.33333,-4 4.50196,-6.83431 9.50196,-8.50098 5,-1.66667 8.49804,-5.49902 10.49804,-11.49902 2,-4.66667 2.83333,-7.66814 2.5,-9.00147 -0.33333,-1.33333 -2.16471,-3 -5.49804,-5 -14,-10.66667 -22.66765,-22.33333 -26.00098,-35 -3.33333,-15.33333 -1.16765,-29.16569 6.49902,-41.49902 7.66667,-12.33333 19.8348,-20.16765 36.50147,-23.50098 7.33333,-1.33333 11.66716,-2.49853 13.00049,-3.49853 1.33333,-1 1.99951,-3.16814 1.99951,-6.50147 0,-3.33333 -0.50147,-5.66618 -1.50147,-6.99951 -1,-1.33333 -3.16569,-2.33382 -6.49902,-3.00049 -6,-1.33333 -9.16618,-5.33284 -9.49951,-11.99951 -0.33333,-6.66667 2.16667,-11.00049 7.5,-13.00049 3.33333,-0.66667 8.6652,-3.83284 15.99853,-9.49951 7.33333,-5.66667 14,-9.16716 20,-10.50049 3.33333,-0.66667 5.50147,-1.5 6.50147,-2.5 1,-1 1.16716,-3.16569 0.50049,-6.49902 -1.33333,-4.66667 0.16618,-10.83431 4.49951,-18.50098 4.33333,-7.66667 6,-12.66667 5,-15 -1,-2.33333 -4.66765,-1.99902 -11.00098,1.00098 C 883.16618,215.5 880,218 880,220 c 0,2 -2.66716,5.66765 -8.00049,11.00098 -3.33333,3.33333 -6.00049,5.33186 -8.00049,5.99853 -2,0.66667 -6.33137,0.66667 -12.99804,0 -8,-0.66667 -13.16716,-0.1652 -15.50049,1.50147 C 833.16716,240.16765 833,244 835,250 c 1.33333,3.33333 1.50049,7.5 0.50049,12.5 -1,5 -2.66667,7.5 -5,7.5 -2.33333,0 -4.16716,2.16569 -5.50049,6.49902 -1.33333,4.33333 -1.33333,8.16814 0,11.50147 3.33333,6.66667 -0.33431,10 -11.00098,10 -5.33333,0 -9.16569,1.1652 -11.49902,3.49853 -2.33333,2.33333 -4.16716,3.33382 -5.50049,3.00049 -1.33333,-0.33333 -4.33235,-2.83333 -8.99902,-7.5 -4.66667,-4.66667 -8.16716,-7.33382 -10.50049,-8.00049 -2.33333,-0.66667 -8.16667,-0.99853 -17.5,-0.99853 -12.66667,0.66667 -19.99951,4.9e-4 -21.99951,-1.99951 -2,-2 -5.00147,-3.00049 -9.00147,-3.00049 -2.66667,0 -4.16618,0.33186 -4.49951,0.99853 -0.33333,0.66667 -0.16618,2.16863 0.50049,4.50196 0.66667,2.33333 -0.66569,6.5 -3.99902,12.5 -3.33333,6 -6.66667,9.83235 -10,11.49902 -3.33333,1.66667 -7.83431,2.5 -13.50098,2.5 -5.66667,0 -11.00098,-2.16569 -16.00098,-6.49902 -5,-4.33333 -7.5,-9.00147 -7.5,-14.00147 0,-5 -1.99853,-9.83284 -5.99853,-14.49951 -2,-2.66667 -3.16765,-4.83235 -3.50098,-6.49902 -0.33333,-1.66667 0.33284,-3.8348 1.99951,-6.50147 1.66667,-2.66667 2.00098,-5.66569 1.00098,-8.99902 -1,-3.33333 -3.33284,-6.00049 -6.99951,-8.00049 -3.66667,-2 -6.50098,-2.33431 -8.50098,-1.00098 -2,1.33333 -2.33186,3.50147 -0.99853,6.50147 1.33333,3 1.99951,5.33284 1.99951,6.99951 0,1.66667 -1.00049,3.83235 -3.00049,6.49902 -2.66667,4 -5.33382,6.00098 -8.00049,6.00098 -2.66667,0 -6.66618,1.66667 -11.99951,5 -8.66667,6.66667 -17.33431,6.66667 -26.00098,0 -4.66667,-3.33333 -11.99951,-4.66569 -21.99951,-3.99902 -6.66667,0 -11.00049,-0.33431 -13.00049,-1.00098 -2,-0.66667 -4.83186,-3.33382 -8.49853,-8.00049 -3.66667,-4.66667 -5.8348,-8.49902 -6.50147,-11.49902 -0.66667,-3 -0.99853,-9.66667 -0.99853,-20 0,-10.33333 0.33186,-17.50147 0.99853,-21.50147 0.66667,-4 2.33333,-8.33137 5,-12.99804 7.33333,-12.66667 18.16667,-20.83529 32.5,-24.50196 14.33333,-3.66667 28.5,-1.83284 42.5,5.50049 3.33333,1.33333 5.83333,1.99951 7.5,1.99951 1.66667,0 5.16716,-1.1652 10.50049,-3.49853 5.33333,-2.33333 11.83284,-3.66814 19.49951,-4.00147 7.66667,-0.33333 13.5,0.16814 17.5,1.50147 4,1.33333 8.00196,0.33284 12.00196,-3.00049 2,-2 4.33284,-3.33235 6.99951,-3.99902 2.66667,-0.66667 7.00049,-1.00098 13.00049,-1.00098 10,0.66667 17.66471,-0.83284 22.99804,-4.49951 C 749.33235,161.83382 754.00049,155 758.00049,145 c 4,-10 10.66667,-20 20,-30 11.33333,-11.33333 19.33235,-23.167155 23.99902,-35.500488 4.66667,-12.333333 5.66716,-24.167156 3.00049,-35.500489 -2.66667,-8.666667 -4.33333,-13.499511 -5,-14.499511 -0.0937,-0.140625 -0.21484,-0.212647 -0.36133,-0.214844 z M 469.49951,313.50098 c 167.25764,2.0452 286.85034,116.70834 287.5,281.99951 0.59699,151.88936 -125.49208,286.00138 -288.00049,285 -155.32481,-0.95711 -288.51042,-111.74072 -289.49951,-285 -0.9599,-168.14619 136.85643,-283.87212 290,-281.99951 z"
     id="path8"
     sodipodi:nodetypes="sssccssssssscsscsssssssccsssssssssssccsssscccssssssssssssccsssccssssscscscscsccsssccscssscsssccscssssscscscscsssscscscssscccsscssccsssssccssssccscscsscsssssscsssccssssssscsccscssscscscscsssssscscssscssssscssssssssscssssssscscccssssscscsssscscsscscsssssss" />
  <ellipse
     style="fill:none;stroke-width:1.25"
     id="path3"
     cx="478.03619"
     cy="605.42639"
     rx="213.95349"
     ry="220.41344" />
  <ellipse
     style="fill:none;stroke-width:1.25"
     id="path4"
     cx="450.90439"
     cy="608.52716"
     rx="15.24548"
     ry="26.098192" />
  <ellipse
     style="fill:none;stroke-width:1.25"
     id="path9"
     cx="487.85529"
     cy="610.85272"
     rx="226.35658"
     ry="240.82687" />
  <path
     d="m 799.63867,29.284668 c -0.89518,-0.01343 -2.77507,2.558594 -5.63965,7.714844 -3.33333,6 -8.49804,12.666667 -15.49804,20 -7,7.333333 -13.16765,12.333333 -18.50098,15 -13.33333,6 -25,7.000488 -35,3.000488 -6,-2.666667 -12.00049,-3.000977 -18.00049,-1.000977 -6,2 -13.16569,6.668132 -21.49902,14.001465 -8.33333,7.333333 -15.33431,11.831868 -21.00098,13.498532 C 658.83284,103.16569 651.5,103.5 642.5,102.5 c -9,-1 -15.83382,-3.16569 -20.50049,-6.499023 -4.66667,-3.333333 -8,-5 -10,-5 -2,0 -5.99951,3.166178 -11.99951,9.499513 -6,6.33333 -9.99951,11.83235 -11.99951,16.49902 -6,14.66667 -14.99951,25.5 -26.99951,32.5 -12,7 -25.50049,11.33382 -40.50049,13.00049 -15,1.66667 -27.83431,0.16716 -38.50098,-4.49951 -8,-3.33333 -14.33235,-4.50098 -18.99902,-3.50098 -4.66667,1 -9.66667,4.33333 -15,10 C 442.66716,170.16618 440,174.99902 440,178.99902 c 0,4 -2.00098,10.83382 -6.00098,20.50049 -4,9.66667 -7.99951,16.99951 -11.99951,21.99951 -4,5 -7.33333,10.50147 -10,16.50147 -2.66667,6 -6.16716,10.33382 -10.50049,13.00049 -4.33333,2.66667 -11.16471,4.6652 -20.49804,5.99853 -22.66667,2 -39.00147,-4.00049 -49.00147,-18.00049 -5.33333,-8 -7,-12.33137 -5,-12.99804 2,-0.66667 4.33284,-3.33382 6.99951,-8.00049 2.66667,-4.66667 6.83333,-8.33431 12.5,-11.00098 5.66667,-2.66667 8.50098,-6 8.50098,-10 0,-6 -0.83333,-9.6652 -2.5,-10.99853 -1.66667,-1.33333 -5.49902,-1.66765 -11.49902,-1.00098 -6,0.66667 -10.00196,0.66667 -12.00196,0 -2,-0.66667 -4.83186,-2.66765 -8.49853,-6.00098 -3.66667,-3.33333 -5.99951,-5.99804 -6.99951,-7.99804 -1,-2 -1.50147,-5.66765 -1.50147,-11.00098 0,-7.33333 -1.66667,-12.66765 -5,-16.00098 l -5.99853,-5.99853 -3.00049,5 c -2,3.33333 -5.33333,6.33235 -10,8.99902 -4.66667,2.66667 -7.66814,6.83333 -9.00147,12.5 C 277.66569,170.16618 273,178.16765 265,188.50098 c -8,10.33333 -11.99951,17 -11.99951,20 0,3 -2.66716,6.83235 -8.00049,11.49902 -8,6.66667 -18,7.33284 -30,1.99951 -5.33333,-2 -5.99951,4.3348 -1.99951,19.00147 2,6.66667 5.50049,10.83333 10.50049,12.5 5,1.66667 9.16667,6.1652 12.5,13.49853 3.33333,7.33333 5.16471,12.50049 5.49804,15.50049 0.33333,3 -0.16569,6.66765 -1.49902,11.00098 -1.33333,4.33333 -1.33333,7.83137 0,10.49804 1.33333,2.66667 4.16765,5.16667 8.50098,7.5 4.33333,2.33333 6.49902,4.50147 6.49902,6.50147 0,2 -2.33284,5.33333 -6.99951,10 -4.66667,4.66667 -10.16814,7.16667 -16.50147,7.5 -6.33333,0.33333 -11.83235,-1.33333 -16.49902,-5 C 210.33333,326.83382 207.66618,325 206.99951,325 c -0.66667,0 -1.99902,3.50049 -3.99902,10.50049 -2,7 -5.00147,12.16716 -9.00147,15.50049 -12.66667,11.33333 -22.33235,18.33186 -28.99902,20.99853 -4.66667,2 -11.33333,2.16716 -20,0.50049 -8.66667,-1.66667 -15.99951,-4.66569 -21.99951,-8.99902 -6,-4.33333 -9.8348,-6.50147 -11.50147,-6.50147 -1.66667,0 -5.16471,-1.99853 -10.49804,-5.99853 -10.66667,-9.33333 -13.001957,-6 -7.001957,10 2.666667,9.33333 3.335287,16.66618 2.001954,21.99951 -1.333333,5.33333 -2.001954,10.33333 -2.001954,15 0,4.66667 0.668621,7.33382 2.001954,8.00049 1.333333,0.66667 5.165693,0.33235 11.499023,-1.00098 6.33333,-1.33333 12.33382,-1.16618 18.00049,0.50049 5.66667,1.66667 10.1652,5.16716 13.49853,10.50049 4.66667,7.33333 5.16814,15.1652 1.50147,23.49853 -3.66667,8.33333 -10.8348,15.16716 -21.50147,20.50049 -6,3.33333 -9.83235,6.49951 -11.49902,9.49951 -1.66667,3 -1.83382,7.50098 -0.50049,13.50098 0.66667,4 1.66716,6.5 3.00049,7.5 1.33333,1 3.66618,1.83333 6.99951,2.5 8,2 14.16765,7 18.50098,15 4.33333,8 4.50049,14.99853 0.50049,20.99853 -1.33333,2.66667 -0.66716,6 1.99951,10 3.33333,6 5.66618,13.83431 6.99951,23.50098 1.33333,9.66667 1.33333,20.5 0,32.5 -1.33333,12 -3.83333,21.66569 -7.5,28.99902 -3.66667,7.33333 -9.16569,13.66814 -16.49902,19.00147 l -20,15 c -4.66667,3.33333 -9.833825,5.33186 -15.500492,5.99853 -5.666667,0.66667 -10.499511,-0.33137 -14.499511,-2.99804 -2,-0.66667 -3.334798,-1.00098 -4.001465,-1.00098 -0.666667,0 -0.998535,1.00049 -0.998535,3.00049 0,7.33333 3.333333,16.66716 10,28.00049 6.666667,11.33333 15.331868,22.33137 25.998533,32.99804 6,6.66667 10.33382,10.83333 13.00049,12.5 2.66667,1.66667 6.33431,2.5 11.00098,2.5 4.66667,0 10.99902,2.16814 18.99902,6.50147 8,4.33333 13.66618,9.16618 16.99951,14.49951 7.33333,10.66667 11.00098,27.99951 11.00098,51.99951 0.66667,13.33333 4.9e-4,22.16814 -1.99951,26.50147 -2,4.33333 -7.66863,8.5 -17.00196,12.5 -7.33333,2.66667 -10.99853,4.99951 -10.99853,6.99951 0,2 7.66716,4.66716 23.00049,8.00049 15.33333,3.33333 24.66471,4.49853 27.99804,3.49853 3.33333,-1 11.66667,-0.33382 25,1.99951 13.33333,2.33333 26.50196,6.5 39.50196,12.5 13,6 24.1652,13.33529 33.49853,22.00196 7.33333,6.66667 12.8348,13.16618 16.50147,19.49951 3.66667,6.33333 6.16667,13.49902 7.5,21.49902 0.66667,5.33333 1.66471,8.83382 2.99804,10.50049 1.33333,1.66667 5.00098,3.16618 11.00098,4.49951 2.66667,0.66667 5.16667,0.83382 7.5,0.50049 2.33333,-0.33333 5.16765,-1.83284 8.50098,-4.49951 6,-4 14.6652,-7.99951 25.99853,-11.99951 11.33333,-4 20.5,-5.66667 27.5,-5 7,0.66667 14.66716,3.66569 23.00049,8.99902 8.33333,5.33333 16.66667,9.00098 25,11.00098 8.33333,2 15.49902,2 21.49902,0 3.33333,-0.66667 6.00049,-2.00147 8.00049,-4.00147 2,-2 4.00098,-5.33333 6.00098,-10 7.33333,-14 16.83186,-23.33382 28.49853,-28.00049 11.66667,-4.66667 24.50098,-4.66667 38.50098,0 8.66667,3.33333 16.33382,7.33529 23.00049,12.00196 6.66667,4.66667 11.49951,9.83137 14.49951,15.49804 3,5.66667 8.83333,10.66667 17.5,15 8.66667,4.33333 18.00049,6.50147 28.00049,6.50147 l 13.99902,0.99853 1.00098,-15 c 0.66667,-10 2.50049,-17.33284 5.50049,-21.99951 3,-4.66667 9.33235,-12.33382 18.99902,-23.00049 9.66667,-10.66667 18.16716,-19 25.50049,-25 9.33333,-7.33333 17.1652,-12.33333 23.49853,-15 C 727.83235,866.33235 735.00049,865 743.00049,865 c 8,0 13.33186,-0.33431 15.99853,-1.00098 5.33333,-2 5.00147,-12.33186 -0.99853,-30.99853 -3.33333,-8.66667 -4.66814,-16.50098 -4.00147,-23.50098 0.66667,-7 3.00196,-14.16569 7.00196,-21.49902 4,-7.33333 10.1652,-13.83284 18.49853,-19.49951 8.33333,-5.66667 16.3348,-8.83529 24.00147,-9.50196 7.66667,-0.66667 13.5,-2.6652 17.5,-5.99853 4,-3.33333 6.99902,-8.66765 8.99902,-16.00098 4.66667,-15.33333 14.66667,-27 30,-35 8.66667,-4 16.50098,-9.49902 23.50098,-16.49902 7,-7 13.83137,-12 20.49804,-15 6.66667,-3 13.00147,-7.16667 19.00147,-12.5 6,-5.33333 9.16618,-9.66716 9.49951,-13.00049 0.33333,-3.33333 -1.83235,-8.99951 -6.49902,-16.99951 -4,-8 -6.33529,-17.66814 -7.00196,-29.00147 -1.33333,-13.33333 -2.49853,-20.66618 -3.49853,-21.99951 -1,-1.33333 -2.49951,3.00049 -4.49951,13.00049 -3.33333,15.33333 -8.50049,28.66667 -15.50049,40 -7,11.33333 -15.16618,19.00049 -24.49951,23.00049 -6,2.66667 -13.66716,3.99902 -23.00049,3.99902 -6.66667,0 -11.3348,-0.49902 -14.00147,-1.49902 -2.66667,-1 -6.33186,-3.5 -10.99853,-7.5 -7.33333,-6 -11.66716,-9.00147 -13.00049,-9.00147 -1.33333,0 -3.66618,-3.6652 -6.99951,-10.99853 -3.33333,-7.33333 -5,-13.33382 -5,-18.00049 0,-6.66667 -1.66667,-12.33284 -5,-16.99951 -3.33333,-4.66667 -5,-10.16814 -5,-16.50147 0,-6.33333 1.49951,-11.33333 4.49951,-15 3,-3.66667 4.83382,-8.49951 5.50049,-14.49951 0.66667,-4 1.5,-6.5 2.5,-7.5 1,-1 3.16569,-1.83333 6.49902,-2.5 3.33333,-0.66667 5.50147,-1.83186 6.50147,-3.49853 1,-1.66667 2.1652,-6.83382 3.49853,-15.50049 2,-11.33333 5.33333,-19.00049 10,-23.00049 2,-2.66667 3.3348,-4.99951 4.00147,-6.99951 0.66667,-2 0.66667,-5.00147 0,-9.00147 -0.66667,-4 -1.5,-6.5 -2.5,-7.5 -1,-1 -3.66716,-1.49902 -8.00049,-1.49902 -4.33333,0 -7.66667,-1.83382 -10,-5.50049 -2.33333,-3.66667 -2.8348,-7.49902 -1.50147,-11.49902 1.33333,-4 4.50196,-6.83431 9.50196,-8.50098 5,-1.66667 8.49804,-5.49902 10.49804,-11.49902 2,-4.66667 2.83333,-7.66814 2.5,-9.00147 -0.33333,-1.33333 -2.16471,-3 -5.49804,-5 -14,-10.66667 -22.66765,-22.33333 -26.00098,-35 -3.33333,-15.33333 -1.16765,-29.16569 6.49902,-41.49902 7.66667,-12.33333 19.8348,-20.16765 36.50147,-23.50098 7.33333,-1.33333 11.66716,-2.49853 13.00049,-3.49853 1.33333,-1 1.99951,-3.16814 1.99951,-6.50147 0,-3.33333 -0.50147,-5.66618 -1.50147,-6.99951 -1,-1.33333 -3.16569,-2.33382 -6.49902,-3.00049 -6,-1.33333 -9.16618,-5.33284 -9.49951,-11.99951 -0.33333,-6.66667 2.16667,-11.00049 7.5,-13.00049 3.33333,-0.66667 8.6652,-3.83284 15.99853,-9.49951 7.33333,-5.66667 14,-9.16716 20,-10.50049 3.33333,-0.66667 5.50147,-1.5 6.50147,-2.5 1,-1 1.16716,-3.16569 0.50049,-6.49902 -1.33333,-4.66667 0.16618,-10.83431 4.49951,-18.50098 4.33333,-7.66667 6,-12.66667 5,-15 -1,-2.33333 -4.66765,-1.99902 -11.00098,1.00098 C 883.16618,215.5 880,218 880,220 c 0,2 -2.66716,5.66765 -8.00049,11.00098 -3.33333,3.33333 -6.00049,5.33186 -8.00049,5.99853 -2,0.66667 -6.33137,0.66667 -12.99804,0 -8,-0.66667 -13.16716,-0.1652 -15.50049,1.50147 C 833.16716,240.16765 833,244 835,250 c 1.33333,3.33333 1.50049,7.5 0.50049,12.5 -1,5 -2.66667,7.5 -5,7.5 -2.33333,0 -4.16716,2.16569 -5.50049,6.49902 -1.33333,4.33333 -1.33333,8.16814 0,11.50147 3.33333,6.66667 -0.33431,10 -11.00098,10 -5.33333,0 -9.16569,1.1652 -11.49902,3.49853 -2.33333,2.33333 -4.16716,3.33382 -5.50049,3.00049 -1.33333,-0.33333 -4.33235,-2.83333 -8.99902,-7.5 -4.66667,-4.66667 -8.16716,-7.33382 -10.50049,-8.00049 -2.33333,-0.66667 -8.16667,-0.99853 -17.5,-0.99853 -12.66667,0.66667 -19.99951,4.9e-4 -21.99951,-1.99951 -2,-2 -5.00147,-3.00049 -9.00147,-3.00049 -2.66667,0 -4.16618,0.33186 -4.49951,0.99853 -0.33333,0.66667 -0.16618,2.16863 0.50049,4.50196 0.66667,2.33333 -0.66569,6.5 -3.99902,12.5 -3.33333,6 -6.66667,9.83235 -10,11.49902 -3.33333,1.66667 -7.83431,2.5 -13.50098,2.5 -5.66667,0 -11.00098,-2.16569 -16.00098,-6.49902 -5,-4.33333 -7.5,-9.00147 -7.5,-14.00147 0,-5 -1.99853,-9.83284 -5.99853,-14.49951 -2,-2.66667 -3.16765,-4.83235 -3.50098,-6.49902 -0.33333,-1.66667 0.33284,-3.8348 1.99951,-6.50147 1.66667,-2.66667 2.00098,-5.66569 1.00098,-8.99902 -1,-3.33333 -3.33284,-6.00049 -6.99951,-8.00049 -3.66667,-2 -6.50098,-2.33431 -8.50098,-1.00098 -2,1.33333 -2.33186,3.50147 -0.99853,6.50147 1.33333,3 1.99951,5.33284 1.99951,6.99951 0,1.66667 -1.00049,3.83235 -3.00049,6.49902 -2.66667,4 -5.33382,6.00098 -8.00049,6.00098 -2.66667,0 -6.66618,1.66667 -11.99951,5 -8.66667,6.66667 -17.33431,6.66667 -26.00098,0 -4.66667,-3.33333 -11.99951,-4.66569 -21.99951,-3.99902 -6.66667,0 -11.00049,-0.33431 -13.00049,-1.00098 -2,-0.66667 -4.83186,-3.33382 -8.49853,-8.00049 -3.66667,-4.66667 -5.8348,-8.49902 -6.50147,-11.49902 -0.66667,-3 -0.99853,-9.66667 -0.99853,-20 0,-10.33333 0.33186,-17.50147 0.99853,-21.50147 0.66667,-4 2.33333,-8.33137 5,-12.99804 7.33333,-12.66667 18.16667,-20.83529 32.5,-24.50196 14.33333,-3.66667 28.5,-1.83284 42.5,5.50049 3.33333,1.33333 5.83333,1.99951 7.5,1.99951 1.66667,0 5.16716,-1.1652 10.50049,-3.49853 5.33333,-2.33333 11.83284,-3.66814 19.49951,-4.00147 7.66667,-0.33333 13.5,0.16814 17.5,1.50147 4,1.33333 8.00196,0.33284 12.00196,-3.00049 2,-2 4.33284,-3.33235 6.99951,-3.99902 2.66667,-0.66667 7.00049,-1.00098 13.00049,-1.00098 10,0.66667 17.66471,-0.83284 22.99804,-4.49951 C 749.33235,161.83382 754.00049,155 758.00049,145 c 4,-10 10.66667,-20 20,-30 11.33333,-11.33333 19.33235,-23.167155 23.99902,-35.500488 4.66667,-12.333333 5.66716,-24.167156 3.00049,-35.500489 -2.66667,-8.666667 -4.33333,-13.499511 -5,-14.499511 -0.0937,-0.140625 -0.21484,-0.212647 -0.36133,-0.214844 z M 469.49951,313.50098 c 167.25764,2.0452 286.85034,116.70834 287.5,281.99951 0.59699,151.88936 -125.49208,286.00138 -288.00049,285 -155.32481,-0.95711 -288.51042,-111.74072 -289.49951,-285 -0.9599,-168.14619 136.85643,-283.87212 290,-281.99951 z"
     id="path11"
     sodipodi:nodetypes="sssccssssssscsscsssssssccsssssssssssccsssscccssssssssssssccsssccssssscscscscsccsssccscssscsssccscssssscscscscsssscscscssscccsscssccsssssccssssccscscsscsssssscsssccssssssscsccscssscscscscsssssscscssscssssscssssssssscssssssscscccssssscscsssscscsscscsssssss" />
  <path
     d="m 482.56052,481.24301 q -68.08796,0 -135.58384,0.59207 l -7.10483,-0.59207 q -7.10483,0 -10.06518,0.59207 -4.14448,1.18414 -6.21673,6.21673 -2.07224,5.03259 -2.07224,16.2819 -1.18414,35.52415 0.59207,101.24383 0,7.10483 5.03259,11.54535 5.03259,4.44052 12.43345,4.14448 7.40087,-0.29603 12.43345,-4.73655 5.03259,-4.44052 5.03259,-11.54535 1.18414,-17.17001 1.77621,-52.10209 v -0.59207 q 0,-16.57793 2.66431,-23.68276 2.66431,-7.10483 7.99293,-8.88104 2.96035,-0.59207 12.43346,0 h 1.7762 q 28.41932,1.77621 56.83864,1.18414 10.06518,-0.59207 14.80173,1.7762 6.51276,2.36828 9.47311,10.36122 2.96035,7.99293 2.96035,24.57087 0,12.43345 0.8881,37.59639 0.8881,25.16294 0.8881,37.59639 v 29.60346 q 0.59207,24.8669 -0.59207,31.37966 -1.7762,8.88104 -10.06517,10.65725 -5.32862,1.77621 -27.23518,1.18414 -19.53829,-1.18414 -32.56381,-1.18414 h -9.4731 q -18.35415,0.59207 -23.0907,-0.59207 -6.51276,-1.77621 -8.28897,-7.6969 -0.59207,-4.14448 -0.59207,-19.53828 l 0.59207,-19.53828 q 0,-1.18414 -2.96035,-3.55242 l -3.55241,-4.14448 q -74.00865,46.18139 -94.73107,125.51866 31.97174,-32.5638 55.6545,-52.10209 l 4.14449,-3.55241 q 6.51276,-7.10483 8.88104,-7.6969 4.73655,-0.59207 1.7762,13.02552 -2.36827,12.43345 11.84139,16.57794 8.28897,2.36827 27.23518,2.36827 h 5.32862 q 24.86691,0.59207 75.19279,0 h 18.94621 q 19.53828,-0.59207 27.82725,-3.25638 8.28897,-2.66431 11.24931,-10.95328 2.96035,-8.28896 3.55242,-26.64311 0.59207,-55.6545 1.77621,-165.77937 v -4.14448 q 0,-10.06518 -1.77621,-26.05104 -2.36828,-26.05105 -26.05104,-25.45898 z m 98.28348,13.02552 q -4.14449,-5.32862 -4.73656,-14.20966 -0.59207,-5.32862 0.59207,-15.98586 0.59207,-7.10483 0.59207,-10.65725 -1.18414,-20.13035 -3.55241,-26.64311 -2.36828,-8.28897 -11.24932,-10.65725 -6.51276,-1.7762 -27.82725,-1.7762 l -85.25796,0.59207 h -31.37966 q -9.47311,0.59207 -14.20966,5.32862 -4.73656,4.73655 -4.73656,13.61759 0.59207,15.3938 17.17001,16.57794 7.10483,0.59207 20.72242,1.18413 l 81.11348,1.77621 q 12.43345,0 18.35414,6.51276 5.92069,6.51276 5.32862,19.53829 -0.59207,30.19552 0,91.17865 v 74.60071 q 0,7.10483 1.77621,10.65725 2.96035,4.73655 9.47311,5.32862 16.57793,2.36828 21.31449,-11.84138 2.36827,-8.88104 2.36827,-18.35415 l 0.59207,-11.24931 q 0.59207,-23.0907 -1.18414,-34.34001 2.36828,-28.41932 7.6969,-42.62898 6.51276,-16.57794 23.0907,-27.82725 11.24931,-7.10483 34.93208,-20.13036 28.41932,-15.39379 43.81312,-26.05104 -29.60346,-6.51276 -58.61485,1.18414 -27.23518,7.10483 -46.18139,24.27483 z"
     id="path1"
     style="stroke-width:0.592069" />
</svg>
